<svg width="20" height="21" viewBox="0 0 20 21" fill="none" xmlns="http://www.w3.org/2000/svg">
    <path d="M20 7.24683V6.19214C20 4.98401 19.0206 4.00464 17.8125 4.00464H2.1875C0.979375 4.00464 0 4.98401 0 6.19214V7.24683C0 7.35468 0.0874609 7.44214 0.195312 7.44214H19.8047C19.9125 7.44214 20 7.35468 20 7.24683Z" fill="#407BFF"/>
    <path d="M0 8.88745V15.5671C0 16.7753 0.979375 17.7546 2.1875 17.7546H17.8125C19.0206 17.7546 20 16.7753 20 15.5671V8.88745C20 8.7796 19.9125 8.69214 19.8047 8.69214H0.195312C0.0874609 8.69214 0 8.7796 0 8.88745ZM5 14.0046C5 14.3498 4.72016 14.6296 4.375 14.6296H3.75C3.40484 14.6296 3.125 14.3498 3.125 14.0046V13.3796C3.125 13.0345 3.40484 12.7546 3.75 12.7546H4.375C4.72016 12.7546 5 13.0345 5 13.3796V14.0046Z" fill="#407BFF"/>
</svg>
