<svg width="26" height="26" viewBox="0 0 26 26" fill="none" xmlns="http://www.w3.org/2000/svg">
    <g clip-path="url(#clip0)">
        <path d="M13.3692 17.476V17.3786C12.8714 17.3732 12.3952 17.3461 11.9353 17.3082C11.6864 17.9521 11.3347 18.5527 10.8965 19.0884C11.7243 19.2236 12.563 19.2994 13.4016 19.3102L13.3692 17.476Z" fill="#407BFF"/>
        <path d="M11.1778 13.8941C10.7775 11.9787 9.36526 10.4204 7.48774 9.83066C6.96831 9.67375 6.43265 9.59259 5.89158 9.59259C4.54972 9.598 3.25115 10.0958 2.26099 10.994C0.0588282 12.9959 -0.0980826 16.4101 1.90388 18.6123C3.90585 20.8144 7.32001 20.9713 9.52217 18.9694C10.6476 17.9467 11.2915 16.5021 11.2861 14.9817C11.2861 14.6191 11.2482 14.2512 11.1778 13.8941ZM5.89158 14.2566C6.80599 14.2566 7.61219 14.8626 7.86108 15.7446C8.16408 16.8321 7.53644 17.9576 6.44347 18.266V18.7421C6.44347 19.0397 6.19999 19.2832 5.9024 19.2832C5.60481 19.2832 5.36133 19.0397 5.36133 18.7421V18.2714C4.46856 18.0279 3.85174 17.2217 3.84633 16.2965C3.84633 15.9989 4.08981 15.7554 4.3874 15.7554C4.68499 15.7554 4.92847 15.9989 4.92847 16.2965C4.92847 16.8267 5.36133 17.2542 5.89158 17.2542C6.42183 17.2542 6.84928 16.8213 6.84928 16.2911C6.84928 15.7608 6.41642 15.3334 5.88617 15.3334C4.96094 15.3334 4.15474 14.7111 3.91667 13.8184C3.6299 12.7362 4.27919 11.6108 5.36674 11.3186V11.0859C5.36674 10.7884 5.61022 10.5449 5.90781 10.5449C6.2054 10.5449 6.44888 10.7884 6.44888 11.0859V11.3294C7.33083 11.5783 7.93683 12.3845 7.93683 13.2989C7.93683 13.5965 7.69335 13.84 7.39576 13.84C7.09817 13.84 6.85469 13.5965 6.85469 13.2989C6.85469 12.7687 6.42183 12.3358 5.89158 12.3358C5.36133 12.3358 4.93388 12.7633 4.92847 13.2989C4.92847 13.8292 5.36133 14.2566 5.89158 14.2566Z" fill="#407BFF"/>
        <path d="M13.3533 16.2911L13.3209 14.3757C12.9854 14.3703 12.6553 14.3595 12.3415 14.3378C12.3578 14.5543 12.3686 14.7653 12.3686 14.9763C12.3686 15.3983 12.3253 15.8258 12.2441 16.2424C12.6012 16.2749 12.9746 16.2911 13.3533 16.2911Z" fill="#407BFF"/>
        <path d="M19.2777 7.3363C18.9043 7.53109 18.5094 7.688 18.1035 7.80704C16.8861 8.17496 15.29 8.37516 13.6235 8.37516C12.0273 8.37516 10.5069 8.1912 9.33278 7.85032C8.92697 7.74211 8.5374 7.59061 8.16406 7.40123L8.20194 8.92705C8.81335 9.1543 9.38147 9.47895 9.89549 9.88475C9.91172 9.89016 9.92255 9.89016 9.93878 9.89557C10.9776 10.1607 12.287 10.3014 13.6235 10.3014C15.1709 10.3014 16.6914 10.1066 17.7897 9.77654C18.9639 9.41943 19.2236 9.04609 19.2236 8.97575C19.2236 8.9 19.2182 8.82966 19.2777 8.75391V7.3363Z" fill="#407BFF"/>
        <path d="M17.7847 5.18847C16.6863 4.85301 15.1659 4.66364 13.6185 4.66364C12.0602 4.66364 10.5993 4.85301 9.50632 5.18847C8.36466 5.53476 8.11576 5.87563 8.11035 5.98385C8.11035 5.98385 8.11576 5.98384 8.11576 5.99467C8.14282 6.1137 8.46746 6.48163 9.63076 6.81709C10.7075 7.13091 12.1251 7.30406 13.6185 7.30406C15.1659 7.30406 16.6809 7.11468 17.7793 6.78463C18.9534 6.43293 19.2186 6.05959 19.2186 5.98385C19.2186 5.91351 18.9588 5.54558 17.7847 5.18847Z" fill="#407BFF"/>
        <path d="M25.4889 20.1597V18.5364C25.1264 18.7204 24.7476 18.8773 24.3526 18.9963C23.1406 19.3643 21.5553 19.5645 19.8834 19.5645C18.4008 19.5645 16.9562 19.3967 15.8199 19.0992C15.3546 18.9801 14.9055 18.8178 14.4727 18.6068L14.4997 20.1759C14.4997 20.1813 14.4997 20.1813 14.4997 20.1867C14.4997 20.2679 14.7378 20.6304 15.8794 20.9821C16.9616 21.3121 18.4225 21.4961 19.9862 21.4961C21.5445 21.4961 23.0108 21.3067 24.1037 20.9659C25.2454 20.6087 25.4943 20.2354 25.4943 20.1597H25.4889Z" fill="#407BFF"/>
        <path d="M19.2664 10.3555C18.893 10.5448 18.5035 10.7018 18.0977 10.8208C16.8802 11.1887 15.2841 11.3889 13.6122 11.3889C12.7898 11.3889 11.9727 11.3348 11.1611 11.232C11.5994 11.838 11.924 12.5198 12.1296 13.2448C12.595 13.2773 13.0982 13.2989 13.6176 13.2989C13.6338 13.2989 13.6555 13.2989 13.6717 13.2989C14.5591 12.325 16.9452 11.838 19.2664 11.7731V10.3555Z" fill="#407BFF"/>
        <path d="M24.3156 16.0043C23.109 16.3615 21.5399 16.5562 19.895 16.5562C18.2989 16.5562 16.7785 16.3723 15.6043 16.0314C15.1985 15.9178 14.8036 15.7663 14.4248 15.5769L14.4464 16.8214L14.4519 17.2759C14.8739 17.8007 16.8921 18.477 19.8896 18.477C21.4533 18.477 22.9305 18.2931 24.0396 17.9576C25.2084 17.6005 25.4627 17.2326 25.4627 17.1568C25.4627 17.0973 25.4951 17.0324 25.4951 16.9783H25.5005V15.5444C25.1218 15.7338 24.7268 15.8961 24.3156 16.0043Z" fill="#407BFF"/>
        <path d="M24.0611 13.3802C22.9573 13.0447 21.4423 12.8661 19.8948 12.8661H19.8028C18.3636 12.8661 16.9947 13.0285 15.945 13.3261C14.825 13.6399 14.4408 13.997 14.3921 14.1431C14.3867 14.1539 14.3867 14.1593 14.3867 14.1647C14.3867 14.1647 14.3867 14.1647 14.3975 14.1864C14.43 14.3 14.7492 14.6679 15.9125 15.0088C16.9893 15.3172 18.4069 15.4903 19.9002 15.4903C21.4423 15.4903 22.9032 15.3118 24.0124 14.9817C25.2136 14.6246 25.4841 14.2513 25.4895 14.1701V14.1647C25.4841 14.0836 25.2136 13.7265 24.0611 13.3802Z" fill="#407BFF"/>
    </g>
    <defs>
        <clipPath id="clip0">
            <rect width="25" height="25" fill="white" transform="translate(0.5 0.579834)"/>
        </clipPath>
    </defs>
</svg>
