<svg width="20" height="21" viewBox="0 0 20 21" fill="none" xmlns="http://www.w3.org/2000/svg">
    <g clip-path="url(#clip0)">
        <path d="M20 9.63831V10.3359C20 11.7061 18.3979 12.4523 17.3492 11.5706L10.4149 5.74194C10.175 5.54033 9.825 5.54033 9.58508 5.74194L2.65081 11.5706C1.60056 12.4525 0 11.7052 0 10.3359V9.63831C0 9.16089 0.209677 8.71089 0.575 8.40364L9.58508 0.830653C9.825 0.62904 10.175 0.62904 10.4149 0.830653L13.5484 3.46452V1.96977C13.1919 1.96977 12.9032 1.68106 12.9032 1.3246C12.9032 0.968153 13.1919 0.679443 13.5484 0.679443H18.0645C18.421 0.679443 18.7097 0.968153 18.7097 1.3246C18.7097 1.68106 18.421 1.96977 18.0645 1.96977V7.26009L19.425 8.40364C19.7903 8.71089 20 9.16089 20 9.63831ZM17.2984 12.9947V20.0343C17.2984 20.3906 17.0096 20.6794 16.6532 20.6794H3.34677C2.99044 20.6794 2.70161 20.3906 2.70161 20.0343V12.9976C2.70161 12.7665 2.825 12.5531 3.0256 12.4382C3.42552 12.2091 4.42734 11.3273 9.5846 6.99041C9.82464 6.78856 10.1754 6.78856 10.4154 6.99041C15.5711 11.3265 16.554 12.2008 16.9666 12.4341C17.1698 12.549 17.2984 12.7613 17.2984 12.9947ZM7.01613 12.494C7.01613 13.0274 7.4504 13.4617 7.98387 13.4617C8.51734 13.4617 8.95161 13.0274 8.95161 12.494C8.95161 11.9605 8.51734 11.5262 7.98387 11.5262C7.4504 11.5262 7.01613 11.9605 7.01613 12.494ZM12.9839 17.3327C12.9839 16.7992 12.5496 16.3649 12.0161 16.3649C11.4827 16.3649 11.0484 16.7992 11.0484 17.3327C11.0484 17.8661 11.4827 18.3004 12.0161 18.3004C12.5496 18.3004 12.9839 17.8661 12.9839 17.3327ZM12.8754 12.0379C12.6234 11.7859 12.2153 11.7859 11.9633 12.0379L7.1246 16.8766C6.87258 17.1282 6.87258 17.5371 7.1246 17.7887C7.37573 18.0407 7.78512 18.0411 8.03669 17.7887L12.8754 12.95C13.1274 12.6984 13.1274 12.2895 12.8754 12.0379Z" fill="#407BFF"/>
    </g>
    <defs>
        <clipPath id="clip0">
            <rect width="20" height="20" fill="white" transform="translate(0 0.679443)"/>
        </clipPath>
    </defs>
</svg>
