<svg width="20" height="21" viewBox="0 0 20 21" fill="none" xmlns="http://www.w3.org/2000/svg">
    <g clip-path="url(#clip0)">
        <path d="M19.3551 17.09L16.2688 5.44513C16.2007 5.18821 15.9682 5.00931 15.7024 5.00931H12.3319C13.82 3.10478 12.4687 0.279541 10.023 0.279541C7.57701 0.279541 6.22619 3.10505 7.71405 5.00927H4.10768C3.83838 5.00927 3.60381 5.19278 3.53897 5.45415L0.643226 17.1293C0.609866 17.2636 0.625218 17.4054 0.686468 17.5296L1.88229 19.9529C1.981 20.1529 2.18471 20.2795 2.40776 20.2795H17.6421C17.8697 20.2795 18.0766 20.1478 18.173 19.9417L19.3196 17.4882C19.3778 17.3637 19.3903 17.2228 19.3551 17.09ZM10.023 1.45142C10.9922 1.45142 11.7808 2.23997 11.7808 3.20923C11.7808 4.17849 10.9922 4.96704 10.023 4.96704C9.05373 4.96704 8.26518 4.17849 8.26518 3.20923C8.26518 2.23997 9.05373 1.45142 10.023 1.45142ZM10.5764 15.8302V16.1232C10.5764 16.4468 10.314 16.7092 9.99041 16.7092C9.66682 16.7092 9.40448 16.4468 9.40448 16.1232V15.8737C8.9633 15.7995 8.54573 15.6363 8.22741 15.4281C7.95659 15.251 7.88069 14.8878 8.05784 14.617C8.23494 14.3462 8.59811 14.2703 8.86897 14.4475C9.31409 14.7386 10.0116 14.8333 10.3921 14.6543C10.6714 14.5229 10.8801 14.2454 10.9116 13.9637C10.9769 13.3777 10.3116 13.1147 9.80205 12.9135C9.26948 12.7031 8.66584 12.4647 8.31948 11.8393C7.8176 10.9332 8.29502 9.69524 9.40448 9.3545V9.10767C9.40448 8.78407 9.66682 8.52173 9.99041 8.52173C10.314 8.52173 10.5764 8.78407 10.5764 9.10767V9.31313C10.9279 9.38989 11.2564 9.54603 11.5079 9.77798C11.7458 9.99735 11.7608 10.3681 11.5414 10.6059C11.322 10.8438 10.9513 10.8588 10.7134 10.6394C10.4803 10.4244 9.88537 10.3448 9.57287 10.5549C9.32596 10.7209 9.22139 11.0491 9.34459 11.2716C9.61233 11.7549 10.567 11.8027 11.308 12.3801C12.7 13.4649 12.0802 15.4101 10.5764 15.8302Z" fill="#407BFF"/>
    </g>
    <defs>
        <clipPath id="clip0">
            <rect width="20" height="20" fill="white" transform="translate(0 0.279541)"/>
        </clipPath>
    </defs>
</svg>
