<svg width="26" height="26" viewBox="0 0 26 26" fill="none" xmlns="http://www.w3.org/2000/svg">
    <path d="M5.96875 23.0031L6.82031 23.4289C7.09169 23.5656 7.39144 23.6366 7.69531 23.6359H13.543C13.8859 23.6363 14.2228 23.546 14.5195 23.3742L21.082 19.5852C21.2605 19.4808 21.3902 19.3099 21.443 19.1101C21.4957 18.9102 21.467 18.6975 21.3633 18.5187C21.2578 18.3426 21.088 18.2144 20.8897 18.1612C20.6915 18.108 20.4803 18.134 20.3008 18.2336L16.3672 20.5031C16.3821 20.6801 16.3675 20.8583 16.3242 21.0305C16.2714 21.2292 16.1796 21.4154 16.0542 21.5783C15.9288 21.7413 15.7723 21.8777 15.5938 21.9797C15.3581 22.1182 15.0897 22.191 14.8164 22.1906C14.6792 22.19 14.5426 22.1716 14.4102 22.1359L9.75 20.8898C9.70024 20.8765 9.6536 20.8535 9.61273 20.8221C9.57186 20.7908 9.53757 20.7517 9.51182 20.707C9.48607 20.6624 9.46935 20.6132 9.46263 20.5621C9.45591 20.511 9.45932 20.4591 9.47266 20.4094C9.48599 20.3596 9.509 20.313 9.54037 20.2721C9.57173 20.2312 9.61084 20.1969 9.65545 20.1712C9.74556 20.1192 9.85263 20.1051 9.95313 20.132L14.6133 21.382C14.7118 21.4093 14.8148 21.4164 14.9161 21.4029C15.0175 21.3895 15.1151 21.3558 15.2031 21.3039C15.338 21.2276 15.4469 21.1128 15.5161 20.9742C15.5853 20.8356 15.6114 20.6795 15.5913 20.5259C15.5712 20.3723 15.5056 20.2282 15.403 20.1121C15.3005 19.996 15.1656 19.9132 15.0156 19.8742L9.1875 18.3117C8.86674 18.2252 8.52913 18.2225 8.20703 18.3039L5.96875 18.8625V23.0031Z" fill="#407BFF"/>
    <path d="M4.40625 18.1672H5.1875V23.636H4.40625V18.1672Z" fill="#407BFF"/>
    <path d="M2.0625 17.386H3.625V24.4172H2.0625V17.386Z" fill="#407BFF"/>
    <path d="M12.8554 9.5735H12.4765C12.2208 9.57746 11.9689 9.51152 11.7479 9.38279C11.5269 9.25405 11.3453 9.06742 11.2226 8.84303C10.3773 8.70299 9.50981 8.87565 8.78249 9.32872C8.05516 9.78179 7.51776 10.4843 7.27074 11.3048C7.02373 12.1253 7.08403 13.0077 7.44035 13.787C7.79668 14.5663 8.42464 15.1892 9.20684 15.5391C9.98903 15.889 10.8719 15.9421 11.6904 15.6883C12.5088 15.4346 13.2069 14.8915 13.654 14.1604C14.1011 13.4294 14.2666 12.5606 14.1196 11.7164C13.9727 10.8722 13.5233 10.1104 12.8554 9.5735ZM10.2656 11.9173H11.0468C11.3576 11.9173 11.6557 12.0407 11.8755 12.2605C12.0953 12.4803 12.2187 12.7783 12.2187 13.0891C12.2187 13.3999 12.0953 13.698 11.8755 13.9178C11.6557 14.1375 11.3576 14.261 11.0468 14.261V14.6516C11.0468 14.7552 11.0057 14.8546 10.9324 14.9279C10.8592 15.0011 10.7598 15.0423 10.6562 15.0423C10.5526 15.0423 10.4533 15.0011 10.38 14.9279C10.3068 14.8546 10.2656 14.7552 10.2656 14.6516V14.261C9.9548 14.261 9.65673 14.1375 9.43696 13.9178C9.21719 13.698 9.09372 13.3999 9.09372 13.0891C9.09372 12.9855 9.13488 12.8862 9.20813 12.8129C9.28139 12.7397 9.38075 12.6985 9.48435 12.6985C9.58795 12.6985 9.68731 12.7397 9.76056 12.8129C9.83382 12.8862 9.87497 12.9855 9.87497 13.0891C9.87497 13.1927 9.91613 13.2921 9.98938 13.3653C10.0626 13.4386 10.162 13.4798 10.2656 13.4798H11.0468C11.1504 13.4798 11.2498 13.4386 11.3231 13.3653C11.3963 13.2921 11.4375 13.1927 11.4375 13.0891C11.4375 12.9855 11.3963 12.8862 11.3231 12.8129C11.2498 12.7397 11.1504 12.6985 11.0468 12.6985H10.2656C9.9548 12.6985 9.65673 12.575 9.43696 12.3553C9.21719 12.1355 9.09372 11.8374 9.09372 11.5266C9.09372 11.2158 9.21719 10.9178 9.43696 10.698C9.65673 10.4782 9.9548 10.3548 10.2656 10.3548V9.96413C10.2656 9.86053 10.3068 9.76117 10.38 9.68791C10.4533 9.61466 10.5526 9.5735 10.6562 9.5735C10.7598 9.5735 10.8592 9.61466 10.9324 9.68791C11.0057 9.76117 11.0468 9.86053 11.0468 9.96413V10.3548C11.3576 10.3548 11.6557 10.4782 11.8755 10.698C12.0953 10.9178 12.2187 11.2158 12.2187 11.5266C12.2187 11.6302 12.1776 11.7296 12.1043 11.8028C12.0311 11.8761 11.9317 11.9173 11.8281 11.9173C11.7245 11.9173 11.6251 11.8761 11.5519 11.8028C11.4786 11.7296 11.4375 11.6302 11.4375 11.5266C11.4375 11.423 11.3963 11.3237 11.3231 11.2504C11.2498 11.1772 11.1504 11.136 11.0468 11.136H10.2656C10.162 11.136 10.0626 11.1772 9.98938 11.2504C9.91613 11.3237 9.87497 11.423 9.87497 11.5266C9.87497 11.6302 9.91613 11.7296 9.98938 11.8028C10.0626 11.8761 10.162 11.9173 10.2656 11.9173Z" fill="#407BFF"/>
    <path d="M22.375 4.10474H23.9375V11.136H22.375V4.10474Z" fill="#407BFF"/>
    <path d="M20.8125 4.88599H21.5938V10.3547H20.8125V4.88599Z" fill="#407BFF"/>
    <path d="M20.0313 9.96412V5.5188L19.1797 5.08911C18.907 4.95666 18.6079 4.88724 18.3047 4.88599H12.4571C12.1142 4.88617 11.7775 4.97642 11.4805 5.14771L4.91801 8.93677C4.73958 9.04115 4.6098 9.212 4.55708 9.41188C4.50437 9.61176 4.53302 9.82438 4.63676 10.0032C4.74224 10.1793 4.91205 10.3075 5.11032 10.3607C5.30859 10.4139 5.51977 10.388 5.69926 10.2883L7.89066 9.02271C8.66448 8.37006 9.64399 8.01173 10.6563 8.01099C10.793 8.01099 10.9258 8.0188 11.0625 8.03052C11.1015 7.70032 11.261 7.39613 11.5104 7.17626C11.7598 6.9564 12.0816 6.83634 12.4141 6.83911H16.125C16.2286 6.83911 16.328 6.88027 16.4013 6.95353C16.4745 7.02678 16.5157 7.12614 16.5157 7.22974C16.5157 7.33334 16.4745 7.4327 16.4013 7.50595C16.328 7.57921 16.2286 7.62037 16.125 7.62037H12.4141C12.2648 7.62084 12.1213 7.67798 12.0125 7.78022C11.9038 7.88246 11.8379 8.02218 11.8282 8.17115C11.8246 8.246 11.8367 8.32077 11.8636 8.3907C11.8905 8.46064 11.9316 8.52422 11.9844 8.5774C12.0476 8.64471 12.1238 8.69846 12.2084 8.7354C12.293 8.77233 12.3843 8.79167 12.4766 8.79224H14.5625C14.6304 8.79186 14.6972 8.80935 14.7561 8.84295C14.8151 8.87655 14.8642 8.92507 14.8985 8.98365L15.3868 9.79615C15.5609 10.0851 15.8066 10.3242 16.1002 10.4905C16.3937 10.6568 16.7252 10.7446 17.0625 10.7454H17.4961C17.7529 10.7463 18.0073 10.6964 18.2446 10.5986C18.4819 10.5007 18.6975 10.3567 18.8789 10.1751L18.9727 10.0774C19.0472 10.0054 19.1465 9.96489 19.25 9.96412H20.0313Z" fill="#407BFF"/>
</svg>
