<svg width="20" height="20" viewBox="0 0 20 20" fill="none" xmlns="http://www.w3.org/2000/svg">
<path d="M8.28241 11.7796C6.37356 10.0024 5.94255 8.22515 5.84531 7.51311C5.81814 7.31623 5.89091 7.11879 6.0422 6.97892L7.58693 5.54136C7.81417 5.32993 7.85449 5.00042 7.68417 4.74682L5.22466 1.19112C5.03623 0.910299 4.64932 0.808948 4.33126 0.957089L0.382872 2.68839C0.125666 2.80631 -0.0256186 3.06074 0.00358427 3.32627C0.210469 5.15613 1.06731 9.65437 5.81531 14.0752C10.5633 18.4961 15.3941 19.2935 17.3605 19.4862C17.6457 19.5133 17.919 19.3725 18.0456 19.133L19.9052 15.4569C20.0637 15.1615 19.9556 14.8022 19.6552 14.6264L15.8361 12.3372C15.5639 12.1785 15.21 12.2157 14.9827 12.4271L13.4387 13.8653C13.2884 14.0061 13.0764 14.0739 12.8649 14.0486C12.1001 13.9581 10.1913 13.5568 8.28241 11.7796Z" fill="#407BFF"/>
<path d="M15.8619 10.8221C15.481 10.8221 15.1723 10.5347 15.1723 10.1801C15.169 7.52186 12.8553 5.36768 10.0002 5.36468C9.6193 5.36468 9.31055 5.07722 9.31055 4.72262C9.31055 4.36802 9.6193 4.08057 10.0002 4.08057C13.6167 4.08428 16.5475 6.81296 16.5515 10.1801C16.5515 10.5347 16.2428 10.8221 15.8619 10.8221Z" fill="#407BFF"/>
<path d="M19.31 10.822C18.9291 10.822 18.6203 10.5345 18.6203 10.1799C18.615 5.74951 14.7588 2.15918 10.0002 2.15423C9.6193 2.15423 9.31055 1.86677 9.31055 1.51217C9.31055 1.15758 9.6193 0.870117 10.0002 0.870117C15.5202 0.875779 19.9935 5.0406 19.9996 10.1799C19.9996 10.3502 19.9269 10.5135 19.7976 10.6339C19.6683 10.7543 19.4929 10.822 19.31 10.822Z" fill="#407BFF"/>
</svg>
