<svg width="21" height="20" viewBox="0 0 21 20" fill="none" xmlns="http://www.w3.org/2000/svg">
<path d="M13.6286 4.47372C12.4996 2.16826 10.1377 0.644043 7.48842 0.644043C3.69761 0.644043 0.613582 3.71057 0.613582 7.47982C0.613582 8.50417 0.833499 9.48598 1.26755 10.4014L0.624949 13.6148C0.543154 14.0238 0.904005 14.3854 1.31314 14.3045L4.56615 13.6613C5.00414 13.8691 5.45726 14.0271 5.92283 14.136C4.87922 9.19306 8.62585 4.55333 13.6286 4.47372Z" fill="#407BFF"/>
<path d="M19.959 15.4011C20.0713 15.1644 20.1689 14.9231 20.2524 14.678H20.2309C21.6937 10.3844 18.6175 5.87187 14.0761 5.65215C14.076 5.65191 14.076 5.65168 14.0759 5.65145C10.1684 5.47137 6.92188 8.60005 6.92188 12.4796C6.92188 16.2457 9.98278 19.3098 13.7476 19.3152C14.7688 19.3139 15.7476 19.094 16.6604 18.6611C20.223 19.3654 19.9452 19.3153 20.027 19.3153C20.3973 19.3153 20.6739 18.9761 20.6016 18.6145L19.959 15.4011Z" fill="#407BFF"/>
</svg>
