<svg width="60" height="60" viewBox="0 0 60 60" fill="none" xmlns="http://www.w3.org/2000/svg">
<circle cx="30" cy="30" r="30" fill="#407BFF"/>
<path d="M25.4979 21.3902L26.0157 20.8723C26.3531 20.5349 26.2819 19.9707 25.8748 19.7265L21.9517 17.3725C20.9217 16.756 19.6113 16.9169 18.7652 17.7652C17.9169 18.6128 17.756 19.9232 18.3725 20.9517L20.7264 24.8741C20.971 25.2817 21.538 25.3524 21.8723 25.0151L22.3908 24.4972L26.3534 28.4538L29.457 25.3499L25.4979 21.3902Z" fill="white"/>
<path d="M42.5008 19.9166C42.2856 19.4652 41.6819 19.3528 41.322 19.7142L39.4273 21.6089C39.1497 21.8864 38.6691 21.8864 38.3916 21.6089C38.1062 21.3235 38.1062 20.8586 38.3916 20.5732L40.2863 18.6785C40.6427 18.3221 40.5403 17.7173 40.0839 17.4997C38.1262 16.5642 35.7816 16.9668 34.2481 18.5018C32.8397 19.9094 32.3848 22.0015 33.0429 23.849L24.8486 32.043C23.0025 31.385 20.9096 31.8399 19.5013 33.2483C17.967 34.7825 17.5644 37.1278 18.4992 39.0841C18.7173 39.5416 19.3225 39.6419 19.678 39.2865L21.5727 37.3918C21.8588 37.1071 22.3237 37.1064 22.6084 37.3925C22.8937 37.6763 22.8958 38.1385 22.6084 38.4275L20.7137 40.3222C20.3573 40.6786 20.4597 41.2834 20.9161 41.501C21.6192 41.837 22.3723 42.0001 23.1205 42.0001C24.4537 42.0001 25.7691 41.4816 26.7511 40.4988C28.1601 39.0912 28.6143 36.999 27.9563 35.1515L36.1508 26.9576C37.9961 27.6149 40.0897 27.1607 41.4987 25.7524C43.033 24.2182 43.4356 21.8728 42.5008 19.9166Z" fill="white"/>
<path d="M41.9139 35.8061C39.4276 33.329 38.0646 32.3448 35.15 30.0781L31.0078 34.2207C33.0565 36.8506 34.2971 38.5468 36.6238 40.8744C37.3849 41.6354 38.3962 41.9904 39.3912 41.9904C40.1214 41.9904 40.8424 41.8171 41.4483 41.3815C42.3316 40.7449 42.8881 39.7643 42.9746 38.6922C43.0611 37.6186 42.6749 36.5671 41.9139 35.8061ZM39.8043 38.8115C39.5127 39.0771 39.0583 39.0516 38.7794 38.7727L35.8788 35.8721C35.5999 35.5932 35.5744 35.1388 35.84 34.8472C36.1235 34.536 36.6056 34.5275 36.8999 34.8218L39.8296 37.7515C40.1239 38.0459 40.1155 38.5279 39.8043 38.8115Z" fill="white"/>
</svg>
