<svg width="60" height="60" viewBox="0 0 60 60" fill="none" xmlns="http://www.w3.org/2000/svg">
<circle cx="30" cy="30" r="30" fill="#407BFF"/>
<path d="M28.3447 14.2068C27.2086 16.4624 26.3405 18.8384 25.752 21.2879C27.1806 21.6075 28.6419 21.7971 30.1194 21.851V14C29.5204 14.0344 28.9281 14.1034 28.3447 14.2068Z" fill="white"/>
<path d="M36.6138 23.0117C35.0638 23.357 33.4816 23.5576 31.8809 23.6115V28.1189H37.1484C37.1025 26.3993 36.9235 24.6916 36.6138 23.0117Z" fill="white"/>
<path d="M33.655 14.2067C33.0718 14.1034 32.4796 14.0344 31.8809 14V21.8505C33.358 21.7972 34.8176 21.6096 36.2476 21.29C35.6587 18.8394 34.7902 16.4613 33.655 14.2067Z" fill="white"/>
<path d="M31.8809 36.1494V43.9999C32.4799 43.9655 33.0724 43.8965 33.6558 43.7931C34.7603 41.6019 35.6473 39.2322 36.2524 36.711C34.821 36.3908 33.3597 36.2027 31.8809 36.1494Z" fill="white"/>
<path d="M38.9087 29.8809C38.8619 31.749 38.6663 33.6058 38.3242 35.431C40.0751 35.9505 41.7593 36.6536 43.3681 37.5379C44.9305 35.2846 45.84 32.6538 45.9991 29.8809H38.9087Z" fill="white"/>
<path d="M25.7402 36.711C26.3092 39.0816 27.1621 41.4625 28.3369 43.793C28.9203 43.8965 29.5128 43.9655 30.1118 43.9999V36.1494C28.633 36.2027 27.1717 36.3908 25.7402 36.711Z" fill="white"/>
<path d="M25.3824 23.0107C25.0729 24.6899 24.8934 26.3975 24.8477 28.1197H30.1151V23.6131C28.5142 23.5588 26.9305 23.3557 25.3824 23.0107Z" fill="white"/>
<path d="M18.6311 20.4619C17.0687 22.7153 16.1592 25.3462 16 28.1192H23.0907C23.1378 26.247 23.3349 24.3908 23.6778 22.5671C21.9296 22.0489 20.2379 21.3446 18.6311 20.4619Z" fill="white"/>
<path d="M24.0395 37.1582C22.5735 37.6025 21.1388 38.1879 19.7285 38.941C21.4345 40.8691 23.6068 42.3595 26.115 43.218C25.2364 41.2664 24.5415 39.2396 24.0395 37.1582Z" fill="white"/>
<path d="M19.7383 19.0577C21.118 19.7938 22.563 20.3899 24.0529 20.8407C24.5548 18.7615 25.2487 16.7329 26.1271 14.7803C23.7265 15.6014 21.522 17.0419 19.7383 19.0577Z" fill="white"/>
<path d="M23.0904 29.8809H16C16.1592 32.6538 17.0686 35.2846 18.631 37.5379C20.2381 36.6546 21.9222 35.9511 23.675 35.431C23.3328 33.6058 23.1372 31.749 23.0904 29.8809Z" fill="white"/>
<path d="M35.877 14.7803C36.7546 16.7327 37.4484 18.7628 37.9505 20.8427C39.4495 20.3889 40.8834 19.797 42.2667 19.0584C40.5562 17.1251 38.3811 15.6367 35.877 14.7803Z" fill="white"/>
<path d="M37.9524 37.1582C37.4506 39.2388 36.7559 41.2656 35.877 43.218C38.3856 42.3593 40.5578 40.8687 42.2634 38.941C40.9117 38.2192 39.4825 37.6219 37.9524 37.1582Z" fill="white"/>
<path d="M24.8477 29.8809C24.893 31.5998 25.0712 33.3083 25.3799 34.9886C26.9307 34.643 28.5137 34.4421 30.1155 34.3883V29.8809H24.8477Z" fill="white"/>
<path d="M43.3621 20.4619C41.7867 21.3279 40.1043 22.0391 38.3145 22.5699C38.6577 24.3943 38.8551 26.25 38.9024 28.119H45.993C45.8338 25.346 44.9244 22.7153 43.3621 20.4619Z" fill="white"/>
<path d="M31.8809 29.8809V34.3883C33.4826 34.4421 35.0657 34.643 36.6165 34.9886C36.9251 33.3083 37.1034 31.5998 37.1487 29.8809H31.8809Z" fill="white"/>
</svg>
