<svg width="60" height="60" viewBox="0 0 60 60" fill="none" xmlns="http://www.w3.org/2000/svg">
<circle cx="30" cy="30" r="30" fill="#407BFF"/>
<path d="M17 33.9131V26.9131H16.5C15.6716 26.9131 15 27.5847 15 28.4131V32.4131C15 33.2415 15.6716 33.9131 16.5 33.9131H17Z" fill="white"/>
<path d="M41 25.4131H39C38.4477 25.4131 38 25.8608 38 26.4131V34.4131C38 34.9654 38.4477 35.4131 39 35.4131H41C41.5523 35.4131 42 34.9654 42 34.4131V26.4131C42 25.8608 41.5523 25.4131 41 25.4131Z" fill="white"/>
<path d="M43.5 26.9131H43V33.9131H43.5C44.3284 33.9131 45 33.2415 45 32.4131V28.4131C45 27.5847 44.3284 26.9131 43.5 26.9131Z" fill="white"/>
<path d="M21.1255 24.4136C21.8552 20.0809 25.6067 16.9083 30.0005 16.9083C34.3942 16.9083 38.1457 20.0809 38.8755 24.4136H40.8755C40.0877 19.0083 35.4528 15 29.9905 15C24.5281 15 19.8933 19.0083 19.1055 24.4136H21.1055H21.1255Z" fill="white"/>
<path d="M19 35.4131H19.5V37.9131C19.5 40.3984 21.5147 42.4131 24 42.4131H26.09C26.3014 43.0109 26.8659 43.4113 27.5 43.4131H32.5C33.3284 43.4131 34 42.7415 34 41.9131C34 41.0847 33.3284 40.4131 32.5 40.4131H27.5C26.8659 40.4149 26.3014 40.8152 26.09 41.4131H24C22.067 41.4131 20.5 39.8461 20.5 37.9131V35.4131H21C21.5523 35.4131 22 34.9654 22 34.4131V26.4131C22 25.8608 21.5523 25.4131 21 25.4131H19C18.4477 25.4131 18 25.8608 18 26.4131V34.4131C18 34.9654 18.4477 35.4131 19 35.4131Z" fill="white"/>
</svg>
