<svg width="60" height="60" viewBox="0 0 60 60" fill="none" xmlns="http://www.w3.org/2000/svg">
<circle cx="30" cy="30" r="30" fill="#407BFF"/>
<path d="M30.0016 16V19.1701C35.9725 19.1701 40.8307 24.0291 40.8307 30.0008C40.8307 35.9725 35.9725 40.8315 30.0016 40.8315C24.568 40.8315 20.0562 36.8094 19.2858 31.5858H23.4387C24.1535 34.5483 26.8212 36.7571 30 36.7571H31.5851V34.2995H36.0787V31.1293H31.5851V28.8675H36.0787V25.6974H31.5851V23.2405H30C26.8204 23.2405 24.1535 25.4493 23.4387 28.4118H16V29.9968C16 37.716 22.2808 43.9976 30.0008 43.9976C37.72 43.9976 44 37.716 44 29.9968C44 22.2792 37.7208 16 30.0016 16Z" fill="white"/>
</svg>
