<svg width="60" height="61" viewBox="0 0 60 61" fill="none" xmlns="http://www.w3.org/2000/svg">
<path d="M45.6281 39.7013C43.6673 37.7655 41.2195 37.7655 39.2712 39.7013C37.785 41.175 36.2988 42.6487 34.8376 44.1474C34.438 44.5595 34.1008 44.6469 33.6137 44.3722C32.6521 43.8476 31.628 43.423 30.7038 42.8485C26.3951 40.1384 22.7858 36.654 19.5887 32.7325C18.0026 30.7843 16.5913 28.6986 15.6047 26.3507C15.4049 25.8761 15.4423 25.5639 15.8295 25.1768C17.3157 23.7405 18.7644 22.2668 20.2256 20.7932C22.2613 18.745 22.2613 16.3471 20.2131 14.2865C19.0516 13.1125 17.8902 11.9635 16.7287 10.7896C15.5298 9.59064 14.3433 8.37922 13.1319 7.19277C11.1711 5.28197 8.72329 5.28197 6.77502 7.20526C5.27635 8.67895 3.84013 10.1901 2.31648 11.6388C0.90523 12.9751 0.193361 14.6112 0.0434942 16.522C-0.193795 19.6317 0.568029 22.5666 1.64208 25.4265C3.84013 31.3463 7.18716 36.6041 11.2461 41.4248C16.7287 47.944 23.2729 53.1019 30.9286 56.8236C34.3755 58.4971 37.9474 59.7834 41.8314 59.9957C44.504 60.1456 46.827 59.4712 48.6878 57.3856C49.9617 55.9618 51.3979 54.663 52.7467 53.3017C54.745 51.2785 54.7575 48.8307 52.7717 46.8325C50.3988 44.4471 48.0134 42.0742 45.6281 39.7013Z" fill="#407BFF"/>
<path d="M43.2382 29.749L47.8466 28.9622C47.1222 24.7284 45.124 20.8943 42.0892 17.847C38.8795 14.6374 34.8207 12.6142 30.3496 11.9897L29.7002 16.6231C33.1596 17.1102 36.3068 18.6713 38.7921 21.1566C41.14 23.5045 42.6762 26.4769 43.2382 29.749Z" fill="#407BFF"/>
<path d="M50.434 9.71638C45.1137 4.3961 38.3821 1.03658 30.9512 0L30.3018 4.63339C36.7211 5.53259 42.5409 8.44251 47.1369 13.0259C51.4955 17.3846 54.3555 22.8922 55.3921 28.9493L60.0005 28.1625C58.7891 21.1437 55.4795 14.7744 50.434 9.71638Z" fill="#407BFF"/>
</svg>
