<svg width="365" height="293" viewBox="0 0 365 293" fill="none" xmlns="http://www.w3.org/2000/svg">
<g filter="url(#filter0_ddd)">
<path d="M227.947 130.418C227.947 155.271 207.8 175.418 182.947 175.418C158.094 175.418 137.947 155.271 137.947 130.418C137.947 105.566 158.094 85.4185 182.947 85.4185C207.8 85.4185 227.947 105.566 227.947 130.418Z" fill="#407BFF"/>
</g>
<path d="M278.947 222.918V222.418" stroke="#00196C"/>
<path opacity="0.7" d="M307.048 73.2524L228.182 130.98" stroke="#00196C" stroke-linecap="round" stroke-dasharray="3 3"/>
<path opacity="0.7" d="M278.947 222.418L182.967 175.437" stroke="#00196C" stroke-linecap="round" stroke-dasharray="3 3"/>
<path opacity="0.7" d="M57.373 189.725L137.87 130.345" stroke="#00196C" stroke-linecap="round" stroke-dasharray="3 3"/>
<path opacity="0.7" d="M89.1934 40.0317L182.962 85.4531" stroke="#00196C" stroke-linecap="round" stroke-dasharray="3 3"/>
<g filter="url(#filter1_ddd)">
<circle cx="54.9473" cy="222.418" r="30" fill="#407BFF"/>
</g>
<path d="M54.9488 208.418V211.589C60.9198 211.589 65.7779 216.448 65.7779 222.419C65.7779 228.391 60.9198 233.25 54.9488 233.25C49.5153 233.25 45.0034 229.228 44.2331 224.004H48.3859C49.1008 226.967 51.7684 229.176 54.9473 229.176H56.5323V226.718H61.026V223.548H56.5323V221.286H61.026V218.116H56.5323V215.659H54.9473C51.7676 215.659 49.1008 217.868 48.3859 220.83H40.9473V222.415C40.9473 230.135 47.228 236.416 54.9481 236.416C62.6673 236.416 68.9473 230.135 68.9473 222.415C68.9473 214.698 62.6681 208.418 54.9488 208.418Z" fill="white"/>
<g filter="url(#filter2_ddd)">
<circle cx="54.9473" cy="38.4185" r="30" fill="#407BFF"/>
</g>
<path d="M41.9473 42.332V35.332H41.4473C40.6188 35.332 39.9473 36.0036 39.9473 36.832V40.832C39.9473 41.6605 40.6188 42.332 41.4473 42.332H41.9473Z" fill="white"/>
<path d="M65.9473 33.832H63.9473C63.395 33.832 62.9473 34.2797 62.9473 34.832V42.832C62.9473 43.3843 63.395 43.832 63.9473 43.832H65.9473C66.4996 43.832 66.9473 43.3843 66.9473 42.832V34.832C66.9473 34.2797 66.4996 33.832 65.9473 33.832Z" fill="white"/>
<path d="M68.4473 35.332H67.9473V42.332H68.4473C69.2757 42.332 69.9473 41.6605 69.9473 40.832V36.832C69.9473 36.0036 69.2757 35.332 68.4473 35.332Z" fill="white"/>
<path d="M46.0727 32.832C46.8025 28.4993 50.554 25.3268 54.9477 25.3268C59.3415 25.3268 63.093 28.4993 63.8227 32.832H65.8227C65.0349 27.4268 60.4001 23.4185 54.9377 23.4185C49.4754 23.4185 44.8405 27.4268 44.0527 32.832H46.0527H46.0727Z" fill="white"/>
<path d="M43.9473 43.832H44.4473V46.332C44.4473 48.8173 46.462 50.832 48.9473 50.832H51.0373C51.2486 51.4299 51.8131 51.8302 52.4473 51.832H57.4473C58.2757 51.832 58.9473 51.1605 58.9473 50.332C58.9473 49.5036 58.2757 48.832 57.4473 48.832H52.4473C51.8131 48.8338 51.2486 49.2342 51.0373 49.832H48.9473C47.0143 49.832 45.4473 48.265 45.4473 46.332V43.832H45.9473C46.4996 43.832 46.9473 43.3843 46.9473 42.832V34.832C46.9473 34.2797 46.4996 33.832 45.9473 33.832H43.9473C43.395 33.832 42.9473 34.2797 42.9473 34.832V42.832C42.9473 43.3843 43.395 43.832 43.9473 43.832Z" fill="white"/>
<g filter="url(#filter3_ddd)">
<circle cx="310.947" cy="38.4185" r="30" fill="#407BFF"/>
</g>
<path d="M306.445 29.8086L306.963 29.2908C307.3 28.9534 307.229 28.3892 306.822 28.1449L302.899 25.791C301.869 25.1744 300.559 25.3354 299.712 26.1837C298.864 27.0313 298.703 28.3416 299.32 29.3701L301.674 33.2926C301.918 33.7002 302.485 33.7708 302.82 33.4335L303.338 32.9157L307.301 36.8722L310.404 33.7684L306.445 29.8086Z" fill="white"/>
<path d="M323.448 28.3351C323.233 27.8836 322.629 27.7712 322.269 28.1326L320.375 30.0273C320.097 30.3049 319.616 30.3049 319.339 30.0273C319.053 29.7419 319.053 29.277 319.339 28.9916L321.234 27.0969C321.59 26.7405 321.488 26.1357 321.031 25.9182C319.073 24.9826 316.729 25.3853 315.195 26.9202C313.787 28.3278 313.332 30.42 313.99 32.2675L305.796 40.4615C303.95 39.8034 301.857 40.2584 300.449 41.6667C298.914 43.2009 298.512 45.5463 299.446 47.5025C299.665 47.9601 300.27 48.0604 300.625 47.705L302.52 45.8102C302.806 45.5256 303.271 45.5248 303.556 45.811C303.841 46.0948 303.843 46.557 303.556 46.8459L301.661 48.7406C301.305 49.097 301.407 49.7018 301.863 49.9194C302.566 50.2555 303.32 50.4186 304.068 50.4186C305.401 50.4186 306.716 49.9 307.698 48.9173C309.107 47.5096 309.562 45.4175 308.904 43.57L317.098 35.3761C318.943 36.0334 321.037 35.5792 322.446 34.1709C323.98 32.6366 324.383 30.2913 323.448 28.3351Z" fill="white"/>
<path d="M322.861 44.2251C320.375 41.7479 319.012 40.7637 316.097 38.4971L311.955 42.6397C314.004 45.2695 315.244 46.9658 317.571 49.2933C318.332 50.0544 319.344 50.4094 320.338 50.4094C321.069 50.4094 321.79 50.236 322.396 49.8005C323.279 49.1639 323.835 48.1833 323.922 47.1111C324.008 46.0375 323.622 44.986 322.861 44.2251ZM320.752 47.2304C320.46 47.4961 320.006 47.4706 319.727 47.1917L316.826 44.291C316.547 44.0121 316.522 43.5578 316.787 43.2662C317.071 42.9549 317.553 42.9465 317.847 43.2408L320.777 46.1705C321.071 46.4649 321.063 46.9469 320.752 47.2304Z" fill="white"/>
<g filter="url(#filter4_ddd)">
<circle cx="310.947" cy="222.418" r="30" fill="#407BFF"/>
</g>
<path d="M309.294 206.625C308.158 208.881 307.29 211.257 306.701 213.706C308.13 214.026 309.591 214.216 311.069 214.269V206.418C310.47 206.453 309.877 206.522 309.294 206.625Z" fill="white"/>
<path d="M317.563 215.43C316.013 215.776 314.431 215.976 312.83 216.03V220.538H318.098C318.052 218.818 317.873 217.11 317.563 215.43Z" fill="white"/>
<path d="M314.604 206.625C314.021 206.522 313.429 206.453 312.83 206.418V214.269C314.307 214.216 315.767 214.028 317.197 213.708C316.608 211.258 315.739 208.88 314.604 206.625Z" fill="white"/>
<path d="M312.83 228.568V236.418C313.429 236.384 314.022 236.315 314.605 236.211C315.71 234.02 316.597 231.65 317.202 229.129C315.77 228.809 314.309 228.621 312.83 228.568Z" fill="white"/>
<path d="M319.856 222.299C319.809 224.167 319.614 226.024 319.271 227.849C321.022 228.368 322.707 229.072 324.315 229.956C325.878 227.703 326.787 225.072 326.946 222.299H319.856Z" fill="white"/>
<path d="M306.689 229.129C307.258 231.5 308.111 233.881 309.286 236.211C309.87 236.315 310.462 236.384 311.061 236.418V228.568C309.582 228.621 308.121 228.809 306.689 229.129Z" fill="white"/>
<path d="M306.33 215.429C306.02 217.108 305.841 218.816 305.795 220.538H311.062V216.032C309.461 215.977 307.878 215.774 306.33 215.429Z" fill="white"/>
<path d="M299.578 212.881C298.016 215.134 297.106 217.765 296.947 220.538H304.038C304.085 218.666 304.282 216.809 304.625 214.986C302.877 214.468 301.185 213.763 299.578 212.881Z" fill="white"/>
<path d="M304.989 229.577C303.523 230.021 302.088 230.607 300.678 231.36C302.384 233.288 304.556 234.778 307.064 235.637C306.186 233.685 305.491 231.659 304.989 229.577Z" fill="white"/>
<path d="M300.686 211.476C302.065 212.212 303.51 212.808 305 213.259C305.502 211.18 306.196 209.151 307.074 207.198C304.674 208.02 302.469 209.46 300.686 211.476Z" fill="white"/>
<path d="M304.038 222.299H296.947C297.106 225.072 298.016 227.703 299.578 229.956C301.185 229.073 302.869 228.369 304.622 227.849C304.28 226.024 304.085 224.167 304.038 222.299Z" fill="white"/>
<path d="M316.826 207.198C317.704 209.151 318.398 211.181 318.9 213.261C320.399 212.807 321.833 212.215 323.216 211.477C321.505 209.543 319.33 208.055 316.826 207.198Z" fill="white"/>
<path d="M318.902 229.577C318.4 231.658 317.705 233.685 316.826 235.637C319.335 234.778 321.507 233.288 323.213 231.36C321.861 230.638 320.432 230.041 318.902 229.577Z" fill="white"/>
<path d="M305.795 222.299C305.84 224.018 306.019 225.726 306.327 227.407C307.878 227.061 309.461 226.86 311.063 226.806V222.299H305.795Z" fill="white"/>
<path d="M324.311 212.881C322.736 213.747 321.054 214.458 319.264 214.989C319.607 216.813 319.804 218.669 319.852 220.538H326.942C326.783 217.765 325.874 215.134 324.311 212.881Z" fill="white"/>
<path d="M312.83 222.299V226.806C314.432 226.86 316.015 227.061 317.566 227.407C317.874 225.726 318.053 224.018 318.098 222.299H312.83Z" fill="white"/>
<circle cx="182.947" cy="85.3521" r="5" fill="#00196C"/>
<circle cx="226.959" cy="130.98" r="5" fill="#00196C"/>
<circle cx="187.447" cy="175.418" r="5" fill="#00196C"/>
<circle cx="138.963" cy="130.98" r="5" fill="#00196C"/>
<defs>
<filter id="filter0_ddd" x="113.947" y="77.4185" width="138" height="138" filterUnits="userSpaceOnUse" color-interpolation-filters="sRGB">
<feFlood flood-opacity="0" result="BackgroundImageFix"/>
<feColorMatrix in="SourceAlpha" type="matrix" values="0 0 0 0 0 0 0 0 0 0 0 0 0 0 0 0 0 0 127 0"/>
<feOffset/>
<feGaussianBlur stdDeviation="0.5"/>
<feColorMatrix type="matrix" values="0 0 0 0 0 0 0 0 0 0 0 0 0 0 0 0 0 0 0.04 0"/>
<feBlend mode="normal" in2="BackgroundImageFix" result="effect1_dropShadow"/>
<feColorMatrix in="SourceAlpha" type="matrix" values="0 0 0 0 0 0 0 0 0 0 0 0 0 0 0 0 0 0 127 0"/>
<feOffset dy="2"/>
<feGaussianBlur stdDeviation="3"/>
<feColorMatrix type="matrix" values="0 0 0 0 0 0 0 0 0 0 0 0 0 0 0 0 0 0 0.04 0"/>
<feBlend mode="normal" in2="effect1_dropShadow" result="effect2_dropShadow"/>
<feColorMatrix in="SourceAlpha" type="matrix" values="0 0 0 0 0 0 0 0 0 0 0 0 0 0 0 0 0 0 127 0"/>
<feOffset dy="16"/>
<feGaussianBlur stdDeviation="12"/>
<feColorMatrix type="matrix" values="0 0 0 0 0 0 0 0 0 0 0 0 0 0 0 0 0 0 0.06 0"/>
<feBlend mode="normal" in2="effect2_dropShadow" result="effect3_dropShadow"/>
<feBlend mode="normal" in="SourceGraphic" in2="effect3_dropShadow" result="shape"/>
</filter>
<filter id="filter1_ddd" x="0.947266" y="184.418" width="108" height="108" filterUnits="userSpaceOnUse" color-interpolation-filters="sRGB">
<feFlood flood-opacity="0" result="BackgroundImageFix"/>
<feColorMatrix in="SourceAlpha" type="matrix" values="0 0 0 0 0 0 0 0 0 0 0 0 0 0 0 0 0 0 127 0"/>
<feOffset/>
<feGaussianBlur stdDeviation="0.5"/>
<feColorMatrix type="matrix" values="0 0 0 0 0 0 0 0 0 0 0 0 0 0 0 0 0 0 0.04 0"/>
<feBlend mode="normal" in2="BackgroundImageFix" result="effect1_dropShadow"/>
<feColorMatrix in="SourceAlpha" type="matrix" values="0 0 0 0 0 0 0 0 0 0 0 0 0 0 0 0 0 0 127 0"/>
<feOffset dy="2"/>
<feGaussianBlur stdDeviation="3"/>
<feColorMatrix type="matrix" values="0 0 0 0 0 0 0 0 0 0 0 0 0 0 0 0 0 0 0.04 0"/>
<feBlend mode="normal" in2="effect1_dropShadow" result="effect2_dropShadow"/>
<feColorMatrix in="SourceAlpha" type="matrix" values="0 0 0 0 0 0 0 0 0 0 0 0 0 0 0 0 0 0 127 0"/>
<feOffset dy="16"/>
<feGaussianBlur stdDeviation="12"/>
<feColorMatrix type="matrix" values="0 0 0 0 0 0 0 0 0 0 0 0 0 0 0 0 0 0 0.06 0"/>
<feBlend mode="normal" in2="effect2_dropShadow" result="effect3_dropShadow"/>
<feBlend mode="normal" in="SourceGraphic" in2="effect3_dropShadow" result="shape"/>
</filter>
<filter id="filter2_ddd" x="0.947266" y="0.418457" width="108" height="108" filterUnits="userSpaceOnUse" color-interpolation-filters="sRGB">
<feFlood flood-opacity="0" result="BackgroundImageFix"/>
<feColorMatrix in="SourceAlpha" type="matrix" values="0 0 0 0 0 0 0 0 0 0 0 0 0 0 0 0 0 0 127 0"/>
<feOffset/>
<feGaussianBlur stdDeviation="0.5"/>
<feColorMatrix type="matrix" values="0 0 0 0 0 0 0 0 0 0 0 0 0 0 0 0 0 0 0.04 0"/>
<feBlend mode="normal" in2="BackgroundImageFix" result="effect1_dropShadow"/>
<feColorMatrix in="SourceAlpha" type="matrix" values="0 0 0 0 0 0 0 0 0 0 0 0 0 0 0 0 0 0 127 0"/>
<feOffset dy="2"/>
<feGaussianBlur stdDeviation="3"/>
<feColorMatrix type="matrix" values="0 0 0 0 0 0 0 0 0 0 0 0 0 0 0 0 0 0 0.04 0"/>
<feBlend mode="normal" in2="effect1_dropShadow" result="effect2_dropShadow"/>
<feColorMatrix in="SourceAlpha" type="matrix" values="0 0 0 0 0 0 0 0 0 0 0 0 0 0 0 0 0 0 127 0"/>
<feOffset dy="16"/>
<feGaussianBlur stdDeviation="12"/>
<feColorMatrix type="matrix" values="0 0 0 0 0 0 0 0 0 0 0 0 0 0 0 0 0 0 0.06 0"/>
<feBlend mode="normal" in2="effect2_dropShadow" result="effect3_dropShadow"/>
<feBlend mode="normal" in="SourceGraphic" in2="effect3_dropShadow" result="shape"/>
</filter>
<filter id="filter3_ddd" x="256.947" y="0.418457" width="108" height="108" filterUnits="userSpaceOnUse" color-interpolation-filters="sRGB">
<feFlood flood-opacity="0" result="BackgroundImageFix"/>
<feColorMatrix in="SourceAlpha" type="matrix" values="0 0 0 0 0 0 0 0 0 0 0 0 0 0 0 0 0 0 127 0"/>
<feOffset/>
<feGaussianBlur stdDeviation="0.5"/>
<feColorMatrix type="matrix" values="0 0 0 0 0 0 0 0 0 0 0 0 0 0 0 0 0 0 0.04 0"/>
<feBlend mode="normal" in2="BackgroundImageFix" result="effect1_dropShadow"/>
<feColorMatrix in="SourceAlpha" type="matrix" values="0 0 0 0 0 0 0 0 0 0 0 0 0 0 0 0 0 0 127 0"/>
<feOffset dy="2"/>
<feGaussianBlur stdDeviation="3"/>
<feColorMatrix type="matrix" values="0 0 0 0 0 0 0 0 0 0 0 0 0 0 0 0 0 0 0.04 0"/>
<feBlend mode="normal" in2="effect1_dropShadow" result="effect2_dropShadow"/>
<feColorMatrix in="SourceAlpha" type="matrix" values="0 0 0 0 0 0 0 0 0 0 0 0 0 0 0 0 0 0 127 0"/>
<feOffset dy="16"/>
<feGaussianBlur stdDeviation="12"/>
<feColorMatrix type="matrix" values="0 0 0 0 0 0 0 0 0 0 0 0 0 0 0 0 0 0 0.06 0"/>
<feBlend mode="normal" in2="effect2_dropShadow" result="effect3_dropShadow"/>
<feBlend mode="normal" in="SourceGraphic" in2="effect3_dropShadow" result="shape"/>
</filter>
<filter id="filter4_ddd" x="256.947" y="184.418" width="108" height="108" filterUnits="userSpaceOnUse" color-interpolation-filters="sRGB">
<feFlood flood-opacity="0" result="BackgroundImageFix"/>
<feColorMatrix in="SourceAlpha" type="matrix" values="0 0 0 0 0 0 0 0 0 0 0 0 0 0 0 0 0 0 127 0"/>
<feOffset/>
<feGaussianBlur stdDeviation="0.5"/>
<feColorMatrix type="matrix" values="0 0 0 0 0 0 0 0 0 0 0 0 0 0 0 0 0 0 0.04 0"/>
<feBlend mode="normal" in2="BackgroundImageFix" result="effect1_dropShadow"/>
<feColorMatrix in="SourceAlpha" type="matrix" values="0 0 0 0 0 0 0 0 0 0 0 0 0 0 0 0 0 0 127 0"/>
<feOffset dy="2"/>
<feGaussianBlur stdDeviation="3"/>
<feColorMatrix type="matrix" values="0 0 0 0 0 0 0 0 0 0 0 0 0 0 0 0 0 0 0.04 0"/>
<feBlend mode="normal" in2="effect1_dropShadow" result="effect2_dropShadow"/>
<feColorMatrix in="SourceAlpha" type="matrix" values="0 0 0 0 0 0 0 0 0 0 0 0 0 0 0 0 0 0 127 0"/>
<feOffset dy="16"/>
<feGaussianBlur stdDeviation="12"/>
<feColorMatrix type="matrix" values="0 0 0 0 0 0 0 0 0 0 0 0 0 0 0 0 0 0 0.06 0"/>
<feBlend mode="normal" in2="effect2_dropShadow" result="effect3_dropShadow"/>
<feBlend mode="normal" in="SourceGraphic" in2="effect3_dropShadow" result="shape"/>
</filter>
</defs>
</svg>
