<svg width="20" height="26" viewBox="0 0 20 26" fill="none" xmlns="http://www.w3.org/2000/svg">
<path d="M19.3099 14.7172C19.0235 10.9888 17.2875 8.65229 15.7561 6.59047C14.338 4.68168 13.1133 3.03335 13.1133 0.601803C13.1133 0.406491 13.0039 0.227975 12.8305 0.138473C12.6565 0.0484344 12.4475 0.0631805 12.2893 0.178122C9.9893 1.82392 8.07026 4.5978 7.3999 7.24448C6.93452 9.0871 6.87295 11.1586 6.8643 12.5267C4.74028 12.073 4.25913 8.89589 4.25405 8.86127C4.23013 8.69648 4.12944 8.55307 3.98296 8.47475C3.83496 8.39745 3.66099 8.39184 3.51094 8.46611C3.39956 8.52001 0.777051 9.85253 0.624463 15.1729C0.613769 15.3499 0.613281 15.5274 0.613281 15.7049C0.613281 20.8737 4.81909 25.0793 9.98828 25.0793C9.99541 25.0798 10.003 25.0808 10.0091 25.0793C10.0112 25.0793 10.0132 25.0793 10.0157 25.0793C15.1722 25.0645 19.3633 20.8646 19.3633 15.7049C19.3633 15.445 19.3099 14.7172 19.3099 14.7172ZM9.98828 24.0377C8.26504 24.0377 6.86328 22.5445 6.86328 20.709C6.86328 20.6464 6.86279 20.5833 6.86733 20.506C6.88818 19.732 7.0352 19.2036 7.19643 18.8521C7.49858 19.5011 8.03872 20.0976 8.91611 20.0976C9.204 20.0976 9.43696 19.8647 9.43696 19.5768C9.43696 18.8353 9.45224 17.9799 9.63686 17.2078C9.80117 16.5232 10.1938 15.7949 10.6913 15.2111C10.9125 15.9689 11.3438 16.5822 11.765 17.1808C12.3677 18.0373 12.9908 18.9228 13.1001 20.4328C13.1067 20.5223 13.1134 20.6123 13.1134 20.709C13.1133 22.5444 11.7115 24.0377 9.98828 24.0377Z" fill="#407BFF"/>
</svg>
