<svg width="20" height="21" viewBox="0 0 20 21" fill="none" xmlns="http://www.w3.org/2000/svg">
<g clip-path="url(#clip0)">
<path d="M13.5156 5.06732H17.2739L12.9297 0.723145V4.48139C12.9297 4.80467 13.1923 5.06732 13.5156 5.06732Z" fill="#407BFF"/>
<path d="M4.14062 20.3799H15.8594C16.8287 20.3799 17.6172 19.5914 17.6172 18.6221V6.23926H13.5156C12.5463 6.23926 11.7578 5.45074 11.7578 4.48145V0.379883H4.14062C3.17133 0.379883 2.38281 1.1684 2.38281 2.1377V18.6221C2.38281 19.5914 3.17133 20.3799 4.14062 20.3799ZM7.65625 9.79395H13.5156C13.8395 9.79395 14.1016 10.056 14.1016 10.3799C14.1016 10.7037 13.8395 10.9658 13.5156 10.9658H7.65625C7.33238 10.9658 7.07031 10.7037 7.07031 10.3799C7.07031 10.056 7.33238 9.79395 7.65625 9.79395ZM7.65625 12.1377H13.5156C13.8395 12.1377 14.1016 12.3998 14.1016 12.7236C14.1016 13.0475 13.8395 13.3096 13.5156 13.3096H7.65625C7.33238 13.3096 7.07031 13.0475 7.07031 12.7236C7.07031 12.3998 7.33238 12.1377 7.65625 12.1377ZM7.65625 14.4814H13.5156C13.8395 14.4814 14.1016 14.7435 14.1016 15.0674C14.1016 15.3912 13.8395 15.6533 13.5156 15.6533H7.65625C7.33238 15.6533 7.07031 15.3912 7.07031 15.0674C7.07031 14.7435 7.33238 14.4814 7.65625 14.4814ZM5.3125 9.79395C5.63609 9.79395 5.89844 10.0563 5.89844 10.3799C5.89844 10.7035 5.63609 10.9658 5.3125 10.9658C4.98891 10.9658 4.72656 10.7035 4.72656 10.3799C4.72656 10.0563 4.98891 9.79395 5.3125 9.79395ZM5.3125 12.1377C5.63609 12.1377 5.89844 12.4 5.89844 12.7236C5.89844 13.0472 5.63609 13.3096 5.3125 13.3096C4.98891 13.3096 4.72656 13.0472 4.72656 12.7236C4.72656 12.4 4.98891 12.1377 5.3125 12.1377ZM5.3125 14.4814C5.63609 14.4814 5.89844 14.7438 5.89844 15.0674C5.89844 15.391 5.63609 15.6533 5.3125 15.6533C4.98891 15.6533 4.72656 15.391 4.72656 15.0674C4.72656 14.7438 4.98891 14.4814 5.3125 14.4814Z" fill="#407BFF"/>
</g>
<defs>
<clipPath id="clip0">
<rect width="20" height="20" fill="white" transform="translate(0 0.379883)"/>
</clipPath>
</defs>
</svg>
