<svg width="36" height="36" viewBox="0 0 36 36" fill="none" xmlns="http://www.w3.org/2000/svg">
<path d="M21.8823 13.9631H14.2227V21.6229H21.8823V13.9631Z" fill="#00196C"/>
<path d="M26.8701 -2.20703H24.2328V5.92885H19.3712V-2.20703H16.7338V5.92885H11.8722V-2.20703H9.23488V5.92885H6.18848V29.6568H9.23488V37.7928H11.8722V29.6569H16.7338V37.7928H19.3712V29.6569H24.2328V37.7928H26.8701V29.6569H29.9166V5.92885H26.8701V-2.20703ZM11.5854 24.2601V11.3257H24.5197V24.2601H11.5854Z" fill="#00196C"/>
<path d="M38.0529 8.95288H29.917V11.5902H38.0529V8.95288Z" fill="#00196C"/>
<path d="M38.0529 16.4519H29.917V19.0893H38.0529V16.4519Z" fill="#00196C"/>
<path d="M38.0529 23.9507H29.917V26.588H38.0529V23.9507Z" fill="#00196C"/>
<path d="M6.18861 8.95288H-1.94727V11.5902H6.18861V8.95288Z" fill="#00196C"/>
<path d="M6.18861 16.4519H-1.94727V19.0893H6.18861V16.4519Z" fill="#00196C"/>
<path d="M6.18861 23.9507H-1.94727V26.588H6.18861V23.9507Z" fill="#00196C"/>
</svg>
