<svg width="35" height="36" viewBox="0 0 35 36" fill="none" xmlns="http://www.w3.org/2000/svg">
<path d="M17.9641 23.451C18.0238 23.289 18.0905 23.1299 18.162 22.9718C17.8046 22.4546 17.6125 21.8421 17.6125 21.2004C17.6125 20.3643 17.939 19.5788 18.5272 18.9922C19.118 18.3997 19.904 18.0739 20.7407 18.0739C21.382 18.0739 21.9934 18.2658 22.5104 18.6221C22.6689 18.5515 22.8278 18.4852 22.9907 18.4244C23.2597 16.9718 24.5352 15.868 26.0651 15.868C26.4178 15.868 26.7557 15.9324 27.0727 16.041C27.6438 15.6118 28.0186 14.9349 28.0186 14.1655C28.0186 12.8657 26.9647 11.812 25.6651 11.812H24.232C23.9711 10.6933 23.5299 9.64696 22.9402 8.7L23.9564 7.68466C24.8755 6.76588 24.8755 5.27529 23.9564 4.35651C23.0369 3.43731 21.5454 3.43731 20.628 4.35651L19.6124 5.37185C18.6652 4.78172 17.6186 4.34061 16.5004 4.08019V2.64654C16.5004 1.34671 15.4453 0.292969 14.1466 0.292969C12.846 0.292969 11.793 1.34679 11.793 2.64654V4.08005C10.6737 4.34047 9.62672 4.78164 8.67997 5.37171L7.66534 4.35701C6.74692 3.43773 5.25548 3.43773 4.33705 4.35701C3.41756 5.27586 3.41756 6.76638 4.33705 7.68509L5.35168 8.69986C4.7624 9.64682 4.32079 10.6931 4.06144 11.8118H2.62693C1.32704 11.8118 0.273438 12.8656 0.273438 14.1654C0.273438 15.4651 1.32711 16.519 2.62693 16.519H4.0613C4.32065 17.6378 4.76226 18.6846 5.35303 19.6316L4.33684 20.6469C3.41735 21.5657 3.41735 23.0562 4.33684 23.975C4.79648 24.4348 5.39861 24.6646 6.00088 24.6646C6.60301 24.6646 7.20521 24.4348 7.66513 23.975L8.68089 22.9597C9.62764 23.5493 10.6735 23.9905 11.7928 24.2509V25.6844C11.7928 26.9841 12.8457 28.0379 14.1464 28.0379C14.6888 28.0379 15.1831 27.8466 15.5807 27.5374C15.4727 27.2191 15.4071 26.8802 15.4071 26.5256C15.4071 24.9966 16.5105 23.7199 17.9641 23.451ZM14.1464 18.8754C11.5448 18.8754 9.43503 16.7667 9.43503 14.1655C9.43503 11.5642 11.5449 9.45548 14.1464 9.45548C16.7471 9.45548 18.8559 11.5642 18.8559 14.1655C18.8559 16.7667 16.7471 18.8754 14.1464 18.8754Z" fill="#00196C"/>
<path d="M33.5956 25.2896H32.7221C32.5474 24.3387 32.1763 23.4572 31.6486 22.6907L32.2648 22.0753C32.7473 21.5926 32.7473 20.8095 32.2648 20.3268C32.0234 20.085 31.7062 19.9643 31.3903 19.9643C31.0741 19.9643 30.7571 20.085 30.5157 20.3268L29.8996 20.9428C29.1345 20.4142 28.2518 20.0436 27.3003 19.8677V18.995C27.3003 18.3123 26.7475 17.759 26.065 17.759C25.3825 17.759 24.8297 18.3123 24.8297 18.995V19.8677C23.8781 20.0437 22.9966 20.4142 22.23 20.9423L21.6142 20.3276C21.3728 20.0862 21.0565 19.9649 20.7407 19.9649C20.4233 19.9649 20.1064 20.0862 19.8662 20.3276C19.3823 20.8096 19.3823 21.5927 19.8662 22.0754L20.4809 22.6907C19.9535 23.4574 19.5824 24.3388 19.4078 25.2897H18.5343C17.8518 25.2897 17.2979 25.843 17.2979 26.5257C17.2979 27.2089 17.8518 27.7622 18.5343 27.7622H19.4078C19.5824 28.7131 19.9536 29.594 20.482 30.361L19.8662 30.9771C19.3823 31.4596 19.3823 32.2423 19.8662 32.7249C20.1076 32.9663 20.4234 33.0875 20.7407 33.0875C21.0565 33.0875 21.3728 32.9663 21.6142 32.7249L22.23 32.1096C22.9966 32.637 23.8781 33.0077 24.8297 33.1835V34.0563C24.8297 34.7394 25.3825 35.2929 26.065 35.2929C26.7475 35.2929 27.3003 34.7394 27.3003 34.0563V33.184C28.2518 33.0077 29.1331 32.637 29.8996 32.109L30.5157 32.7255C30.7571 32.9668 31.0741 33.0875 31.3903 33.0875C31.7062 33.0875 32.0234 32.9669 32.2648 32.7255C32.7473 32.2429 32.7473 31.4596 32.2648 30.9771L31.6486 30.361C32.1764 29.594 32.5474 28.7131 32.7221 27.7622H33.5956C34.2781 27.7622 34.832 27.2089 34.832 26.5257C34.832 25.843 34.2781 25.2896 33.5956 25.2896ZM26.0648 29.078C24.6548 29.078 23.5124 27.9352 23.5124 26.5257C23.5124 25.1161 24.6548 23.9732 26.0648 23.9732C27.4749 23.9732 28.6169 25.1162 28.6169 26.5257C28.617 27.9352 27.4749 29.078 26.0648 29.078Z" fill="#00196C"/>
</svg>
