<svg width="36" height="36" viewBox="0 0 36 36" fill="none" xmlns="http://www.w3.org/2000/svg">
<path d="M14.9766 19.844C14.9766 21.5402 16.3566 22.9202 18.0527 22.9202C19.7489 22.9202 21.1289 21.5402 21.1289 19.844C21.1289 18.1478 19.7489 16.7678 18.0527 16.7678C16.3566 16.7678 14.9766 18.1478 14.9766 19.844Z" fill="#00196C"/>
<path d="M18.0527 24.9709C14.6601 24.9709 11.9004 27.7307 11.9004 31.1233V35.2932H24.2051V31.1233C24.2051 27.7307 21.4453 24.9709 18.0527 24.9709Z" fill="#00196C"/>
<path d="M9.84961 21.8948C9.84961 20.1986 8.4696 18.8186 6.77344 18.8186C5.07727 18.8186 3.69727 20.1986 3.69727 21.8948C3.69727 23.5909 5.07727 24.9709 6.77344 24.9709C8.4696 24.9709 9.84961 23.5909 9.84961 21.8948Z" fill="#00196C"/>
<path d="M32.4082 21.8948C32.4082 20.1986 31.0282 18.8186 29.332 18.8186C27.6359 18.8186 26.2559 20.1986 26.2559 21.8948C26.2559 23.5909 27.6359 24.9709 29.332 24.9709C31.0282 24.9709 32.4082 23.5909 32.4082 21.8948Z" fill="#00196C"/>
<path d="M5.74805 0.293213L4.18806 3.971L0.552734 4.4837L3.17469 6.97427L2.57174 10.6155L5.74805 8.95536L8.92435 10.6155L8.3214 6.97427L10.875 4.4837L7.34621 3.971L5.74805 0.293213Z" fill="#00196C"/>
<path d="M19.6509 3.971L18.0527 0.293213L16.4928 3.971L12.9258 4.4837L15.4794 6.97427L14.8764 10.6155L18.0527 8.95536L21.229 10.6155L20.6261 6.97427L23.1797 4.4837L19.6509 3.971Z" fill="#00196C"/>
<path d="M30.3574 0.293213L28.7974 3.971L25.2305 4.4837L27.7841 6.97427L27.1811 10.6155L30.3574 8.95536L33.5337 10.6155L32.9308 6.97427L35.5527 4.4837L31.9556 3.971L30.3574 0.293213Z" fill="#00196C"/>
<path d="M29.3319 27.0217C27.969 27.0217 26.7217 27.4791 25.7021 28.229C26.0453 29.1323 26.2557 30.1011 26.2557 31.1233V35.2932H35.5526V33.1741C35.5526 29.7761 32.7298 27.0217 29.3319 27.0217Z" fill="#00196C"/>
<path d="M0.552734 33.1741V35.2932H9.84961V31.1233C9.84961 30.1011 10.06 29.1323 10.4032 28.229C9.38364 27.4791 8.13635 27.0217 6.77344 27.0217C3.3755 27.0217 0.552734 29.7761 0.552734 33.1741Z" fill="#00196C"/>
</svg>
