<svg width="36" height="36" viewBox="0 0 36 36" fill="none" xmlns="http://www.w3.org/2000/svg">
<path d="M28.209 21.387C25.6243 21.387 23.5215 19.2842 23.5215 16.6995C23.5215 14.1148 25.6243 12.012 28.209 12.012C30.7937 12.012 32.8965 14.1148 32.8965 16.6995C32.8965 19.2842 30.7937 21.387 28.209 21.387Z" fill="#00196C"/>
<path d="M36.8809 37.7932H-0.775391C-1.42258 37.7932 -1.94727 37.2685 -1.94727 36.6213V34.2776C-1.94727 33.6304 -1.42258 33.1057 -0.775391 33.1057H36.8809C37.528 33.1057 38.0527 33.6304 38.0527 34.2776V36.6213C38.0527 37.2685 37.528 37.7932 36.8809 37.7932Z" fill="#00196C"/>
<path d="M32.2473 22.4519C31.1038 23.2571 29.7107 23.7306 28.209 23.7306C26.7073 23.7306 25.3142 23.2571 24.1707 22.4519C23.1456 23.0341 22.2581 23.831 21.5684 24.7806V27.2462C21.5684 28.4625 20.9473 29.5363 20.0059 30.1678V30.7618H36.4121V29.59C36.4121 26.5339 34.7321 23.8632 32.2473 22.4519Z" fill="#00196C"/>
<path d="M18.0527 14.3557H-0.697266C-1.34445 14.3557 -1.86914 14.8804 -1.86914 15.5276V27.2463C-1.86914 27.8935 -1.34445 28.4182 -0.697266 28.4182H4.70805L3.9268 30.762H13.4286L12.6473 28.4182H18.0527C18.6999 28.4182 19.2246 27.8935 19.2246 27.2463V15.5276C19.2246 14.8804 18.6999 14.3557 18.0527 14.3557Z" fill="#00196C"/>
<path d="M24.3027 -2.20679H7.11523C5.6075 -2.20679 4.38086 -0.980146 4.38086 0.527588V6.77759C4.38086 8.28532 5.6075 9.51196 7.11523 9.51196H16.9166L21.309 12.4402C21.5051 12.5709 21.7317 12.637 21.9591 12.637C22.1487 12.637 22.3387 12.591 22.512 12.4983C22.893 12.2944 23.1309 11.8973 23.1309 11.4651V9.51196H24.3027C25.8105 9.51196 27.0371 8.28532 27.0371 6.77759V0.527588C27.0371 -0.980146 25.8105 -2.20679 24.3027 -2.20679ZM21.1777 4.82446H10.2402C9.59305 4.82446 9.06836 4.29978 9.06836 3.65259C9.06836 3.0054 9.59305 2.48071 10.2402 2.48071H21.1777C21.8249 2.48071 22.3496 3.0054 22.3496 3.65259C22.3496 4.29978 21.8249 4.82446 21.1777 4.82446Z" fill="#00196C"/>
</svg>
