<svg width="33" height="33" viewBox="0 0 33 33" fill="none" xmlns="http://www.w3.org/2000/svg">
<path d="M30.9515 18.3539L14.4697 1.88544C13.7422 1.15915 12.7419 0.769799 11.715 0.794303L3.05691 1.01689C1.52441 1.055 0.290659 2.29044 0.254592 3.82198L0.0538426 12.4714C0.0286639 13.4992 0.433565 14.4849 1.16102 15.2118L17.6429 31.6789C19.11 33.1451 21.485 33.1744 22.9508 31.7075L30.9542 23.6931C32.42 22.227 32.4187 19.8201 30.9515 18.3539ZM5.93681 10.8711C4.78335 9.71941 4.78267 7.8523 5.93341 6.69854C7.08482 5.54615 8.95281 5.54615 10.1049 6.6965C11.257 7.84822 11.2577 9.71669 10.1069 10.8684C8.95553 12.0215 7.08823 12.0215 5.93681 10.8711ZM15.4299 19.6839L16.062 18.4886L15.0331 17.4724L13.8688 18.1429L13.0263 17.3104L17.6674 14.8014L18.733 15.8544L16.3023 20.545L15.4299 19.6839ZM16.5194 20.7587L20.0627 17.1668L20.8793 17.972L18.0069 20.8806L19.4353 22.2909L18.7623 22.973L16.5194 20.7587ZM24.0798 22.4475L22.6786 21.0643L21.9416 21.8104L23.2632 23.1152L22.6106 23.7769L21.2897 22.472L20.4493 23.3235L21.9246 24.7816L21.2679 25.4479L18.9773 23.1867L22.5221 19.5954L24.7371 21.7838L24.0798 22.4475Z" fill="#00196C"/>
<path d="M15.4299 19.6839L16.062 18.4886L15.0331 17.4724L13.8688 18.1429L13.0263 17.3104L17.6674 14.8014L18.733 15.8544L16.3023 20.545L15.4299 19.6839Z" fill="#00196C"/>
<path d="M16.5194 20.7587L20.0627 17.1668L20.8793 17.972L18.0069 20.8806L19.4353 22.2909L18.7623 22.973L16.5194 20.7587Z" fill="#00196C"/>
<path d="M24.0798 22.4475L22.6786 21.0643L21.9416 21.8104L23.2632 23.1152L22.6106 23.7769L21.2897 22.472L20.4493 23.3235L21.9246 24.7816L21.2679 25.4479L18.9773 23.1867L22.5221 19.5954L24.7371 21.7838L24.0798 22.4475Z" fill="#00196C"/>
<path d="M15.751 16.9817L16.5447 17.7652L17.565 15.8994C17.3023 16.0601 15.751 16.9817 15.751 16.9817Z" fill="#00196C"/>
</svg>
