<svg width="60" height="60" viewBox="0 0 60 60" fill="none" xmlns="http://www.w3.org/2000/svg">
<g clip-path="url(#clip0)">
<path d="M15.2623 16.2031L10.0641 16.6047C8.6177 16.7165 7.32946 17.4746 6.52955 18.6845L0.534634 27.7515C-0.0720405 28.6691 -0.168485 29.8174 0.276472 30.8233C0.721547 31.8292 1.63619 32.5302 2.72309 32.6986L7.48263 33.4358C8.59602 27.5272 11.2613 21.6332 15.2623 16.2031Z" fill="#407BFF"/>
<path d="M26.5635 52.5174L27.3007 57.277C27.4691 58.3639 28.1701 59.2785 29.1759 59.7235C29.5944 59.9086 30.0374 60 30.4781 60C31.0972 60 31.7119 59.8197 32.2478 59.4653L41.315 53.4705C42.525 52.6705 43.2831 51.3821 43.3946 49.9359L43.7962 44.7378C38.366 48.7389 32.4721 51.4042 26.5635 52.5174Z" fill="#407BFF"/>
<path d="M24.7747 49.2183C24.9399 49.2183 25.1061 49.2047 25.2719 49.1771C27.7473 48.7632 30.1333 48.0659 32.4092 47.1533L12.8473 27.5913C11.9346 29.8672 11.2374 32.2531 10.8235 34.7287C10.6604 35.7045 10.9877 36.6986 11.6871 37.3982L22.6024 48.3134C23.1831 48.8941 23.967 49.2183 24.7747 49.2183Z" fill="#407BFF"/>
<path d="M55.2153 26.6017C60.0023 17.347 60.1796 7.56709 59.9294 2.98041C59.8437 1.40882 58.5907 0.155858 57.019 0.0701948C56.2722 0.0294138 55.3871 0 54.3895 0C49.2607 0 41.1454 0.77683 33.3977 4.78426C27.2405 7.96904 19.1667 14.9816 14.4033 24.1974C14.4596 24.2413 14.5145 24.288 14.5663 24.3398L35.6599 45.4334C35.7117 45.4851 35.7582 45.54 35.8022 45.5962C45.018 40.8327 52.0305 32.7589 55.2153 26.6017ZM34.8858 12.6843C38.3124 9.25762 43.8883 9.25727 47.3152 12.6843C48.9752 14.3442 49.8894 16.5514 49.8894 18.899C49.8894 21.2466 48.9752 23.4538 47.3152 25.1138C45.602 26.8269 43.3509 27.6837 41.1005 27.6839C38.8495 27.684 36.5994 26.8274 34.8858 25.1138C33.2257 23.4538 32.3114 21.2466 32.3114 18.899C32.3114 16.5514 33.2257 14.3442 34.8858 12.6843Z" fill="#407BFF"/>
<path d="M37.3727 22.6282C39.4287 24.6842 42.7744 24.6844 44.8305 22.6282C45.8264 21.6321 46.375 20.3079 46.375 18.8993C46.375 17.4907 45.8264 16.1665 44.8305 15.1705C43.8025 14.1424 42.452 13.6284 41.1016 13.6284C39.7512 13.6284 38.4007 14.1424 37.3728 15.1705C36.3768 16.1665 35.8281 17.4907 35.8281 18.8993C35.8281 20.3079 36.3767 21.6322 37.3727 22.6282Z" fill="#407BFF"/>
<path d="M1.79303 49.4456C2.24291 49.4456 2.69279 49.2741 3.03592 48.9307L8.77494 43.1917C9.46143 42.5052 9.46143 41.3923 8.77494 40.7058C8.08858 40.0193 6.97553 40.0193 6.28904 40.7058L0.55002 46.4448C-0.136465 47.1313 -0.136465 48.2442 0.55002 48.9307C0.893262 49.274 1.34314 49.4456 1.79303 49.4456Z" fill="#407BFF"/>
<path d="M14.0346 45.9651C13.3482 45.2786 12.2351 45.2786 11.5487 45.9651L0.514863 56.9989C-0.171621 57.6853 -0.171621 58.7983 0.514863 59.4848C0.858105 59.828 1.30799 59.9996 1.75787 59.9996C2.20775 59.9996 2.65764 59.828 3.00076 59.4846L14.0344 48.451C14.721 47.7645 14.721 46.6515 14.0346 45.9651Z" fill="#407BFF"/>
<path d="M16.8085 51.2243L11.0696 56.9634C10.3831 57.6498 10.3831 58.7628 11.0696 59.4493C11.4128 59.7925 11.8627 59.9642 12.3124 59.9642C12.7622 59.9642 13.2122 59.7926 13.5553 59.4493L19.2944 53.7102C19.9808 53.0238 19.9808 51.9108 19.2944 51.2243C18.608 50.5379 17.4949 50.5379 16.8085 51.2243Z" fill="#407BFF"/>
</g>
<defs>
<clipPath id="clip0">
<rect width="60" height="60" fill="white"/>
</clipPath>
</defs>
</svg>
