<svg width="26" height="25" viewBox="0 0 26 25" fill="none" xmlns="http://www.w3.org/2000/svg">
<g clip-path="url(#clip0)">
<path d="M1.25 5.72904H6.68022V0.416016L1.25 5.72904Z" fill="white"/>
<path d="M19.9121 12.8315C16.6813 12.8315 14.0527 15.3805 14.0527 18.5134C14.0527 21.6463 16.6813 24.2425 19.9121 24.2425C23.1429 24.2425 25.8203 21.6463 25.8203 18.5134C25.8203 15.3805 23.1429 12.8315 19.9121 12.8315ZM22.6272 18.3053L19.6975 21.1462C19.4114 21.4236 18.9479 21.4236 18.6618 21.1462L17.197 19.7257C16.9109 19.4483 16.9109 18.9988 17.197 18.7214C17.4831 18.444 17.9466 18.444 18.2327 18.7214L19.1797 19.6397L21.5916 17.301C21.8776 17.0235 22.3412 17.0235 22.6272 17.301C22.9133 17.5784 22.9133 18.0278 22.6272 18.3053Z" fill="white"/>
<path d="M4.48242 15.6723H13.2087C14.3421 13.1685 16.9165 11.411 19.9121 11.411V2.13068C19.9121 0.955777 18.9265 0 17.7148 0H8.14453V6.43939C8.14453 6.83196 7.81694 7.14962 7.41211 7.14962H0.820312V22.0644C0.820312 23.2393 1.80596 24.2424 3.01758 24.2424H15.5629C14.1426 23.217 13.1021 21.6755 12.7359 19.9337H4.48242C4.07759 19.9337 3.75 19.6161 3.75 19.2235C3.75 18.8309 4.07759 18.5133 4.48242 18.5133H12.5879C12.5879 18.0269 12.6394 17.5519 12.7359 17.0928H4.48242C4.07759 17.0928 3.75 16.7751 3.75 16.3826C3.75 15.99 4.07759 15.6723 4.48242 15.6723ZM10.3418 4.30871H16.25C16.6548 4.30871 16.9824 4.62637 16.9824 5.01894C16.9824 5.41151 16.6548 5.72917 16.25 5.72917H10.3418C9.93696 5.72917 9.60938 5.41151 9.60938 5.01894C9.60938 4.62637 9.93696 4.30871 10.3418 4.30871ZM10.3418 7.14962H16.25C16.6548 7.14962 16.9824 7.46728 16.9824 7.85985C16.9824 8.25241 16.6548 8.57008 16.25 8.57008H10.3418C9.93696 8.57008 9.60938 8.25241 9.60938 7.85985C9.60938 7.46728 9.93696 7.14962 10.3418 7.14962ZM4.48242 9.99053H16.25C16.6548 9.99053 16.9824 10.3082 16.9824 10.7008C16.9824 11.0933 16.6548 11.411 16.25 11.411H4.48242C4.07759 11.411 3.75 11.0933 3.75 10.7008C3.75 10.3082 4.07759 9.99053 4.48242 9.99053ZM4.48242 12.8314H13.595C13.9998 12.8314 14.3274 13.1491 14.3274 13.5417C14.3274 13.9342 13.9998 14.2519 13.595 14.2519H4.48242C4.07759 14.2519 3.75 13.9342 3.75 13.5417C3.75 13.1491 4.07759 12.8314 4.48242 12.8314Z" fill="white"/>
</g>
<defs>
<clipPath id="clip0">
<rect width="25" height="24.2424" fill="white" transform="translate(0.820312)"/>
</clipPath>
</defs>
</svg>
