<svg width="27" height="28" viewBox="0 0 27 28" fill="none" xmlns="http://www.w3.org/2000/svg">
<g clip-path="url(#clip0)">
<path d="M26.2786 26.375H25.7369V10.0625C25.7369 9.75202 25.4943 9.5 25.1953 9.5H21.9453C21.6463 9.5 21.4036 9.75202 21.4036 10.0625V26.375H19.2369V16.8125C19.2369 16.502 18.9942 16.25 18.6952 16.25H15.4452C15.1462 16.25 14.9035 16.502 14.9035 16.8125V26.375H12.7368V14.5625C12.7368 14.252 12.4942 14 12.1952 14H8.94516C8.64616 14 8.40348 14.252 8.40348 14.5625V26.375H6.23679V20.1875C6.23679 19.877 5.99411 19.625 5.69511 19.625H2.44531C2.14631 19.625 1.90363 19.877 1.90363 20.1875V26.375H1.362C1.063 26.375 0.820312 26.627 0.820312 26.9375C0.820312 27.248 1.063 27.5 1.362 27.5H2.44531H5.69531H8.94531H12.1953H15.4453H18.6953H21.9453H25.1953H26.2786C26.5776 27.5 26.8203 27.248 26.8203 26.9375C26.8203 26.627 26.5776 26.375 26.2786 26.375Z" fill="white"/>
<path d="M23.571 0.5C22.376 0.5 21.4043 1.50912 21.4043 2.75002C21.4043 3.16625 21.5213 3.551 21.7109 3.88629L18.1651 7.56841C17.8423 7.3715 17.4718 7.25 17.071 7.25C16.3917 7.25 15.7915 7.58302 15.394 8.09264L12.7322 7.304C12.7322 7.28602 12.7377 7.26914 12.7377 7.25C12.7377 6.00911 11.7659 4.99998 10.571 4.99998C9.37605 4.99998 8.4043 6.00911 8.4043 7.25C8.4043 7.57737 8.47473 7.88561 8.59605 8.16573L5.21061 10.9704C4.87916 10.7544 4.49023 10.625 4.07098 10.625C2.87605 10.625 1.9043 11.6341 1.9043 12.875C1.9043 14.1159 2.87605 15.125 4.07098 15.125C5.26591 15.125 6.23766 14.1159 6.23766 12.875C6.23766 12.4801 6.13041 12.1134 5.9571 11.7905L9.27535 9.04218C9.63828 9.32568 10.0835 9.50007 10.571 9.50007C11.3651 9.50007 12.0541 9.04893 12.4311 8.38521L14.9412 9.12882C14.9206 9.25032 14.9043 9.37293 14.9043 9.50007C14.9043 10.741 15.8761 11.7501 17.071 11.7501C18.266 11.7501 19.2377 10.741 19.2377 9.50007C19.2377 9.08384 19.1207 8.69909 18.9311 8.3638L22.478 4.68057C22.7997 4.87859 23.1702 5.00009 23.571 5.00009C24.766 5.00009 25.7377 3.99096 25.7377 2.75007C25.7377 1.50912 24.7659 0.5 23.571 0.5Z" fill="white"/>
</g>
<defs>
<clipPath id="clip0">
<rect width="26" height="27" fill="white" transform="translate(0.820312 0.5)"/>
</clipPath>
</defs>
</svg>
