<svg width="21" height="20" viewBox="0 0 21 20" fill="none" xmlns="http://www.w3.org/2000/svg">
<path d="M16.5731 14.2336C15.0961 14.2336 13.8945 13.032 13.8945 11.555C13.8945 10.0781 15.0961 8.87646 16.5731 8.87646C18.0501 8.87646 19.2517 10.0781 19.2517 11.555C19.2517 13.032 18.0501 14.2336 16.5731 14.2336Z" fill="#407BFF"/>
<path d="M18.8799 14.8423C18.2264 15.3024 17.4304 15.573 16.5723 15.573C15.7141 15.573 14.9181 15.3024 14.2647 14.8423C13.6789 15.175 13.1718 15.6304 12.7776 16.173V17.5819C12.7776 18.2769 12.4228 18.8905 11.8848 19.2513V19.5908H21.2598V18.9212C21.2598 17.1749 20.2998 15.6488 18.8799 14.8423Z" fill="#407BFF"/>
<path d="M10.7687 10.2158H0.0544084C-0.315413 10.2158 -0.615234 10.5156 -0.615234 10.8855V17.5819C-0.615234 17.9517 -0.315413 18.2515 0.0544084 18.2515H3.14316L2.69673 19.5908H8.12633L7.6799 18.2515H10.7687C11.1385 18.2515 11.4383 17.9517 11.4383 17.5819V10.8855C11.4383 10.5156 11.1385 10.2158 10.7687 10.2158Z" fill="#407BFF"/>
<path d="M14.341 0.751465H4.51953C3.65797 0.751465 2.95703 1.4524 2.95703 2.31396V5.88539C2.95703 6.74696 3.65797 7.44789 4.51953 7.44789H10.1203L12.6302 9.12115C12.7423 9.19584 12.8718 9.23361 13.0017 9.23361C13.1101 9.23361 13.2186 9.20736 13.3177 9.15437C13.5354 9.03785 13.6713 8.81093 13.6713 8.56396V7.44789H14.341C15.2025 7.44789 15.9035 6.74696 15.9035 5.88539V2.31396C15.9035 1.4524 15.2025 0.751465 14.341 0.751465ZM12.5552 4.76932H6.30525C5.93542 4.76932 5.6356 4.4695 5.6356 4.09968C5.6356 3.72986 5.93542 3.43004 6.30525 3.43004H12.5552C12.9251 3.43004 13.2249 3.72986 13.2249 4.09968C13.2249 4.4695 12.9251 4.76932 12.5552 4.76932Z" fill="#407BFF"/>
</svg>
