<svg width="26" height="26" viewBox="0 0 26 26" fill="none" xmlns="http://www.w3.org/2000/svg">
<g clip-path="url(#clip0)">
<path d="M20.3216 4.06445H1.77071C0.961338 4.06445 0.320312 4.74433 0.320312 5.54723V16.9368C0.320312 16.9432 0.320312 16.9497 0.320312 16.9562C0.326788 17.7461 0.980763 18.3807 1.77071 18.3742H2.52181V9.06964C2.52181 7.54801 3.76502 6.33071 5.28664 6.33071H21.7591V5.54723C21.7591 4.74433 21.131 4.06445 20.3216 4.06445Z" fill="white"/>
<path d="M22.3423 17.4679C21.902 17.0988 21.2481 17.1571 20.879 17.5974C20.8466 17.6362 20.8142 17.6686 20.7819 17.6945C20.5034 17.9211 20.0955 17.8758 19.8689 17.5974C19.6746 17.3578 19.3768 17.2153 19.066 17.2153C18.4832 17.2153 18.017 17.6815 18.0235 18.2643C18.0235 18.8406 18.4962 19.3068 19.0725 19.3068C19.3833 19.3132 19.6811 19.1708 19.8754 18.9312C19.9984 18.7823 20.1797 18.6981 20.3739 18.6981C20.5617 18.6916 20.7495 18.7758 20.8725 18.9247C20.9178 18.9765 20.9567 19.0219 21.0085 19.0607C21.4488 19.4298 22.1028 19.3715 22.4718 18.9312C22.8409 18.4909 22.7826 17.8369 22.3423 17.4679Z" fill="white"/>
<path d="M23.8436 7.62554H5.29271H5.28623C4.47686 7.61906 3.82288 8.26656 3.81641 9.06946V10.0213H25.3134H25.3199V9.06946C25.3199 8.26009 24.653 7.62554 23.8436 7.62554Z" fill="white"/>
<path d="M25.3134 11.3164H3.81641V12.9999H25.3134V11.3164Z" fill="white"/>
<path d="M3.81641 14.2949V20.4527C3.81641 21.2685 4.47038 21.929 5.28623 21.9354H23.8371C24.653 21.929 25.307 21.2685 25.3134 20.4527V14.2949H3.81641ZM23.6234 19.5656C22.8982 20.634 21.4414 20.9189 20.373 20.1937C19.9845 20.4591 19.5312 20.5951 19.065 20.5951C17.77 20.5951 16.7276 19.5397 16.7276 18.2512C16.7276 16.9626 17.77 15.9137 19.065 15.9137C19.5312 15.9137 19.9845 16.0496 20.373 16.3151C21.1694 15.7777 22.2054 15.7777 22.9954 16.3151C24.0638 17.0403 24.3486 18.4972 23.6234 19.5656Z" fill="white"/>
</g>
<defs>
<clipPath id="clip0">
<rect width="25" height="25" fill="white" transform="translate(0.320312 0.5)"/>
</clipPath>
</defs>
</svg>
