<svg width="31" height="30" viewBox="0 0 31 30" fill="none" xmlns="http://www.w3.org/2000/svg">
<path d="M30.8203 15.0164L28.2527 11.7647L28.8271 7.72477L24.9081 6.21389L23.3541 2.40383L19.1987 2.9622L15.8203 0.433105L12.4757 2.92935L8.32031 2.37098L6.76626 6.18104L2.84734 7.69193L3.42166 11.7319L0.820312 15.0164L3.38788 18.2681L2.81356 22.3081L6.73247 23.819L8.28653 27.629L12.4419 27.0707L15.7865 29.5669L19.1311 27.0707L23.2865 27.629L24.8406 23.819L28.7595 22.2753L28.1852 18.2353L30.8203 15.0164ZM14.6041 19.7462L9.6041 15.739L10.6852 14.4581L14.4014 17.4141L20.7527 10.2867L22.0365 11.3706L14.6041 19.7462Z" fill="white"/>
</svg>
