<svg width="18" height="19" viewBox="0 0 18 19" fill="none" xmlns="http://www.w3.org/2000/svg">
<path d="M2.99999 6.60353C4.39798 6.60353 5.57248 5.64752 5.90548 4.35353H17.25C17.6642 4.35353 18 4.01775 18 3.60354C18 3.18929 17.6642 2.85352 17.25 2.85352H5.90551C5.57251 1.55952 4.39801 0.603516 3.00002 0.603516C1.34304 0.603516 0 1.94655 0 3.6035C0 5.26045 1.34304 6.60353 2.99999 6.60353ZM2.99999 2.10353C3.82852 2.10353 4.5 2.77498 4.5 3.60354C4.5 4.4321 3.82855 5.10352 2.99999 5.10352C2.17143 5.10352 1.49998 4.43207 1.49998 3.6035C1.49998 2.77494 2.17146 2.10353 2.99999 2.10353Z" fill="#407BFF"/>
<path d="M15 12.6035C13.602 12.6035 12.4275 13.5595 12.0945 14.8535H0.749988C0.335777 14.8535 0 15.1893 0 15.6035C0 16.0177 0.335777 16.3535 0.749988 16.3535H12.0945C12.4275 17.6475 13.602 18.6035 15 18.6035C16.657 18.6035 18 17.2605 18 15.6035C18 13.9466 16.657 12.6035 15 12.6035ZM15 17.1035C14.1715 17.1035 13.5 16.4321 13.5 15.6035C13.5 14.7749 14.1714 14.1035 15 14.1035C15.8286 14.1035 16.5 14.775 16.5 15.6035C16.5 16.4321 15.8285 17.1035 15 17.1035Z" fill="#407BFF"/>
<path d="M17.25 8.85351H11.9055C11.5725 7.55952 10.398 6.60352 9 6.60352C7.60201 6.60352 6.42751 7.55952 6.09451 8.85351H0.749988C0.335777 8.85351 0 9.18929 0 9.6035C0 10.0177 0.335777 10.3535 0.749988 10.3535H6.09448C6.42748 11.6475 7.60198 12.6035 8.99996 12.6035C10.398 12.6035 11.5725 11.6475 11.9055 10.3535H17.2499C17.6642 10.3535 17.9999 10.0177 17.9999 9.6035C17.9999 9.18929 17.6642 8.85351 17.25 8.85351ZM9 11.1035C8.17147 11.1035 7.49999 10.4321 7.49999 9.6035C7.49999 8.77494 8.17144 8.10349 9 8.10349C9.82856 8.10349 10.5 8.77494 10.5 9.6035C10.5 10.4321 9.82853 11.1035 9 11.1035Z" fill="#407BFF"/>
</svg>
