<svg width="21" height="21" viewBox="0 0 21 21" fill="none" xmlns="http://www.w3.org/2000/svg">
<g clip-path="url(#clip0)">
<path d="M3.68918 13.1955C3.57596 13.4213 3.62006 13.6943 3.79844 13.8728L3.94172 14.0161C4.35569 13.5255 4.83817 12.9932 5.42335 12.4081C5.4647 12.3668 5.50727 12.3468 5.54878 12.3087L4.62699 11.3867C4.0911 12.356 3.7786 13.0182 3.68918 13.1955Z" fill="#407BFF"/>
<path d="M8.73819 15.7226C8.15164 16.3091 7.62064 16.7925 7.13281 17.2068L7.3269 17.4009C7.50696 17.581 7.78253 17.6243 8.00912 17.5077C8.31262 17.3513 8.78992 17.1267 9.8031 16.5624L8.83783 15.5972C8.79968 15.6388 8.77969 15.6812 8.73819 15.7226Z" fill="#407BFF"/>
<path d="M8.42594 12.7211C8.00251 12.2977 6.81171 12.6773 6.25232 13.2366C4.38098 15.1079 3.5358 16.4347 3.15631 17.2181C3.04752 17.4425 3.09284 17.7112 3.26923 17.8876C3.44593 18.0645 3.71509 18.1093 3.9397 18.0005C4.70554 17.6287 6.01612 16.7875 7.90973 14.894C8.52481 14.2786 8.82831 13.1237 8.42639 12.7216L8.42594 12.7211Z" fill="#407BFF"/>
<path d="M2.59842 8.18125L0.941162 9.83851C0.753784 10.0259 0.715332 10.316 0.848083 10.5458C0.97763 10.7725 1.24893 10.888 1.50711 10.8189C2.4028 10.5787 3.19092 10.4773 3.72162 10.6134C4.47662 9.27104 5.28793 8.03538 6.14716 6.91294C5.65018 6.59433 4.00787 6.77179 2.59842 8.18125Z" fill="#407BFF"/>
<path d="M10.6877 20.3168C10.9134 20.431 11.1866 20.3869 11.3653 20.208L13.0227 18.5508C14.3058 17.2674 14.5317 15.6115 14.2405 15.0864C12.9887 16.0299 11.7206 16.8265 10.5374 17.4935C10.619 17.9545 10.5647 18.4017 10.3717 19.7079C10.334 19.9607 10.4646 20.2053 10.6877 20.3168Z" fill="#407BFF"/>
<path d="M12.4026 6.25772C11.7174 6.94315 11.7174 8.05811 12.4026 8.74353C13.0881 9.42896 14.2032 9.42896 14.8886 8.74353C15.574 8.05811 15.574 6.94315 14.8886 6.25772C14.2032 5.5723 13.0881 5.5723 12.4026 6.25772Z" fill="#407BFF"/>
<path d="M20.7342 0.951426C20.7131 0.661662 20.4824 0.432627 20.1935 0.41096C18.7545 0.302623 17.3211 0.479625 15.916 0.909312C16.0218 1.87458 16.521 2.9192 17.3734 3.77156C18.236 4.63398 19.309 5.1331 20.2915 5.22648C20.6699 3.90034 20.8494 2.48005 20.7342 0.951426Z" fill="#407BFF"/>
<path d="M16.5461 4.60046C15.5711 3.62543 14.9757 2.45599 14.7847 1.31738C11.2661 2.76041 7.89792 5.91165 5.23633 10.3385L6.55865 11.6609C7.46213 11.294 8.55893 11.1971 9.25458 11.8926C9.95114 12.5894 9.85242 13.6857 9.48575 14.588L10.8516 15.9538C14.2576 13.901 18.2231 10.6669 19.9093 6.36407C18.743 6.18784 17.537 5.59137 16.5461 4.60046ZM15.7173 9.57224C14.5752 10.7144 12.7165 10.7144 11.5742 9.57224C10.4319 8.42996 10.4319 6.57114 11.5742 5.42902C12.7165 4.2869 14.5752 4.2869 15.7173 5.42902C16.8596 6.57129 16.8596 8.42996 15.7173 9.57224Z" fill="#407BFF"/>
</g>
<defs>
<clipPath id="clip0">
<rect width="20" height="20" fill="white" transform="translate(0.769531 0.379883)"/>
</clipPath>
</defs>
</svg>
