<svg width="21" height="20" viewBox="0 0 21 20" fill="none" xmlns="http://www.w3.org/2000/svg">
<path d="M12.5191 14.378C12.4641 14.7153 12.3765 15.0412 12.2586 15.3528L13.3168 16.3117C13.1684 16.624 12.9994 16.9241 12.8044 17.206L11.4457 16.7679C11.2314 17.0299 10.9915 17.2695 10.7295 17.4838L11.1675 18.8425C10.8857 19.0375 10.5855 19.2062 10.2732 19.3549L9.31436 18.2966C9.00274 18.4146 8.67726 18.5021 8.33961 18.5572L8.03779 19.9551C7.86711 19.9687 7.69575 19.9812 7.52135 19.9812C7.34695 19.9812 7.17559 19.9687 7.00457 19.9551L6.70274 18.5572C6.36543 18.5021 6.03962 18.4146 5.72799 18.2966L4.76913 19.3549C4.45683 19.2065 4.15669 19.0375 3.87481 18.8425L4.31284 17.4838C4.05091 17.2695 3.81127 17.0295 3.59699 16.7679L2.23828 17.206C2.04327 16.9241 1.87461 16.624 1.7259 16.3117L2.78413 15.3528C2.66618 15.0412 2.57864 14.7157 2.52355 14.378L1.12563 14.0762C1.11211 13.9052 1.09961 13.7338 1.09961 13.5594C1.09961 13.385 1.11211 13.2137 1.12563 13.0427L2.52355 12.7408C2.57864 12.4035 2.66618 12.0777 2.78413 11.7661L1.7259 10.8072C1.87427 10.4949 2.04327 10.1948 2.23828 9.9129L3.59699 10.3509C3.81127 10.089 4.05124 9.84936 4.31318 9.63508L3.87515 8.27637C4.15703 8.08135 4.45716 7.9127 4.76946 7.76398L5.72833 8.82222C6.03995 8.70426 6.36544 8.61672 6.70308 8.56163L7.0049 7.16372C7.17559 7.1502 7.34695 7.1377 7.52135 7.1377C7.69575 7.1377 7.86711 7.1502 8.03813 7.16372L8.33995 8.56163C8.67726 8.61672 9.00308 8.70426 9.3147 8.82222L10.2736 7.76398C10.5859 7.91236 10.886 8.08135 11.1679 8.27637L10.7299 9.63508C10.9918 9.84936 11.2314 10.0893 11.4457 10.3513L12.8044 9.91324C12.9994 10.1951 13.1681 10.4953 13.3168 10.8076L12.2586 11.7664C12.3765 12.078 12.4641 12.4035 12.5191 12.7412L13.9171 13.043C13.9306 13.2137 13.9431 13.385 13.9431 13.5594C13.9431 13.7338 13.9306 13.9052 13.9171 14.0762L12.5191 14.378ZM7.52135 10.1796C5.65465 10.1796 4.14149 11.6927 4.14149 13.5594C4.14149 15.4261 5.65465 16.9393 7.52135 16.9393C9.38805 16.9393 10.9012 15.4261 10.9012 13.5594C10.9012 11.6927 9.38805 10.1796 7.52135 10.1796Z" fill="#407BFF"/>
<path d="M17.2088 4.87484C17.1561 5.04958 17.0872 5.21722 17.0023 5.37506L17.536 6.3978C17.3559 6.62561 17.1504 6.8311 16.9226 7.01125L15.8998 6.47757C15.742 6.56274 15.5743 6.63169 15.3996 6.68408L15.0535 7.78591C14.9109 7.80281 14.7669 7.81363 14.6202 7.81363C14.4735 7.81363 14.3295 7.80281 14.1872 7.78625L13.8411 6.68441C13.6664 6.63203 13.4988 6.56274 13.3409 6.47791L12.3182 7.01159C12.0904 6.83144 11.8849 6.62594 11.7047 6.39814L12.2384 5.37539C12.1532 5.21755 12.0843 5.04991 12.0319 4.87517L10.9301 4.52908C10.9132 4.38645 10.9023 4.24246 10.9023 4.09578C10.9023 3.94909 10.9132 3.80511 10.9297 3.66282L12.0316 3.31672C12.0839 3.14198 12.1532 2.97434 12.2381 2.8165L11.7044 1.79375C11.8845 1.56595 12.09 1.36046 12.3178 1.18031L13.3406 1.71399C13.4984 1.62882 13.6661 1.55987 13.8408 1.50748L14.1869 0.405645C14.3295 0.388745 14.4735 0.37793 14.6202 0.37793C14.7669 0.37793 14.9109 0.388745 15.0532 0.405307L15.3993 1.50714C15.574 1.55953 15.7416 1.62882 15.8995 1.71365L16.9222 1.17997C17.15 1.36012 17.3555 1.56561 17.5357 1.79342L17.002 2.81616C17.0872 2.974 17.1561 3.14164 17.2085 3.31638L18.3103 3.66248C18.3272 3.80511 18.338 3.94909 18.338 4.09578C18.338 4.24246 18.3272 4.38645 18.3107 4.52874L17.2088 4.87484ZM14.6202 2.74383C13.8736 2.74383 13.2682 3.34917 13.2682 4.09578C13.2682 4.84239 13.8736 5.44772 14.6202 5.44772C15.3668 5.44772 15.9721 4.84239 15.9721 4.09578C15.9721 3.34917 15.3668 2.74383 14.6202 2.74383Z" fill="#407BFF"/>
<path d="M19.9387 12.5019C19.8867 12.6895 19.8133 12.8672 19.7194 13.0332L20.0556 13.7409C19.9029 13.936 19.7275 14.1114 19.5324 14.2641L18.8247 13.9278C18.6591 14.0218 18.481 14.0952 18.2934 14.1472L18.0304 14.8867C17.9091 14.9016 17.7864 14.9114 17.661 14.9114C17.5356 14.9114 17.4129 14.9016 17.2916 14.8867L17.0286 14.1472C16.8411 14.0952 16.6633 14.0218 16.4973 13.9278L15.7896 14.2641C15.5946 14.1114 15.4192 13.936 15.2664 13.7409L15.6027 13.0332C15.5087 12.8676 15.4354 12.6895 15.3833 12.5022L14.6438 12.2393C14.6289 12.1176 14.6191 11.9949 14.6191 11.8695C14.6191 11.7441 14.6289 11.6214 14.6438 11.5001L15.3833 11.2371C15.4354 11.0496 15.5087 10.8718 15.6027 10.7062L15.2664 9.99842C15.4192 9.8034 15.5946 9.62799 15.7896 9.47522L16.4973 9.81151C16.6629 9.71755 16.8411 9.64421 17.0286 9.59216L17.2916 8.85265C17.4129 8.83744 17.5356 8.82764 17.661 8.82764C17.7864 8.82764 17.9091 8.83744 18.0304 8.85231L18.2934 9.59182C18.481 9.64387 18.6588 9.71722 18.8247 9.81118L19.5324 9.47488C19.7275 9.62765 19.9029 9.80306 20.0556 9.99808L19.7194 10.7058C19.8133 10.8714 19.8867 11.0496 19.9387 11.2371L20.6782 11.5001C20.6931 11.6214 20.7029 11.7441 20.7029 11.8695C20.7029 11.9949 20.6931 12.1176 20.6782 12.2389L19.9387 12.5019ZM17.661 10.8556C17.101 10.8556 16.6471 11.3095 16.6471 11.8695C16.6471 12.4296 17.101 12.8835 17.661 12.8835C18.2211 12.8835 18.675 12.4296 18.675 11.8695C18.675 11.3095 18.2211 10.8556 17.661 10.8556Z" fill="#407BFF"/>
<path d="M20.7695 1.06048L18.748 0.65625L18.3438 2.67741L19.0065 2.81024L19.1887 1.90038C19.5162 2.58176 19.6893 3.33276 19.6893 4.0956C19.6893 5.26097 19.3046 6.35673 18.5773 7.26422L19.1049 7.68704C19.9178 6.67274 20.3652 5.39752 20.3652 4.0956C20.3652 3.21041 20.1608 2.33773 19.7717 1.55022L20.637 1.72327L20.7695 1.06048Z" fill="#407BFF"/>
<path d="M8.09876 3.85693L7.62085 4.33485L8.08017 4.79417C7.89428 4.78234 7.70805 4.77186 7.52182 4.77186C4.90716 4.77186 2.44594 5.92473 0.769531 7.93507L1.28868 8.36804C2.83632 6.51215 5.10792 5.44783 7.52182 5.44783C7.69386 5.44783 7.86555 5.45764 8.03725 5.46845L7.62085 5.88485L8.09876 6.36276L9.35168 5.10985L8.09876 3.85693Z" fill="#407BFF"/>
</svg>
