<svg width="21" height="21" viewBox="0 0 21 21" fill="none" xmlns="http://www.w3.org/2000/svg">
<path d="M9.97734 6.24844L10.1156 6.63867H13.6738L13.5313 5.93633C13.0176 3.40586 11.0441 1.43789 8.50312 0.921875L7.80078 0.779297V4.32383C7.92344 4.39531 9.41875 4.67266 9.97734 6.24844Z" fill="#407BFF"/>
<path d="M3.0918 12.1758C4.21016 13.1082 5.64805 13.6699 7.21445 13.6699C10.3187 13.6699 12.9313 11.466 13.5309 8.51289L13.6734 7.81055H10.1152C10.068 7.87734 9.58516 10.1543 7.21445 10.1543C6.61836 10.1543 6.06328 9.97539 5.6 9.66797L3.0918 12.1758Z" fill="#407BFF"/>
<path d="M4.77109 8.83945C4.46406 8.37617 4.28516 7.82109 4.28516 7.22461C4.28516 4.90898 6.61484 4.33359 6.62891 4.32383V0.779297L5.92656 0.921875C2.94102 1.52813 0.769531 4.15195 0.769531 7.22461C0.769531 8.79102 1.33125 10.2289 2.26367 11.3473L4.77109 8.83945Z" fill="#407BFF"/>
<path d="M16.043 10.2324H19.5586V18.4355H16.043V10.2324Z" fill="#407BFF"/>
<path d="M11.3555 16.0918H14.8711V18.4355H11.3555V16.0918Z" fill="#407BFF"/>
<path d="M6.66797 14.9199H10.1836V18.4355H6.66797V14.9199Z" fill="#407BFF"/>
<path d="M1.98047 17.2637H5.49609V18.4355H1.98047V17.2637Z" fill="#407BFF"/>
<path d="M0.769531 19.6074H20.7695V20.7793H0.769531V19.6074Z" fill="#407BFF"/>
</svg>
