<svg width="18" height="19" viewBox="0 0 18 19" fill="none" xmlns="http://www.w3.org/2000/svg">
<g clip-path="url(#clip0)">
<path d="M11.8901 17.963C10.9053 16.9783 10.8753 16.0235 10.8746 15.9763C10.8731 15.77 10.7058 15.6035 10.4996 15.6035H7.48459C7.27759 15.6035 7.10959 15.7738 7.10959 15.9808C7.10959 16.0213 7.09609 16.9768 6.10983 17.9638C6.00258 18.071 5.97033 18.2323 6.02883 18.3725C6.08583 18.512 6.22308 18.6035 6.37458 18.6035H11.6246C11.7761 18.6035 11.9133 18.512 11.9711 18.3718C12.0288 18.2315 11.9966 18.071 11.8901 17.963Z" fill="#407BFF"/>
<path d="M16.6875 3.60352H1.3125C0.58875 3.60352 0 4.19227 0 4.91602V15.041C0 15.7648 0.58875 16.3535 1.3125 16.3535H16.6875C17.4112 16.3535 18 15.7648 18 15.041V4.91602C18 4.19227 17.4112 3.60352 16.6875 3.60352ZM16.5 13.3535H1.5V5.10352H16.5V13.3535Z" fill="#407BFF"/>
<path d="M5.8123 11.8533C5.65405 11.8533 5.49655 11.7866 5.38555 11.6568C5.18305 11.4213 5.2108 11.0658 5.4463 10.8633L8.0713 8.61333C8.2633 8.44983 8.5393 8.43258 8.7493 8.57208L9.4903 9.06633L11.6023 6.95583C11.822 6.73608 12.1783 6.73608 12.398 6.95583C12.6178 7.17558 12.6178 7.53183 12.398 7.75158L9.96055 10.1891C9.77155 10.3796 9.47455 10.4081 9.25105 10.2596L8.4808 9.74583L6.1798 11.7183C6.07255 11.8083 5.94205 11.8533 5.8123 11.8533Z" fill="#407BFF"/>
<path d="M12.1872 9.60351C12.041 9.60351 11.897 9.54651 11.7897 9.43851L9.91472 7.56351C9.75347 7.40301 9.70622 7.16076 9.79247 6.95077C9.87947 6.74077 10.0842 6.60352 10.3122 6.60352H12.1872C12.4977 6.60352 12.7497 6.85552 12.7497 7.16601V9.04101C12.7497 9.26826 12.6125 9.47376 12.4025 9.56076C12.3327 9.58926 12.26 9.60351 12.1872 9.60351Z" fill="#407BFF"/>
</g>
<defs>
<clipPath id="clip0">
<rect width="18" height="18" fill="white" transform="translate(0 0.603516)"/>
</clipPath>
</defs>
</svg>
