<svg width="26" height="26" viewBox="0 0 26 26" fill="none" xmlns="http://www.w3.org/2000/svg">
<g clip-path="url(#clip0)">
<path d="M24.7415 4.70365L24.4844 4.57206C24.5298 4.35302 24.5478 4.12978 24.5381 3.90634L24.8129 3.81762C25.1979 3.69335 25.4092 3.28056 25.285 2.89565C25.1607 2.5107 24.7478 2.29947 24.363 2.42364L24.0881 2.51236C23.9653 2.3254 23.8202 2.15484 23.6553 2.00367L23.787 1.74659C23.9713 1.38654 23.8288 0.945231 23.4688 0.760857C23.1087 0.576483 22.6674 0.718963 22.483 1.07907L22.351 1.33698C22.13 1.29171 21.907 1.27457 21.6862 1.28414L21.5969 1.00763C21.4727 0.622674 21.0599 0.411348 20.675 0.535615C20.29 0.659881 20.0787 1.07267 20.203 1.45758L20.2922 1.73404C20.1076 1.85533 19.9366 1.99971 19.7838 2.16563L19.5259 2.0336C19.1658 1.84933 18.7245 1.99171 18.5401 2.35181C18.3558 2.71187 18.4983 3.15317 18.8583 3.33755L19.1154 3.46914C19.0701 3.68818 19.0521 3.91137 19.0618 4.13485L18.7869 4.22357C18.402 4.34779 18.1907 4.76063 18.3149 5.14554C18.415 5.45574 18.7025 5.65315 19.0117 5.65315C19.0863 5.65315 19.1621 5.64168 19.2369 5.61756L19.5117 5.52884C19.6345 5.7158 19.7796 5.88635 19.9444 6.03753L19.8128 6.29465C19.6285 6.65471 19.7709 7.09601 20.131 7.28034C20.2378 7.33507 20.3518 7.36095 20.4641 7.36095C20.7303 7.36095 20.9871 7.21535 21.1167 6.96213L21.2484 6.70476C21.4291 6.74216 21.6126 6.76213 21.7968 6.76213C21.8359 6.76213 21.875 6.7611 21.9141 6.7594L22.0027 7.03361C22.1028 7.34381 22.3903 7.54122 22.6995 7.54122C22.774 7.54122 22.8499 7.52975 22.9246 7.50563C23.3096 7.38136 23.5209 6.96857 23.3966 6.58361L23.3079 6.30881C23.4949 6.18601 23.6654 6.04089 23.8166 5.87605L24.0737 6.00769C24.1806 6.06243 24.2945 6.08831 24.4069 6.08831C24.673 6.08831 24.9298 5.9427 25.0594 5.68948C25.244 5.32928 25.1016 4.88797 24.7415 4.70365ZM20.6648 3.43935C20.8903 2.99893 21.3383 2.74536 21.8021 2.74536C21.9974 2.74536 22.1956 2.79038 22.3812 2.88535C23.0071 3.20581 23.2556 3.97577 22.9352 4.6017C22.6147 5.22762 21.8448 5.47625 21.2188 5.1557C20.5929 4.83529 20.3443 4.06532 20.6648 3.43935Z" fill="white"/>
<path d="M12.2879 14.6845C12.2879 14.0494 11.7712 13.5327 11.1362 13.5327C10.5011 13.5327 9.98438 14.0494 9.98438 14.6845C9.98438 15.3195 10.5011 15.8363 11.1362 15.8363C11.7713 15.8363 12.2879 15.3196 12.2879 14.6845Z" fill="white"/>
<path d="M11.1351 10.4263C8.78714 10.4263 6.87695 12.3365 6.87695 14.6844C6.87695 15.7912 7.30156 16.8006 7.99623 17.5586C8.30897 17.0946 8.71649 16.7105 9.18611 16.428C8.77127 15.9649 8.51839 15.3537 8.51839 14.6844C8.51839 13.2416 9.69221 12.0679 11.135 12.0679C12.5778 12.0679 13.7516 13.2417 13.7516 14.6844C13.7516 15.3545 13.4982 15.9663 13.0825 16.4296C13.191 16.4953 13.2971 16.5659 13.3998 16.643C13.7398 16.8978 14.0346 17.2103 14.2719 17.5607C14.9677 16.8025 15.3931 15.7922 15.3931 14.6844C15.3932 12.3365 13.483 10.4263 11.1351 10.4263Z" fill="white"/>
<path d="M11.1351 17.3521C10.3226 17.3521 9.58081 17.7757 9.16016 18.456C9.75078 18.7666 10.4227 18.9426 11.1351 18.9426C11.8469 18.9426 12.5184 18.7668 13.1087 18.4566C12.6898 17.7865 11.9426 17.3521 11.1351 17.3521Z" fill="white"/>
<path d="M20.2697 12.4998C19.8106 12.3777 19.4801 12.0779 19.3138 11.6329C19.242 11.4405 19.1622 11.248 19.0766 11.0608C18.8789 10.6283 18.9004 10.1821 19.139 9.77066C19.6529 8.88439 19.5066 7.76018 18.7833 7.03689C18.0599 6.31351 16.9357 6.16722 16.0494 6.68113C15.638 6.9197 15.1919 6.94129 14.7593 6.74358C14.5724 6.65813 14.3799 6.57835 14.1873 6.50643C13.7423 6.34026 13.4425 6.0097 13.3203 5.55048C13.0569 4.56054 12.1586 3.86914 11.1357 3.86914C10.1128 3.86914 9.21438 4.56054 8.95106 5.55048C8.82889 6.00965 8.52904 6.34017 8.08402 6.50638C7.89159 6.57825 7.69911 6.65799 7.512 6.74353C7.07954 6.94129 6.6334 6.9197 6.22188 6.68108C5.33561 6.16717 4.2114 6.31351 3.48806 7.03689C2.60682 7.91808 2.60682 9.35196 3.48806 10.2332L3.57624 10.3213C3.19275 10.9831 2.90091 11.687 2.70418 12.4243H2.58045C1.33422 12.4243 0.320312 13.4382 0.320312 14.6844C0.320312 15.7073 1.01171 16.6057 2.0016 16.869C2.46073 16.9912 2.79129 17.2911 2.9575 17.7361C3.02937 17.9285 3.10916 18.1209 3.1947 18.3081C3.39246 18.7406 3.37087 19.1867 3.1323 19.5982C2.61844 20.4845 2.76473 21.6087 3.48811 22.332C4.21144 23.0553 5.3357 23.2017 6.22193 22.6877C6.63345 22.4491 7.07954 22.4275 7.5121 22.6253C7.69916 22.7108 7.89159 22.7906 8.08407 22.8625C8.52914 23.0286 8.82894 23.3592 8.9511 23.8184C9.21448 24.8083 10.1128 25.4997 11.1357 25.4997C12.1586 25.4997 13.057 24.8083 13.3203 23.8184C13.4425 23.3592 13.7423 23.0287 14.1874 22.8625C14.3803 22.7904 14.5728 22.7106 14.7593 22.6253C15.1918 22.4276 15.638 22.4492 16.0494 22.6877C16.9358 23.2016 18.0599 23.0553 18.7832 22.332C19.5066 21.6087 19.6529 20.4845 19.139 19.5982C18.9004 19.1867 18.8789 18.7406 19.0766 18.308C19.1622 18.1209 19.242 17.9285 19.3138 17.736C19.48 17.291 19.8105 16.9912 20.2697 16.869C21.2596 16.6056 21.951 15.7073 21.951 14.6845C21.951 13.6615 21.2596 12.7632 20.2697 12.4998ZM14.6433 19.2033C14.554 19.3251 14.4271 19.4209 14.2719 19.4694C14.2716 19.4695 14.2713 19.4695 14.2711 19.4696C13.3699 20.062 12.2924 20.4073 11.1357 20.4073C7.98007 20.4073 5.41275 17.84 5.41275 14.6844C5.41275 11.5287 7.98007 8.96144 11.1357 8.96144C14.2913 8.96144 16.8587 11.5287 16.8587 14.6844C16.8587 16.5194 15.9904 18.1553 14.6433 19.2033Z" fill="white"/>
</g>
<defs>
<clipPath id="clip0">
<rect width="25" height="25" fill="white" transform="translate(0.320312 0.5)"/>
</clipPath>
</defs>
</svg>
