<svg width="34" height="32" viewBox="0 0 34 32" fill="none" xmlns="http://www.w3.org/2000/svg">
<g clip-path="url(#clip0)">
<path d="M6.29406 12.3172L6.57799 12.4764V14.2237L5.28421 14.5373L8.28489 16.2347L8.26322 17.2549L8.2171 17.4112L9.99179 17.0281V16.6194C9.99179 15.8778 10.3007 15.1986 10.8066 14.6967L8.85441 14.2237L8.85219 12.4777L9.13667 12.3182C10.0151 11.825 10.5608 10.9101 10.5608 9.93086V8.96642C10.5608 7.41388 9.32392 6.11459 7.80343 6.07041C7.03305 6.04131 6.29184 6.32364 5.73482 6.84734C5.1778 7.37132 4.87109 8.07498 4.87109 8.82741V9.93086C4.87109 10.9101 5.41617 11.825 6.29406 12.3172Z" fill="white"/>
<path d="M10.5356 6.15625C11.8727 4.06897 14.2492 2.75862 16.8209 2.75862C19.3743 2.75862 21.7441 4.05684 23.0851 6.12365C23.1079 6.10156 23.1279 6.07732 23.1512 6.05523C23.5057 5.72144 23.913 5.46417 24.3522 5.28098L24.9976 3.81573L23.182 2.05469L21.5821 3.06439L21.2759 2.88227C20.5089 2.42645 19.6799 2.09267 18.8123 1.89143L18.4617 1.80954L18.0663 0H15.5749L15.1801 1.80954L14.8301 1.89062C13.9625 2.09213 13.1335 2.42592 12.3664 2.88173L12.0603 3.06385L10.4603 2.05415L8.64258 3.81681L9.281 5.29256C9.75217 5.49838 10.1778 5.7931 10.5356 6.15625Z" fill="white"/>
<path d="M0.320312 12.6895V22.7743L2.76231 23.5639L4.82703 15.5556L0.320312 12.6895Z" fill="white"/>
<path d="M23.6479 13.0969C22.5875 12.3787 21.941 11.1942 21.941 9.93127V8.82782C21.941 8.21979 22.0883 7.63655 22.3591 7.10988C21.2826 5.12955 19.1412 3.8623 16.8203 3.8623C14.4772 3.8623 12.3267 5.14679 11.2582 7.15433C11.5385 7.70121 11.6996 8.31759 11.6996 8.96683V9.93127C11.6996 11.1942 11.0526 12.3798 9.99219 13.0975V13.3618L12.2686 13.9143L14.5445 13.3618V13.0969C13.484 12.3787 12.8376 11.1942 12.8376 9.93127V8.82782C12.8376 7.77394 13.2671 6.78984 14.0472 6.056C14.8267 5.32216 15.8535 4.9372 16.9426 4.96737C19.0712 5.02987 20.8031 6.82351 20.8031 8.96683V9.93127C20.8031 11.1942 20.1561 12.3798 19.0956 13.0975V13.3618L21.3721 13.9143L23.6479 13.3618V13.0969Z" fill="white"/>
<path d="M7.14725 16.8686L5.84958 16.1348L3.84375 23.9141L4.96362 24.2759H5.01141L7.14725 17.0262V16.8686Z" fill="white"/>
<path d="M12.4235 15.0133C11.6629 15.1981 11.1309 15.8587 11.1309 16.6194V16.7827L11.457 16.7127C12.6586 16.4546 13.929 16.509 15.1028 16.8737L17.6784 17.672C17.9634 17.6825 18.2474 17.7129 18.5224 17.7892L22.0209 18.7584H22.3696L22.5102 18.6868V16.6194C22.5102 15.8587 21.9781 15.1981 21.2175 15.0133L17.959 14.2237L17.9568 12.4777L18.2413 12.3183C19.1197 11.825 19.6653 10.9101 19.6653 9.93086V8.96642C19.6653 7.41389 18.4285 6.11459 16.908 6.07041C16.1401 6.04131 15.3964 6.32364 14.8394 6.84735C14.2824 7.37132 13.9757 8.07499 13.9757 8.82741V9.93086C13.9757 10.9101 14.5208 11.825 15.3987 12.3172L15.6826 12.4764V14.2237L12.4235 15.0133Z" fill="white"/>
<path d="M23.0799 8.82741V9.93086C23.0799 10.9101 23.6249 11.825 24.5028 12.3172L24.7867 12.4764V14.2237L22.834 14.6968C23.3393 15.1986 23.6488 15.8772 23.6488 16.6194V18.1057L29.9058 14.9123L27.0632 14.2237L27.0609 12.4777L27.3454 12.3182C28.2239 11.825 28.7695 10.9101 28.7695 9.93086V8.96642C28.7695 7.41389 27.5327 6.11459 26.0122 6.07041C25.2401 6.04131 24.5012 6.32364 23.9436 6.84734C23.3866 7.37132 23.0799 8.07498 23.0799 8.82741Z" fill="white"/>
<path d="M18.0678 21.8048C17.7002 21.4842 17.129 21.4295 16.7034 21.6774L14.5845 22.9093C14.29 23.0814 13.9503 23.1725 13.6049 23.1725C12.554 23.1725 11.6989 22.3433 11.6989 21.3242V21.2151C11.6989 20.5109 12.1022 19.8775 12.7526 19.5621L15.5941 18.1844L14.7559 17.9244C13.7727 17.6194 12.7104 17.572 11.7033 17.7905L7.86223 18.6186L6.33008 23.8185L8.07809 24.8355C8.1281 24.7703 8.17755 24.7046 8.23728 24.6466L9.23741 23.6768C9.5669 23.3562 10.0245 23.1725 10.492 23.1725C11.4497 23.1725 12.2281 23.9128 12.2614 24.8339C13.1896 24.8657 13.9355 25.589 13.9683 26.489C14.8965 26.5208 15.6424 27.2442 15.6752 28.1442C16.3484 28.1674 16.9232 28.554 17.2029 29.1084L18.4728 30.1348C18.6398 30.2698 18.8526 30.3449 19.071 30.3449C19.3982 30.3449 19.6644 30.0868 19.6644 29.7695C19.6644 29.5979 19.5863 29.4368 19.451 29.3274L16.4548 26.9066L17.1838 26.0586L20.2742 28.5556C20.3806 28.6423 20.5156 28.6897 20.6537 28.6897H20.7779C21.1051 28.6897 21.3713 28.4317 21.3713 28.1143C21.3713 27.9427 21.2932 27.7816 21.1579 27.6722L18.1617 25.2514L18.8907 24.4034L21.9761 26.8966C22.0853 26.9855 22.2253 27.0346 22.3675 27.0346H22.4659C22.804 27.0346 23.0782 26.7687 23.0782 26.4414C23.0782 26.2733 23.0043 26.1127 22.8756 26.0001L18.0678 21.8048Z" fill="white"/>
<path d="M22.6509 19.8621L21.7855 19.8411L18.21 18.8508C17.6246 18.6875 16.9798 18.7471 16.4367 19.0103L13.2629 20.549C13.0007 20.6765 12.8379 20.9313 12.8379 21.215V21.3241C12.8379 21.7347 13.1821 22.069 13.606 22.069C13.745 22.069 13.8808 22.0326 13.9997 21.9636L16.1192 20.7312C16.4759 20.5232 16.8826 20.4138 17.2979 20.4138C17.8652 20.4138 18.4098 20.6164 18.8309 20.9844L23.6374 25.1797C23.6716 25.2093 23.7041 25.2398 23.7352 25.2718L33.3207 20.6245V14.4165L22.6509 19.8621Z" fill="white"/>
<path d="M17.2271 30.5649C17.1396 30.7543 17.0212 30.9297 16.8687 31.0776L16.4414 31.4919L16.867 31.8559C16.9751 31.9488 17.1146 32 17.259 32H17.3643C17.6916 32 17.9577 31.7419 17.9577 31.4246C17.9577 31.253 17.8797 31.0919 17.7444 30.9825L17.2271 30.5649Z" fill="white"/>
<path d="M15.6126 29.2412C15.4448 29.2412 15.2803 29.3069 15.1614 29.4222L14.1613 30.3921C14.0424 30.5074 13.9746 30.6669 13.9746 30.8296C13.9746 31.1706 14.2608 31.4481 14.6125 31.4481C14.7803 31.4481 14.9447 31.3824 15.0636 31.2671L16.0638 30.2972C16.1827 30.1819 16.2505 30.0225 16.2505 29.8597C16.2505 29.5187 15.9643 29.2412 15.6126 29.2412Z" fill="white"/>
<path d="M12.8384 26.5497C12.8384 26.2086 12.5522 25.9312 12.2005 25.9312C12.0327 25.9312 11.8682 25.9969 11.7493 26.1122L10.7492 27.082C10.6303 27.1973 10.5625 27.3568 10.5625 27.5195C10.5625 27.8606 10.8486 28.1381 11.2004 28.1381C11.3682 28.1381 11.5326 28.0723 11.6515 27.957L12.6517 26.9872C12.7706 26.8719 12.8384 26.7124 12.8384 26.5497Z" fill="white"/>
<path d="M14.5454 28.205C14.5454 27.8639 14.2592 27.5864 13.9075 27.5864C13.7397 27.5864 13.5753 27.6522 13.4564 27.7675L12.4562 28.7373C12.3373 28.8526 12.2695 29.0121 12.2695 29.1748C12.2695 29.5158 12.5557 29.7933 12.9074 29.7933C13.0752 29.7933 13.2397 29.7276 13.3586 29.6123L14.3587 28.6425C14.4776 28.5272 14.5454 28.3677 14.5454 28.205Z" fill="white"/>
<path d="M11.1313 24.8944C11.1313 24.5534 10.8452 24.2759 10.4935 24.2759C10.3257 24.2759 10.1612 24.3416 10.0423 24.4569L9.04216 25.4267C8.92326 25.542 8.85547 25.7015 8.85547 25.8642C8.85547 26.2053 9.14162 26.4828 9.49333 26.4828C9.66113 26.4828 9.8256 26.417 9.9445 26.3017L10.9446 25.3319C11.0635 25.2166 11.1313 25.0571 11.1313 24.8944Z" fill="white"/>
</g>
<defs>
<clipPath id="clip0">
<rect width="33" height="32" fill="white" transform="translate(0.320312)"/>
</clipPath>
</defs>
</svg>
