<svg width="21" height="14" viewBox="0 0 21 14" fill="none" xmlns="http://www.w3.org/2000/svg">
<path d="M18.9188 10.4986V9.75815V5.31329V0.868427C18.9188 0.461622 18.5851 0.12793 18.1773 0.12793H3.36268C2.95517 0.12793 2.62054 0.459982 2.62054 0.868427V5.31329V9.75815V10.4986L0.769531 12.7211C0.769531 13.3334 1.26679 13.8314 1.87981 13.8314H19.6593C20.2723 13.8314 20.7695 13.3332 20.7695 12.7211L18.9188 10.4986ZM12.2524 13.4625H9.28947C9.18637 13.4625 9.10411 13.3803 9.10411 13.2772C9.10411 13.174 9.18637 13.0918 9.28947 13.0918H12.2524C12.3539 13.0918 12.4378 13.174 12.4378 13.2772C12.4352 13.3803 12.3539 13.4625 12.2524 13.4625ZM7.71615 12.722L8.28136 12.0436H13.2579L13.8231 12.722H7.71615ZM17.8755 9.18872C17.8755 9.54608 17.5845 9.83525 17.2297 9.83525H4.30939C3.95461 9.83525 3.66357 9.5435 3.66357 9.18872V1.4395C3.66357 1.08214 3.95461 0.792972 4.30939 0.792972H17.2297C17.5845 0.792972 17.8755 1.08402 17.8755 1.4395V9.18872Z" fill="#407BFF"/>
</svg>
