<svg width="26" height="24" viewBox="0 0 26 24" fill="none" xmlns="http://www.w3.org/2000/svg">
<path d="M11.172 13.6377C8.78577 11.4161 8.24698 9.19445 8.12543 8.30435C8.09146 8.05824 8.18243 7.81142 8.37155 7.63658L10.3026 5.83952C10.5866 5.57521 10.637 5.16331 10.4241 4.84628L7.34956 0.401395C7.11401 0.0503504 6.63036 -0.0763451 6.23275 0.108842L1.29698 2.2731C0.975452 2.4205 0.786334 2.73855 0.82284 3.07049C1.08146 5.35795 2.15258 10.9811 8.08793 16.5075C14.0233 22.0339 20.0621 23.0307 22.5203 23.2715C22.8768 23.3055 23.2184 23.1294 23.3767 22.8301L25.7013 18.2347C25.8994 17.8653 25.7643 17.4162 25.3888 17.1965L20.6147 14.3348C20.2743 14.1364 19.8319 14.183 19.5478 14.4472L17.6177 16.245C17.4299 16.4211 17.1648 16.5058 16.9004 16.4742C15.9444 16.361 13.5582 15.8594 11.172 13.6377Z" fill="white"/>
<path d="M20.6467 12.4407C20.1706 12.4407 19.7846 12.0813 19.7846 11.638C19.7806 8.31505 16.8882 5.62218 13.3191 5.61842C12.843 5.61842 12.457 5.25907 12.457 4.8158C12.457 4.37253 12.843 4.01318 13.3191 4.01318C17.8401 4.01783 21.5038 7.42887 21.5088 11.638C21.5088 12.0813 21.1228 12.4407 20.6467 12.4407Z" fill="white"/>
<path d="M24.957 12.4405C24.4809 12.4405 24.095 12.0812 24.095 11.6379C24.0883 6.09959 19.2677 1.61142 13.3191 1.60523C12.843 1.60523 12.457 1.24589 12.457 0.802616C12.457 0.359343 12.843 0 13.3191 0C20.2195 0.00707742 25.8115 5.21341 25.8191 11.6379C25.8191 11.8508 25.7283 12.0549 25.5666 12.2055C25.4049 12.356 25.1857 12.4405 24.957 12.4405Z" fill="white"/>
</svg>
