<svg width="21" height="17" viewBox="0 0 21 17" fill="none" xmlns="http://www.w3.org/2000/svg">
<path d="M5.43898 2.19434V14.8058H0.769531V14.0076L5.43898 2.19434Z" fill="#407BFF"/>
<path d="M12.2241 13.7053V10.7839L18.0509 4.93987V1.59583H15.377V0.278809H14.1797V1.59583H12.8626V0.278809H11.6654V1.59583H10.3483V0.278809H9.15104V1.59583H6.63672V16.8813H18.0509V10.6725L15.027 13.7053H12.2241ZM8.83176 4.90835H12.8626V6.10564H8.83176V4.90835ZM11.386 8.50023H8.83176V7.30293H11.386V8.50023Z" fill="#407BFF"/>
<path d="M17.8247 6.8623L13.4219 11.2787V12.5079H14.5302C15.5258 11.5093 18.0277 8.99983 18.9937 8.03126L17.8247 6.8623Z" fill="#407BFF"/>
<path d="M20.77 6.24948L19.8389 7.18337L18.6699 6.01441L19.6034 5.07812L20.77 6.24948Z" fill="#407BFF"/>
</svg>
