<svg width="26" height="26" viewBox="0 0 26 26" fill="none" xmlns="http://www.w3.org/2000/svg">
<g clip-path="url(#clip0)">
<path d="M15.8477 14.8105C15.4438 14.8105 15.1152 15.1391 15.1152 15.543C15.1152 15.9468 15.4438 16.2754 15.8477 16.2754C16.2515 16.2754 16.5801 15.9468 16.5801 15.543C16.5801 15.1391 16.2515 14.8105 15.8477 14.8105Z" fill="white"/>
<path d="M15.8477 10.9043C13.2899 10.9043 11.209 12.9852 11.209 15.543C11.209 18.1007 13.2899 20.1816 15.8477 20.1816C18.4054 20.1816 20.4863 18.1007 20.4863 15.543C20.4863 12.9852 18.4054 10.9043 15.8477 10.9043ZM15.8477 17.7402C14.6361 17.7402 13.6504 16.7545 13.6504 15.543C13.6504 14.3314 14.6361 13.3457 15.8477 13.3457C17.0592 13.3457 18.0449 14.3314 18.0449 15.543C18.0449 16.7545 17.0592 17.7402 15.8477 17.7402Z" fill="white"/>
<path d="M10.4761 18.4385L7.26172 21.6528L9.4813 22.8859L10.7144 25.1055L14.3578 21.4621C12.6824 21.0402 11.2801 19.9241 10.4761 18.4385Z" fill="white"/>
<path d="M21.2196 18.4385C20.4156 19.924 19.0133 21.0401 17.3379 21.4621L20.9813 25.1055L22.2144 22.8859L24.434 21.6528L21.2196 18.4385Z" fill="white"/>
<path d="M18.7812 5.5332H6.85942C6.60596 6.42632 5.90093 7.13135 5.00781 7.38481V12.9589C5.90093 13.2124 6.60596 13.9174 6.85942 14.8105H9.78823C9.91924 13.7202 10.3386 12.7174 10.9679 11.8809H6.57031V10.416H11.7949V10.9834C12.8736 10.0236 14.2936 9.43945 15.8477 9.43945C17.7848 9.43945 19.5139 10.3467 20.6328 11.7585V7.38481C19.7397 7.1314 19.0347 6.42632 18.7812 5.5332ZM14.7529 9.21035C13.6873 8.18135 11.9533 8.18135 10.8877 9.21035L9.87012 8.15664C11.4969 6.58574 14.1437 6.58574 15.7705 8.15664L14.7529 9.21035Z" fill="white"/>
<path d="M0.320312 0.894531V19.4493H7.3937L9.90513 16.9378C9.8543 16.7212 9.81523 16.5001 9.78823 16.2754H5.49609V15.543C5.49609 14.8699 4.94849 14.3223 4.27539 14.3223H3.54297V6.02153H4.27539C4.94849 6.02153 5.49609 5.47393 5.49609 4.80083V4.06841H20.1445V4.80083C20.1445 5.47393 20.6921 6.02153 21.3652 6.02153H22.0977V14.3223H21.8285C21.9089 14.7168 21.9512 15.1251 21.9512 15.543C21.9512 16.0228 21.8954 16.4897 21.7902 16.9378L22.2552 17.4028L24.3016 19.4492H25.3203V0.894531H0.320312Z" fill="white"/>
</g>
<defs>
<clipPath id="clip0">
<rect width="25" height="25" fill="white" transform="translate(0.320312 0.5)"/>
</clipPath>
</defs>
</svg>
