<svg width="17" height="16" viewBox="0 0 17 16" fill="none" xmlns="http://www.w3.org/2000/svg">
<path d="M3.57993 5H0.00195312V15.9999H3.57993V5Z" fill="white"/>
<path d="M13.3259 5.129C13.2879 5.117 13.2519 5.104 13.2119 5.093C13.1639 5.082 13.1159 5.073 13.0669 5.065C12.8769 5.027 12.6689 5 12.4249 5C10.3389 5 9.01593 6.51699 8.57993 7.10299V5H5.00195V15.9999H8.57993V9.99997C8.57993 9.99997 11.2839 6.23399 12.4249 8.99998C12.4249 11.469 12.4249 15.9999 12.4249 15.9999H16.0019V8.57698C16.0019 6.91499 14.8629 5.53 13.3259 5.129Z" fill="white"/>
<path d="M1.75194 3.49998C2.71844 3.49998 3.50193 2.71648 3.50193 1.74999C3.50193 0.783498 2.71844 0 1.75194 0C0.785451 0 0.00195312 0.783498 0.00195312 1.74999C0.00195312 2.71648 0.785451 3.49998 1.75194 3.49998Z" fill="white"/>
</svg>
