<svg width="24" height="24" viewBox="0 0 24 24" fill="none" xmlns="http://www.w3.org/2000/svg">
<g clip-path="url(#clip0)">
<path d="M7.0183 16.7618C6.53293 16.2765 6.10161 15.7516 5.72662 15.1948L4.24121 16.6801L7.10007 19.5389L8.5853 18.0535C8.02851 17.6785 7.50366 17.2472 7.0183 16.7618Z" fill="#407BFF"/>
<path d="M3.28814 17.6328L1.09206 19.8287C0.71022 20.2106 0.5 20.7182 0.5 21.2581C0.5 21.7981 0.71022 22.3057 1.09206 22.6876C1.47389 23.0694 1.98154 23.2796 2.52148 23.2796C3.06142 23.2796 3.56908 23.0692 3.95091 22.6876L6.14682 20.4915L3.28814 17.6328Z" fill="#407BFF"/>
<path d="M14.4033 0.279785C9.37944 0.279785 5.30664 4.35258 5.30664 9.37646C5.30664 14.4003 9.37944 18.4731 14.4033 18.4731C19.4272 18.4731 23.5 14.4005 23.5 9.37646C23.5 4.35241 19.4274 0.279785 14.4033 0.279785ZM14.4033 16.4517C10.5021 16.4517 7.32812 13.2778 7.32812 9.37646C7.32812 5.47511 10.5021 2.30127 14.4033 2.30127C18.3045 2.30127 21.4785 5.47528 21.4785 9.37646C21.4785 13.2776 18.3047 16.4517 14.4033 16.4517Z" fill="#407BFF"/>
<path d="M14.4033 3.64893C11.2451 3.64893 8.67578 6.21825 8.67578 9.37646C8.67578 12.5347 11.2451 15.104 14.4033 15.104C17.5615 15.104 20.1309 12.5347 20.1309 9.37646C20.1309 6.21825 17.5615 3.64893 14.4033 3.64893ZM15.0771 13.5186H13.7295V12.1709H15.0771V13.5186ZM16.0279 8.94707L15.0771 10.0105V10.8233H13.7295V9.49579L15.0235 8.04864C15.1603 7.89562 15.2356 7.69856 15.2356 7.49378C15.2356 7.03474 14.8624 6.66132 14.4033 6.66132C13.9443 6.66132 13.571 7.03474 13.571 7.49378H12.2234C12.2234 6.2916 13.2013 5.31367 14.4033 5.31367C15.6053 5.31367 16.5833 6.2916 16.5833 7.49378C16.5834 8.03074 16.3862 8.54681 16.0279 8.94707Z" fill="#407BFF"/>
</g>
<defs>
<clipPath id="clip0">
<rect width="23" height="23" fill="white" transform="translate(0.5 0.279785)"/>
</clipPath>
</defs>
</svg>
