<svg width="15" height="16" viewBox="0 0 15 16" fill="none" xmlns="http://www.w3.org/2000/svg">
<path d="M12.8027 0.382812H2.19727C0.985794 0.382812 0 1.36861 0 2.58008V13.1855C0 14.397 0.985794 15.3828 2.19727 15.3828H12.8027C14.0142 15.3828 15 14.397 15 13.1855V2.58008C15 1.36861 14.0142 0.382812 12.8027 0.382812ZM7.5293 11.8086C5.3484 11.8086 3.57422 10.0344 3.57422 7.85352C3.57422 5.67262 5.3484 3.89844 7.5293 3.89844C9.7102 3.89844 11.4844 5.67262 11.4844 7.85352C11.4844 10.0344 9.7102 11.8086 7.5293 11.8086ZM11.9238 4.77734C11.1969 4.77734 10.6055 4.18591 10.6055 3.45898C10.6055 2.73206 11.1969 2.14062 11.9238 2.14062C12.6508 2.14062 13.2422 2.73206 13.2422 3.45898C13.2422 4.18591 12.6508 4.77734 11.9238 4.77734Z" fill="white"/>
<path d="M11.9238 3.01953C11.6813 3.01953 11.4844 3.21648 11.4844 3.45898C11.4844 3.70148 11.6813 3.89844 11.9238 3.89844C12.1663 3.89844 12.3633 3.70148 12.3633 3.45898C12.3633 3.21648 12.1663 3.01953 11.9238 3.01953Z" fill="white"/>
<path d="M7.5293 4.77734C5.83328 4.77734 4.45312 6.1575 4.45312 7.85352C4.45312 9.54953 5.83328 10.9297 7.5293 10.9297C9.22531 10.9297 10.6055 9.54953 10.6055 7.85352C10.6055 6.1575 9.22531 4.77734 7.5293 4.77734Z" fill="white"/>
</svg>
