<svg width="17" height="16" viewBox="0 0 17 16" fill="none" xmlns="http://www.w3.org/2000/svg">
<path d="M14.5762 0H3.26367C1.97144 0 0.919922 1.05151 0.919922 2.34375V13.6562C0.919922 14.9485 1.97144 16 3.26367 16H14.5762C15.8684 16 16.9199 14.9485 16.9199 13.6562V2.34375C16.9199 1.05151 15.8684 0 14.5762 0ZM8.95117 12.1875C6.62488 12.1875 4.73242 10.295 4.73242 7.96875C4.73242 5.64246 6.62488 3.75 8.95117 3.75C11.2775 3.75 13.1699 5.64246 13.1699 7.96875C13.1699 10.295 11.2775 12.1875 8.95117 12.1875ZM13.6387 4.6875C12.8633 4.6875 12.2324 4.05664 12.2324 3.28125C12.2324 2.50586 12.8633 1.875 13.6387 1.875C14.4141 1.875 15.0449 2.50586 15.0449 3.28125C15.0449 4.05664 14.4141 4.6875 13.6387 4.6875Z" fill="white"/>
<path d="M13.6387 2.8125C13.38 2.8125 13.1699 3.02258 13.1699 3.28125C13.1699 3.53992 13.38 3.75 13.6387 3.75C13.8973 3.75 14.1074 3.53992 14.1074 3.28125C14.1074 3.02258 13.8973 2.8125 13.6387 2.8125Z" fill="white"/>
<path d="M8.95117 4.6875C7.14209 4.6875 5.66992 6.15967 5.66992 7.96875C5.66992 9.77783 7.14209 11.25 8.95117 11.25C10.7603 11.25 12.2324 9.77783 12.2324 7.96875C12.2324 6.15967 10.7603 4.6875 8.95117 4.6875Z" fill="white"/>
</svg>
