<svg width="24" height="24" viewBox="0 0 24 24" fill="none" xmlns="http://www.w3.org/2000/svg">
    <g clip-path="url(#clip0)">
        <path d="M17.3906 5.56055H17.2204C16.795 3.91236 15.6032 2.54988 14.0215 1.90975V0.753906C14.0215 0.381953 13.7196 0.0800781 13.3477 0.0800781H10.6523C10.2804 0.0800781 9.97852 0.381953 9.97852 0.753906V1.90975C8.37121 2.56021 7.16641 3.95639 6.75941 5.64096C5.89557 5.88938 5.26172 6.68674 5.26172 7.62965V8.92969C5.26172 9.30164 5.56359 9.60352 5.93555 9.60352H18.0645C18.4364 9.60352 18.7383 9.30164 18.7383 8.92969V6.9082C18.7383 6.1652 18.1336 5.56055 17.3906 5.56055ZM13.8243 6.711L12.4766 8.05865C11.8464 8.68846 10.8927 7.73656 11.5234 7.10541L12.2102 6.419L10.3509 5.48957C9.94033 5.28383 9.85094 4.73533 10.1757 4.4101L11.5234 3.06244C12.1536 2.43264 13.1073 3.38453 12.4766 4.01568L11.7898 4.70209L13.6491 5.63152C14.0597 5.83727 14.1491 6.38576 13.8243 6.711Z" fill="#407BFF"/>
        <path d="M17.3906 10.9512C17.3906 13.9237 14.9725 16.3418 12 16.3418C9.02752 16.3418 6.60938 13.9237 6.60938 10.9512H17.3906Z" fill="#407BFF"/>
        <path d="M2.56641 22.4062C2.56641 22.7782 2.86828 23.0801 3.24023 23.0801H6.60938V19.7109C6.60938 19.339 6.91125 19.0371 7.2832 19.0371H7.95703V16.3791C4.92885 16.7151 2.56641 19.29 2.56641 22.4062ZM7.95703 20.3848V23.0801H16.043V20.3848H7.95703ZM9.30469 16.3418V19.0371H14.6953V16.3418H9.30469ZM16.043 16.3791V19.0371H16.7168C17.0887 19.0371 17.3906 19.339 17.3906 19.7109V23.0801H20.7598C21.1317 23.0801 21.4336 22.7782 21.4336 22.4062C21.4336 19.29 19.0712 16.7151 16.043 16.3791Z" fill="#407BFF"/>
    </g>
    <defs>
        <clipPath id="clip0">
            <rect width="23" height="23" fill="white" transform="translate(0.5 0.0800781)"/>
        </clipPath>
    </defs>
</svg>
