<svg width="24" height="24" viewBox="0 0 24 24" fill="none" xmlns="http://www.w3.org/2000/svg">
    <path d="M8.04688 21.4824C8.04688 21.673 8.1226 21.8559 8.25739 21.9907C8.39218 22.1254 8.575 22.2012 8.76562 22.2012C8.95625 22.2012 9.13907 22.1254 9.27386 21.9907C9.40865 21.8559 9.48438 21.673 9.48438 21.4824C9.48438 21.0871 8.76562 20.0449 8.76562 20.0449C8.76562 20.0449 8.04688 21.0871 8.04688 21.4824Z" fill="#407BFF"/>
    <path d="M18.8281 1.7168H18.1094C17.9109 1.7168 17.75 1.87769 17.75 2.07617V5.66992C17.75 5.8684 17.9109 6.0293 18.1094 6.0293H18.8281C19.0266 6.0293 19.1875 5.8684 19.1875 5.66992V2.07617C19.1875 1.87769 19.0266 1.7168 18.8281 1.7168Z" fill="#407BFF"/>
    <path d="M19.9062 2.43555H22.0625V5.31055H19.9062V2.43555Z" fill="#407BFF"/>
    <path d="M13.4375 11.7793H10.5625V12.8574C10.5625 13.5246 10.2975 14.1645 9.82569 14.6362C9.35392 15.108 8.71406 15.373 8.04688 15.373C7.37969 15.373 6.73983 15.108 6.26806 14.6362C5.79629 14.1645 5.53125 13.5246 5.53125 12.8574V11.7793H2.65625V12.8574C2.65904 14.2235 3.17985 15.5377 4.11361 16.5348C5.04736 17.5319 6.32456 18.1377 7.6875 18.2301V17.8887C7.68821 17.7934 7.72552 17.702 7.79172 17.6335L7.89953 17.5293L7.07297 16.7063L7.58328 16.196L8.40625 17.0226L9.94797 15.4773L10.4583 15.9876L9.99109 16.4512L10.4583 16.9148L9.94797 17.4251L9.48438 16.9579L8.40625 18.036V18.2301C9.76919 18.1377 11.0464 17.5319 11.9801 16.5348C12.9139 15.5377 13.4347 14.2235 13.4375 12.8574V11.7793Z" fill="#407BFF"/>
    <path d="M2.65625 1.7168H5.53125V8.9043H2.65625V1.7168Z" fill="#407BFF"/>
    <path d="M13.7969 9.62305H10.2031C10.0046 9.62305 9.84375 9.78394 9.84375 9.98242V10.7012C9.84375 10.8996 10.0046 11.0605 10.2031 11.0605H13.7969C13.9954 11.0605 14.1562 10.8996 14.1562 10.7012V9.98242C14.1562 9.78394 13.9954 9.62305 13.7969 9.62305Z" fill="#407BFF"/>
    <path d="M5.89062 9.62305H2.29688C2.0984 9.62305 1.9375 9.78394 1.9375 9.98242V10.7012C1.9375 10.8996 2.0984 11.0605 2.29688 11.0605H5.89062C6.0891 11.0605 6.25 10.8996 6.25 10.7012V9.98242C6.25 9.78394 6.0891 9.62305 5.89062 9.62305Z" fill="#407BFF"/>
    <path d="M17.0312 5.31055V2.43555H15.9531C14.524 2.43726 13.1538 3.00575 12.1433 4.01632C11.1327 5.02688 10.5642 6.39701 10.5625 7.82617V8.9043H13.4375V7.82617C13.4383 7.15922 13.7035 6.5198 14.1751 6.0482C14.6468 5.57659 15.2862 5.31131 15.9531 5.31055H17.0312Z" fill="#407BFF"/>
</svg>
