<svg width="24" height="24" viewBox="0 0 24 24" fill="none" xmlns="http://www.w3.org/2000/svg">
    <g clip-path="url(#clip0)">
        <path d="M21.4874 13.542V14.8457C21.4874 15.2695 21.1439 15.613 20.7201 15.613H16.932C16.5082 15.613 16.1647 15.2695 16.1647 14.8457V13.542C16.1647 13.1703 16.4289 12.8607 16.7797 12.79V11.3224C16.7797 11.0605 16.5666 10.8474 16.3047 10.8474H16.1488C15.4431 12.1177 14.1121 12.9131 12.6273 12.9131C11.1425 12.9131 9.81156 12.1177 9.10578 10.8474H3.27995C2.85612 10.8474 2.5127 10.504 2.5127 10.0801V7.54654C2.5127 7.12271 2.85612 6.77928 3.27995 6.77928H9.18466C9.67038 5.9843 10.4144 5.38952 11.2769 5.08191V4.12908C11.2769 4.07649 11.2822 4.02524 11.2924 3.97562H9.23274C8.80891 3.97562 8.46548 3.6322 8.46548 3.20837V2.10966C8.46548 1.68582 8.80891 1.3424 9.23274 1.3424H11.2768V1.24675C11.2768 0.822916 11.6202 0.479492 12.0441 0.479492H13.2103C13.6341 0.479492 13.9776 0.822916 13.9776 1.24675V1.3424H16.0217C16.4456 1.3424 16.789 1.68582 16.789 2.10966V3.20837C16.789 3.6322 16.4456 3.97562 16.0217 3.97562H13.9621C13.9721 4.02524 13.9776 4.07649 13.9776 4.12908V5.08191C14.8401 5.38952 15.5841 5.9842 16.0698 6.77928H17.5468C19.3534 6.77928 20.8231 8.24894 20.8231 10.0555V12.7824C21.1982 12.8328 21.4874 13.1532 21.4874 13.542ZM20.6891 20.9095C20.6799 20.8634 20.6666 20.8187 20.6495 20.776L19.5089 17.1422C19.4086 16.8223 19.112 16.6047 18.7769 16.6047C18.4418 16.6047 18.1452 16.8223 18.0449 17.1422L16.8873 20.8302C16.8815 20.8486 16.8765 20.8671 16.8722 20.8858C16.8108 21.0803 16.7799 21.2805 16.7799 21.4823C16.7799 22.5835 17.6758 23.4794 18.777 23.4794C19.8782 23.4794 20.7741 22.5834 20.7741 21.4823C20.774 21.2888 20.7454 21.0967 20.6891 20.9095Z" fill="#407BFF"/>
    </g>
    <defs>
        <clipPath id="clip0">
            <rect width="23" height="23" fill="white" transform="translate(0.5 0.479492)"/>
        </clipPath>
    </defs>
</svg>
