<svg width="20" height="21" viewBox="0 0 20 21" fill="none" xmlns="http://www.w3.org/2000/svg">
<g clip-path="url(#clip0)">
<path d="M19.7687 13.1257L19.6687 12.8169L17.7617 12.3393C17.7734 12.1662 17.7788 11.9926 17.7788 11.8173C17.7788 9.59375 16.8237 7.47232 15.1587 5.9968L14.3817 6.87342C15.7964 8.12677 16.6074 9.92884 16.6074 11.8173C16.6074 11.8949 16.6063 11.9723 16.6031 12.0492L15.3648 11.7391C15.3473 10.5236 14.9147 9.3432 14.1412 8.40601L13.2376 9.15186C13.7749 9.80234 14.1017 10.6043 14.1775 11.4419L12.9155 11.126C12.7792 10.5505 12.4757 10.0385 12.0595 9.64456L13.9783 2.95068L13.7613 2.70975C12.8311 1.67612 11.4613 1.08301 10.0037 1.08301C8.54599 1.08301 7.17667 1.67612 6.24649 2.70975L6.02936 2.95068L6.57029 4.8382C6.14579 5.04785 5.73807 5.29779 5.35157 5.5871C4.04542 6.56366 3.06062 7.95542 2.57844 9.50525L3.69706 9.85315C4.22928 8.14127 5.39795 6.77576 6.89789 5.98108L7.25159 7.21582C6.79077 7.49155 6.36917 7.83701 6.00449 8.24518L6.8779 9.02567C7.09183 8.78626 7.33094 8.57431 7.58896 8.39304L7.94785 9.64502C7.53388 10.037 7.2313 10.5457 7.09427 11.1178L5.831 11.4306C5.87433 10.9469 6.00052 10.4806 6.20789 10.0393L5.14725 9.54157C4.82483 10.2287 4.655 10.9628 4.64249 11.7246L0.336314 12.7906L0.235453 13.0992C-0.197133 14.4209 -0.028371 15.9036 0.698252 17.1675C1.42487 18.431 2.62132 19.3229 3.98102 19.6142L4.29841 19.6821L5.66712 18.2707C6.94199 19.1281 8.44956 19.5919 10.0037 19.5919C10.5402 19.5919 11.0759 19.5373 11.5964 19.4288L11.3574 18.282C10.9154 18.3741 10.4602 18.4205 10.0037 18.4205C8.72681 18.4205 7.52213 18.052 6.50071 17.4104L7.38709 16.4962C8.16147 16.9312 9.05411 17.1792 10.0037 17.1792V16.0078C9.37347 16.0078 8.77564 15.868 8.23914 15.6173L9.14429 14.6833C9.41635 14.7653 9.7049 14.8094 10.0037 14.8094C10.2997 14.8094 10.5855 14.7665 10.8557 14.6856L15.6879 19.6974L16.0052 19.6302C17.3657 19.3429 18.5649 18.4541 19.2947 17.1925C20.0249 15.9309 20.1974 14.4486 19.7687 13.1257ZM11.9264 14.1081C12.4524 13.6662 12.8249 13.0468 12.9501 12.3423L18.7382 13.7914C18.9494 14.7192 18.7886 15.7282 18.2809 16.6059C17.773 17.4835 16.9788 18.1257 16.0689 18.4049L11.9264 14.1081ZM7.33872 3.26822C8.03604 2.62079 8.99002 2.25443 10.0037 2.25443C11.0178 2.25443 11.9717 2.62079 12.6686 3.26822L11.0248 9.00431C10.7062 8.88788 10.3621 8.82456 10.0037 8.82456C9.64523 8.82456 9.30115 8.88788 8.98254 9.00431L7.33872 3.26822ZM3.9209 18.3885C3.01179 18.1069 2.21909 17.4623 1.71388 16.5833C1.20866 15.7044 1.05012 14.6951 1.26405 13.7679L7.05643 12.3342C7.17972 13.0393 7.55036 13.6599 8.07556 14.103L3.9209 18.3885ZM8.18283 11.8173C8.18283 10.8129 8.99979 9.99598 10.0037 9.99598C11.008 9.99598 11.8248 10.8129 11.8248 11.8173C11.8248 12.8211 11.008 13.6379 10.0037 13.6379C8.99979 13.6381 8.18283 12.8211 8.18283 11.8173Z" fill="#407BFF"/>
<path d="M7.33872 3.26822C8.03604 2.62079 8.99002 2.25443 10.0037 2.25443C11.0178 2.25443 11.9717 2.62079 12.6686 3.26822L11.0248 9.00431C10.7062 8.88788 10.3621 8.82456 10.0037 8.82456C9.64523 8.82456 9.30115 8.88788 8.98254 9.00431L7.33872 3.26822Z" fill="#407BFF"/>
<path d="M11.9264 14.1081C12.4524 13.6662 12.8249 13.0468 12.9501 12.3423L18.7382 13.7914C18.9494 14.7192 18.7886 15.7282 18.2809 16.6059C17.773 17.4835 16.9788 18.1257 16.0689 18.4049L11.9264 14.1081Z" fill="#407BFF"/>
<path d="M3.9209 18.3885C3.01179 18.1069 2.21909 17.4623 1.71388 16.5833C1.20866 15.7044 1.05012 14.6951 1.26405 13.7679L7.05643 12.3342C7.17972 13.0393 7.55036 13.6599 8.07556 14.103L3.9209 18.3885Z" fill="#407BFF"/>
</g>
<defs>
<clipPath id="clip0">
<rect width="20" height="20" fill="white" transform="translate(0 0.379883)"/>
</clipPath>
</defs>
</svg>
