<svg width="16" height="16" viewBox="0 0 16 16" fill="none" xmlns="http://www.w3.org/2000/svg">
<path d="M3.54578 5.07031H0.191406V15.3828H3.54578V5.07031Z" fill="white"/>
<path d="M12.6827 5.19125C12.647 5.18 12.6133 5.16781 12.5758 5.1575C12.5308 5.14719 12.4858 5.13875 12.4398 5.13125C12.2617 5.09563 12.0667 5.07031 11.838 5.07031C9.88234 5.07031 8.64203 6.4925 8.23328 7.04188V5.07031H4.87891V15.3828H8.23328V9.75781C8.23328 9.75781 10.7683 6.22719 11.838 8.82031C11.838 11.135 11.838 15.3828 11.838 15.3828H15.1914V8.42375C15.1914 6.86562 14.1236 5.56719 12.6827 5.19125Z" fill="white"/>
<path d="M1.83203 3.66406C2.73812 3.66406 3.47266 2.92953 3.47266 2.02344C3.47266 1.11735 2.73812 0.382812 1.83203 0.382812C0.925939 0.382812 0.191406 1.11735 0.191406 2.02344C0.191406 2.92953 0.925939 3.66406 1.83203 3.66406Z" fill="white"/>
</svg>
