<svg width="151" height="19" viewBox="0 0 151 19" fill="none" xmlns="http://www.w3.org/2000/svg">
<g clip-path="url(#clip0)">
<path d="M73.4545 10.2743C75.0531 10.1105 76.1982 9.36855 76.8441 8.05168C77.3726 6.97892 78.1882 5.24131 78.1947 5.22203C79.0038 3.57756 78.7558 2.57225 78.4035 2.01018C77.875 1.1783 76.8408 0.882812 76.0546 0.882812H68.0455L59.7559 18.2269H63.9186L67.0929 11.4145H69.3244C69.5106 11.4255 69.692 11.477 69.8556 11.5653C70.0192 11.6536 70.1609 11.7765 70.2704 11.9252C70.538 12.362 70.4662 13.0301 70.0453 13.9101C69.0405 16.0332 68.2413 18.2333 68.2413 18.2333H72.4628C72.5796 17.6598 72.7511 17.0985 72.9749 16.5567C73.3012 15.7987 74.2799 13.4026 74.2799 13.3802C75.0857 11.437 74.0874 10.6597 73.4545 10.2743ZM73.0141 7.41252C72.6618 8.14483 72.1202 8.5174 71.3992 8.5174H68.4957L70.6978 3.79597H73.8754C73.9595 3.79983 74.0418 3.82199 74.1163 3.86086C74.1907 3.89974 74.2555 3.95435 74.306 4.0208C74.4332 4.22636 74.3876 4.57003 74.1755 5.01648L73.448 6.51963L73.0141 7.41252Z" fill="#4B94DF"/>
<path d="M29.019 10.2744C30.6175 10.1074 31.7561 9.36546 32.4086 8.0486C32.9371 6.97584 33.7527 5.23822 33.7625 5.21895C34.5715 3.57448 34.3236 2.56917 33.9713 2.00709C33.4428 1.18807 32.4086 0.892578 31.6191 0.892578H23.6002L15.3105 18.2366H19.4831L22.6574 11.4243H24.8921C25.0783 11.4353 25.2598 11.4868 25.4233 11.5751C25.5869 11.6634 25.7286 11.7863 25.8382 11.9349C26.109 12.3718 26.0339 13.0398 25.6131 13.9199C24.6083 16.0429 23.809 18.243 23.809 18.243H28.0305C28.1458 17.6696 28.3162 17.1082 28.5394 16.5665C28.8657 15.8085 29.8444 13.4124 29.8444 13.3899C30.6534 11.4371 29.6519 10.6598 29.019 10.2744ZM28.5786 7.40944C28.2262 8.14496 27.6847 8.50147 26.967 8.50147H24.0635L26.3275 3.78004H29.4398C29.524 3.7839 29.6063 3.80606 29.6807 3.84493C29.7552 3.88381 29.82 3.93843 29.8705 4.00487C29.9977 4.21043 29.952 4.5541 29.74 5.00055L29.0125 6.5037L28.5786 7.40944Z" fill="#4B94DF"/>
<path d="M48.5721 5.20606C50.0303 2.1291 48.3796 0.792969 46.2786 0.792969H41.222C39.0949 0.792969 37.5942 1.78222 36.6286 3.81533C36.1098 4.90736 35.2453 6.706 34.2438 8.75838L32.1298 13.1458C30.006 17.546 33.1835 18.2848 34.7397 18.2848H37.9335C41.1339 18.3169 42.7096 17.4272 43.946 14.8898C44.7747 13.194 45.923 10.7722 47.1431 8.20594L48.5721 5.20606ZM44.4191 4.71786L40.178 13.6115C39.5875 14.8384 39.1993 15.0472 38.2826 15.0472H36.4491C36.1229 15.0472 35.4704 14.9605 35.9598 13.9102C36.671 12.4006 39.6528 6.07327 40.2628 4.80137C40.6771 3.93417 41.1078 3.76073 41.6689 3.76073H43.9526C44.3865 3.74146 44.7747 3.97592 44.4191 4.71786Z" fill="#4B94DF"/>
<path d="M55.504 8.60722L54.1207 11.4979H56.313L55.0799 14.122C54.721 14.8832 54.4763 15.0374 53.6314 15.0374H51.4521C50.7996 15.0374 50.5713 14.7162 50.9627 13.9004C51.4586 12.8661 55.3735 4.81723 55.3735 4.81723C55.8171 3.90185 56.0814 3.76374 56.7665 3.76374H59.0175C59.5623 3.76374 59.8559 4.01105 59.4906 4.7273C59.409 4.88468 58.5118 6.815 58.5118 6.815L62.4821 6.84391L63.3858 4.93286C64.7071 2.13854 63.5261 0.83131 60.7922 0.792768H56.4794C55.4521 0.766356 54.4398 1.03907 53.5692 1.57672C52.6987 2.11437 52.0088 2.89304 51.5859 3.81513C50.7996 5.46281 47.0903 13.1456 47.0903 13.1456C45.7332 15.956 46.5194 18.2846 50.232 18.2846H53.5465C56.1956 18.3103 57.4973 17.9023 58.7076 15.2943L61.797 8.62971L55.504 8.60722Z" fill="#4B94DF"/>
<path d="M115.349 0.837769L107.05 18.2075H111.327L119.678 0.837769H115.349Z" fill="#4B94DF"/>
<path d="M130.281 0.841187L120.595 16.1425L125.495 0.841187H121.009L116.898 18.2077H122.686L134.779 0.841187H130.281Z" fill="#4B94DF"/>
<path d="M97.1531 12.1821L96.7942 5.75834C96.7518 4.98428 96.9443 3.934 98.383 3.934H101.273L102.758 0.837769H97.8316C93.9168 0.837769 92.6118 3.18564 92.7521 5.94463C92.8435 7.63085 93.0784 13.1167 93.0784 13.1167C93.1371 14.44 92.6216 15.0438 91.3656 15.0438H88.0706L86.5928 18.1947H91.8452C95.3294 18.2139 97.3814 15.9753 97.1531 12.1821Z" fill="#4B94DF"/>
<path d="M106.643 5.76481C106.601 4.99075 106.793 3.94047 108.232 3.94047H111.122L112.607 0.844238H107.68C104.444 0.844238 102.415 2.58507 102.601 5.9511C102.695 7.63732 102.927 13.1232 102.927 13.1232C102.989 14.4465 102.474 15.0503 101.214 15.0503H98.0042L96.5264 18.2011H101.694C105.524 18.2011 107.201 15.5032 106.999 12.1693L106.643 5.76481Z" fill="#4B94DF"/>
<path d="M82.4628 10.4447H87.8164L89.1898 7.554H83.8167L85.5262 3.95029H91.0722L92.5272 0.870117H82.8641L74.6201 18.2142H85.0597L86.5636 15.0697H80.2314L82.4628 10.4447Z" fill="#4B94DF"/>
<path d="M127.958 18.2108H138.398L139.915 15.0696H133.569L135.801 10.4445H141.154L142.528 7.55387H137.155L138.864 3.95017H144.41L145.862 0.869995H136.202L127.958 18.2108Z" fill="#4B94DF"/>
<path d="M17.6318 9.1856C17.9809 8.47578 18.6725 7.00475 19.4587 5.29604C20.8387 2.28974 19.1325 0.899002 17.3219 0.892578H9.40084L1.17969 18.2623H5.45338L8.32426 12.1791C8.32426 12.1791 10.7384 12.1791 12.487 12.1791C15.1524 12.1983 16.5454 11.3921 17.6318 9.1856ZM15.4264 5.15793C14.6565 6.76386 14.0693 7.96509 14.004 8.09678C13.6582 8.82266 13.1623 9.14385 12.4153 9.14385H9.7336L12.2685 3.73829H14.9566C15.5471 3.7415 15.968 4.03378 15.4264 5.15793Z" fill="#4B94DF"/>
<path d="M149.319 2.04884C149.322 1.9816 149.307 1.9148 149.275 1.85507C149.244 1.79534 149.197 1.74477 149.139 1.70838C149.018 1.64804 148.883 1.62139 148.747 1.63129H148.049V3.21153H148.245V2.48244H148.604L149.064 3.21153H149.296L148.813 2.48244C149.097 2.47601 149.319 2.36039 149.319 2.04884ZM148.552 2.33148H148.251V1.75656H148.712C148.911 1.75656 149.129 1.78546 149.129 2.02956C149.12 2.36681 148.77 2.33148 148.552 2.33148Z" fill="#4B94DF"/>
<path d="M148.581 1.0083C148.297 1.00767 148.019 1.09009 147.783 1.24514C147.546 1.40018 147.362 1.62086 147.252 1.87922C147.143 2.13758 147.115 2.422 147.17 2.69644C147.225 2.97087 147.362 3.22298 147.563 3.42081C147.764 3.61865 148.02 3.75331 148.299 3.80774C148.578 3.86217 148.866 3.83391 149.129 3.72655C149.391 3.61919 149.615 3.43755 149.773 3.20466C149.93 2.97177 150.014 2.69809 150.013 2.41831C150.013 2.04461 149.861 1.68647 149.593 1.42222C149.325 1.15798 148.961 1.00915 148.581 1.0083ZM148.581 3.66451C148.332 3.66261 148.089 3.5881 147.883 3.45036C147.676 3.31263 147.516 3.11784 147.422 2.89056C147.328 2.66327 147.304 2.41365 147.354 2.17317C147.404 1.9327 147.525 1.71212 147.702 1.53925C147.879 1.36637 148.104 1.24894 148.348 1.20176C148.593 1.15457 148.846 1.17975 149.076 1.2741C149.307 1.36846 149.503 1.52777 149.641 1.73197C149.78 1.93616 149.854 2.17609 149.854 2.42152C149.854 2.58584 149.821 2.74861 149.757 2.90042C149.694 3.05223 149.6 3.19006 149.482 3.30595C149.363 3.42184 149.223 3.51349 149.068 3.57559C148.914 3.63768 148.748 3.669 148.581 3.66772V3.66451Z" fill="#4B94DF"/>
</g>
<defs>
<clipPath id="clip0">
<rect width="149.893" height="17.4757" fill="white" transform="translate(0.649414 0.792969)"/>
</clipPath>
</defs>
</svg>
