<svg width="79" height="79" viewBox="0 0 79 79" fill="none" xmlns="http://www.w3.org/2000/svg">
<g clip-path="url(#clip0)">
<path d="M45.209 68.7471H33.791V74.2228H20.249V78.7931H58.751V74.2228H45.209V68.7471Z" fill="#407BFF"/>
<path d="M0 57.0366H79V64.1765H0V57.0366Z" fill="#407BFF"/>
<path d="M59.8259 30.4661L56.6922 28.1923V20.021H22.3084V28.1923L19.1748 30.4661V32.5567H59.8259V30.4661Z" fill="#407BFF"/>
<path d="M39.468 0.792996C30.7834 0.808382 23.6108 7.18199 22.4678 15.4506H56.5094C55.293 7.23257 48.0956 0.777761 39.468 0.792996Z" fill="#407BFF"/>
<path d="M36.3248 42.8449C37.1847 43.5548 38.2918 43.9824 39.5002 43.9824C40.7087 43.9824 41.8157 43.5546 42.6756 42.8449C43.7627 41.9476 44.4545 40.5992 44.4545 39.0908V37.127H34.5459V39.0908C34.5459 40.5992 35.2378 41.9476 36.3248 42.8449Z" fill="#407BFF"/>
<path d="M60.778 13.1242C61.1388 14.688 61.3208 16.2887 61.3208 17.9126V25.8792L64.4546 28.153V37.127H49.0834V39.0909C49.0834 44.3082 44.7844 48.5528 39.5002 48.5528C34.216 48.5528 29.9169 44.3082 29.9169 39.0909V37.127H14.5456V28.153L17.6793 25.8792V17.7672C17.6793 16.1866 17.8517 14.6322 18.1854 13.124H0V52.4665H79V13.1242H60.778Z" fill="#407BFF"/>
</g>
<defs>
<clipPath id="clip0">
<rect width="79" height="78" fill="white" transform="translate(0 0.792969)"/>
</clipPath>
</defs>
</svg>
