<svg width="219" height="68" viewBox="0 0 219 68" fill="none" xmlns="http://www.w3.org/2000/svg">
    <rect x="0.509766" y="0.418457" width="218" height="67" rx="10" fill="white"/>
    <path opacity="0.8" d="M49.7412 25.4185H47.8174L44.7119 20.0181H44.668C44.7298 20.9718 44.7607 21.6522 44.7607 22.0591V25.4185H43.4082V18.2798H45.3174L48.418 23.6265H48.4521C48.4033 22.6987 48.3789 22.0428 48.3789 21.6587V18.2798H49.7412V25.4185ZM55.6543 25.4185H51.543V18.2798H55.6543V19.52H53.0566V21.0874H55.4736V22.3276H53.0566V24.1685H55.6543V25.4185ZM64.1016 25.4185H62.3779L61.4111 21.6685C61.3753 21.535 61.3135 21.2599 61.2256 20.8433C61.141 20.4233 61.0921 20.1418 61.0791 19.9985C61.0596 20.1743 61.0107 20.4575 60.9326 20.8481C60.8545 21.2355 60.7943 21.5122 60.752 21.6782L59.79 25.4185H58.0713L56.25 18.2798H57.7393L58.6523 22.1763C58.8118 22.8957 58.9274 23.519 58.999 24.0464C59.0186 23.8608 59.0625 23.5744 59.1309 23.187C59.2025 22.7964 59.2692 22.4937 59.3311 22.2788L60.3711 18.2798H61.8018L62.8418 22.2788C62.8874 22.4578 62.9443 22.7313 63.0127 23.0991C63.0811 23.467 63.1331 23.7827 63.1689 24.0464C63.2015 23.7925 63.2536 23.4767 63.3252 23.0991C63.3968 22.7183 63.4619 22.4106 63.5205 22.1763L64.4287 18.2798H65.918L64.1016 25.4185ZM72.4463 19.437C71.8766 19.437 71.4355 19.6519 71.123 20.0815C70.8105 20.508 70.6543 21.1037 70.6543 21.8687C70.6543 23.4604 71.2516 24.2563 72.4463 24.2563C72.9476 24.2563 73.5547 24.131 74.2676 23.8804V25.1499C73.6816 25.394 73.0273 25.5161 72.3047 25.5161C71.2663 25.5161 70.472 25.202 69.9219 24.5737C69.3717 23.9422 69.0967 23.0373 69.0967 21.8589C69.0967 21.1167 69.2318 20.4673 69.502 19.9106C69.7721 19.3507 70.1595 18.9227 70.6641 18.6265C71.1719 18.327 71.766 18.1772 72.4463 18.1772C73.1396 18.1772 73.8363 18.3449 74.5361 18.6802L74.0479 19.9106C73.7809 19.7837 73.5124 19.673 73.2422 19.5786C72.972 19.4842 72.7067 19.437 72.4463 19.437ZM81.6016 18.2798V22.8989C81.6016 23.4263 81.4827 23.8885 81.2451 24.2856C81.0107 24.6828 80.6706 24.9871 80.2246 25.1987C79.7786 25.4103 79.2513 25.5161 78.6426 25.5161C77.7246 25.5161 77.0117 25.2817 76.5039 24.813C75.9961 24.341 75.7422 23.6965 75.7422 22.8794V18.2798H77.251V22.6499C77.251 23.2 77.3617 23.6037 77.583 23.8608C77.8044 24.118 78.1706 24.2466 78.6816 24.2466C79.1764 24.2466 79.5345 24.118 79.7559 23.8608C79.9805 23.6004 80.0928 23.1935 80.0928 22.6401V18.2798H81.6016ZM87.5635 23.436C87.5635 24.0806 87.3307 24.5884 86.8652 24.9595C86.403 25.3306 85.7585 25.5161 84.9316 25.5161C84.1699 25.5161 83.4961 25.3729 82.9102 25.0864V23.6802C83.3919 23.895 83.7988 24.0464 84.1309 24.1343C84.4661 24.2222 84.7721 24.2661 85.0488 24.2661C85.3809 24.2661 85.6348 24.2026 85.8105 24.0757C85.9896 23.9487 86.0791 23.7599 86.0791 23.5093C86.0791 23.3693 86.04 23.2456 85.9619 23.1382C85.8838 23.0275 85.7682 22.9217 85.6152 22.8208C85.4655 22.7199 85.1579 22.5588 84.6924 22.3374C84.2562 22.1323 83.929 21.9354 83.7109 21.7466C83.4928 21.5578 83.3187 21.3381 83.1885 21.0874C83.0583 20.8368 82.9932 20.5438 82.9932 20.2085C82.9932 19.577 83.2064 19.0806 83.6328 18.7192C84.0625 18.3579 84.6549 18.1772 85.4102 18.1772C85.7812 18.1772 86.1344 18.2212 86.4697 18.3091C86.8083 18.397 87.1615 18.5207 87.5293 18.6802L87.041 19.8569C86.6602 19.7007 86.3444 19.5916 86.0938 19.5298C85.8464 19.4679 85.6022 19.437 85.3613 19.437C85.0749 19.437 84.8551 19.5037 84.7021 19.6372C84.5492 19.7707 84.4727 19.9448 84.4727 20.1597C84.4727 20.2931 84.5036 20.4103 84.5654 20.5112C84.6273 20.6089 84.7249 20.7049 84.8584 20.7993C84.9951 20.8905 85.3158 21.0565 85.8203 21.2974C86.4876 21.6164 86.945 21.937 87.1924 22.2593C87.4398 22.5783 87.5635 22.9705 87.5635 23.436ZM91.6113 25.4185H90.0977V19.5396H88.1592V18.2798H93.5498V19.5396H91.6113V25.4185ZM101.128 21.8394C101.128 23.021 100.835 23.9292 100.249 24.564C99.6631 25.1987 98.8232 25.5161 97.7295 25.5161C96.6357 25.5161 95.7959 25.1987 95.21 24.564C94.624 23.9292 94.3311 23.0177 94.3311 21.8296C94.3311 20.6414 94.624 19.7349 95.21 19.1099C95.7992 18.4816 96.6423 18.1675 97.7393 18.1675C98.8363 18.1675 99.6745 18.4832 100.254 19.1147C100.837 19.7463 101.128 20.6545 101.128 21.8394ZM95.918 21.8394C95.918 22.6369 96.0693 23.2375 96.3721 23.6411C96.6748 24.0448 97.1273 24.2466 97.7295 24.2466C98.9372 24.2466 99.541 23.4442 99.541 21.8394C99.541 20.2313 98.9404 19.4272 97.7393 19.4272C97.137 19.4272 96.6829 19.6307 96.377 20.0376C96.071 20.4412 95.918 21.0418 95.918 21.8394ZM105.63 25.4185L103.911 19.8179H103.867C103.929 20.9572 103.96 21.7173 103.96 22.0981V25.4185H102.607V18.2798H104.668L106.357 23.7388H106.387L108.179 18.2798H110.239V25.4185H108.828V22.0396C108.828 21.88 108.83 21.6961 108.833 21.4878C108.84 21.2795 108.862 20.7261 108.901 19.8276H108.857L107.017 25.4185H105.63ZM116.152 25.4185H112.041V18.2798H116.152V19.52H113.555V21.0874H115.972V22.3276H113.555V24.1685H116.152V25.4185ZM119.16 21.4487H119.648C120.127 21.4487 120.48 21.369 120.708 21.2095C120.936 21.05 121.05 20.7993 121.05 20.4575C121.05 20.119 120.933 19.8781 120.698 19.7349C120.467 19.5916 120.107 19.52 119.619 19.52H119.16V21.4487ZM119.16 22.6792V25.4185H117.646V18.2798H119.727C120.697 18.2798 121.414 18.4572 121.88 18.812C122.345 19.1636 122.578 19.6991 122.578 20.4185C122.578 20.8384 122.463 21.2127 122.231 21.5415C122 21.867 121.673 22.1226 121.25 22.3081C122.324 23.9129 123.024 24.9497 123.35 25.4185H121.67L119.966 22.6792H119.16ZM125.381 23.0503H124.189L123.94 18.2798H125.63L125.381 23.0503ZM123.921 24.7202C123.921 24.4468 123.994 24.2401 124.141 24.1001C124.287 23.9601 124.5 23.8901 124.78 23.8901C125.05 23.8901 125.259 23.9618 125.405 24.105C125.555 24.2482 125.63 24.4533 125.63 24.7202C125.63 24.9774 125.555 25.1808 125.405 25.3306C125.256 25.4771 125.047 25.5503 124.78 25.5503C124.507 25.5503 124.295 25.4787 124.146 25.3354C123.996 25.189 123.921 24.9839 123.921 24.7202Z" fill="#407BFF"/>
    <ellipse opacity="0.8" cx="24.5098" cy="21.9185" rx="9" ry="8.5" fill="#407BFF"/>
    <path opacity="0.8" d="M21.0742 46.2861C21.0742 46.9844 20.8218 47.5322 20.3169 47.9297C19.812 48.3271 19.1156 48.5259 18.2275 48.5259C17.3395 48.5259 16.6126 48.388 16.0469 48.1123V46.8984C16.4049 47.0667 16.7845 47.1992 17.1855 47.2959C17.5902 47.3926 17.9661 47.4409 18.3135 47.4409C18.8219 47.4409 19.1961 47.3442 19.436 47.1509C19.6795 46.9575 19.8013 46.6979 19.8013 46.3721C19.8013 46.0785 19.6903 45.8296 19.4683 45.6255C19.2463 45.4214 18.7879 45.1797 18.0933 44.9004C17.3771 44.6104 16.8722 44.2791 16.5786 43.9067C16.285 43.5343 16.1382 43.0868 16.1382 42.564C16.1382 41.9087 16.3709 41.3931 16.8364 41.0171C17.3019 40.6411 17.9268 40.4531 18.7109 40.4531C19.4629 40.4531 20.2113 40.6178 20.9561 40.9473L20.5479 41.9946C19.8496 41.701 19.2266 41.5542 18.6787 41.5542C18.2633 41.5542 17.9482 41.6455 17.7334 41.8281C17.5186 42.0072 17.4111 42.2453 17.4111 42.5425C17.4111 42.7466 17.4541 42.922 17.54 43.0688C17.626 43.2121 17.7674 43.3481 17.9644 43.4771C18.1613 43.606 18.5158 43.776 19.0278 43.9873C19.6043 44.2272 20.0269 44.451 20.2954 44.6587C20.564 44.8664 20.7609 45.1009 20.8862 45.3623C21.0116 45.6237 21.0742 45.9316 21.0742 46.2861ZM27.729 45.4375C27.729 46.4079 27.4801 47.1652 26.9824 47.7095C26.4847 48.2537 25.7918 48.5259 24.9038 48.5259C24.3488 48.5259 23.8582 48.4006 23.4321 48.1499C23.006 47.8993 22.6784 47.5394 22.4492 47.0703C22.2201 46.6012 22.1055 46.057 22.1055 45.4375C22.1055 44.4743 22.3525 43.7223 22.8467 43.1816C23.3408 42.641 24.0373 42.3706 24.936 42.3706C25.7954 42.3706 26.4757 42.6481 26.9771 43.2031C27.4784 43.7546 27.729 44.4993 27.729 45.4375ZM23.4053 45.4375C23.4053 46.8089 23.9119 47.4946 24.9253 47.4946C25.9279 47.4946 26.4292 46.8089 26.4292 45.4375C26.4292 44.0804 25.9243 43.4019 24.9146 43.4019C24.3846 43.4019 23.9997 43.5773 23.7598 43.9282C23.5234 44.2791 23.4053 44.7822 23.4053 45.4375ZM32.1978 48.5259C31.4458 48.5259 30.8621 48.2555 30.4468 47.7148H30.3716C30.4217 48.2161 30.4468 48.5205 30.4468 48.6279V51.061H29.1846V42.478H30.2051C30.2337 42.589 30.2928 42.854 30.3823 43.2729H30.4468C30.8407 42.6714 31.4315 42.3706 32.2192 42.3706C32.9604 42.3706 33.5369 42.6392 33.9487 43.1763C34.3641 43.7134 34.5718 44.4671 34.5718 45.4375C34.5718 46.4079 34.3605 47.1652 33.938 47.7095C33.519 48.2537 32.939 48.5259 32.1978 48.5259ZM31.8916 43.4019C31.3903 43.4019 31.0233 43.5487 30.7905 43.8423C30.5614 44.1359 30.4468 44.605 30.4468 45.2495V45.4375C30.4468 46.1608 30.5614 46.6854 30.7905 47.0112C31.0197 47.3335 31.3939 47.4946 31.9131 47.4946C32.3499 47.4946 32.6865 47.3156 32.9229 46.9575C33.1592 46.5994 33.2773 46.0892 33.2773 45.4268C33.2773 44.7607 33.1592 44.2576 32.9229 43.9175C32.6901 43.5737 32.3464 43.4019 31.8916 43.4019ZM41.2642 48.4185H39.9966V44.7661C39.9966 44.3078 39.9035 43.9658 39.7173 43.7402C39.5347 43.5146 39.2428 43.4019 38.8418 43.4019C38.3118 43.4019 37.9215 43.5612 37.6709 43.8799C37.4238 44.195 37.3003 44.7249 37.3003 45.4697V48.4185H36.0381V40.061H37.3003V42.1826C37.3003 42.5228 37.2788 42.8862 37.2358 43.2729H37.3164C37.4883 42.9865 37.7264 42.7645 38.0308 42.6069C38.3387 42.4494 38.6968 42.3706 39.105 42.3706C40.5444 42.3706 41.2642 43.0957 41.2642 44.5459V48.4185ZM44.2827 48.4185H43.0205V42.478H44.2827V48.4185ZM42.9453 40.9043C42.9453 40.6787 43.0062 40.505 43.1279 40.3833C43.2533 40.2616 43.4305 40.2007 43.6597 40.2007C43.8817 40.2007 44.0535 40.2616 44.1753 40.3833C44.3006 40.505 44.3633 40.6787 44.3633 40.9043C44.3633 41.1191 44.3006 41.2892 44.1753 41.4146C44.0535 41.5363 43.8817 41.5972 43.6597 41.5972C43.4305 41.5972 43.2533 41.5363 43.1279 41.4146C43.0062 41.2892 42.9453 41.1191 42.9453 40.9043ZM49.8096 48.4185L49.5571 47.5913H49.5142C49.2277 47.953 48.9395 48.2 48.6494 48.3325C48.3594 48.4614 47.987 48.5259 47.5322 48.5259C46.9486 48.5259 46.492 48.3683 46.1626 48.0532C45.8368 47.7381 45.6738 47.2923 45.6738 46.7158C45.6738 46.1035 45.9012 45.6416 46.356 45.3301C46.8107 45.0186 47.5036 44.8485 48.4346 44.8198L49.4604 44.7876V44.4707C49.4604 44.0911 49.3709 43.8083 49.1919 43.6221C49.0164 43.4323 48.7425 43.3374 48.3701 43.3374C48.0658 43.3374 47.7739 43.3822 47.4946 43.4717C47.2153 43.5612 46.9468 43.6668 46.689 43.7886L46.2808 42.8862C46.603 42.7179 46.9557 42.5908 47.3389 42.5049C47.722 42.4154 48.0837 42.3706 48.4238 42.3706C49.1794 42.3706 49.7487 42.5353 50.1318 42.8647C50.5186 43.1942 50.7119 43.7116 50.7119 44.417V48.4185H49.8096ZM47.9297 47.5591C48.388 47.5591 48.755 47.432 49.0308 47.1777C49.3101 46.9199 49.4497 46.5601 49.4497 46.0981V45.5825L48.687 45.6147C48.0926 45.6362 47.6593 45.7365 47.3872 45.9155C47.1187 46.091 46.9844 46.3613 46.9844 46.7266C46.9844 46.9915 47.0632 47.1974 47.2207 47.3442C47.3783 47.4875 47.6146 47.5591 47.9297 47.5591ZM53.7842 47.2637C53.6123 47.9297 53.2972 48.7873 52.8389 49.8364H51.9097C52.1567 48.8696 52.3411 47.9709 52.4629 47.1401H53.7036L53.7842 47.2637ZM61.5615 48.4185H60.2993V43.3481C60.2993 42.743 60.3136 42.2632 60.3423 41.9087C60.2599 41.9946 60.1579 42.0895 60.0361 42.1934C59.918 42.2972 59.5169 42.6266 58.833 43.1816L58.1992 42.3813L60.5088 40.5659H61.5615V48.4185ZM66.793 40.4639C67.5378 40.4639 68.1268 40.6357 68.5601 40.9795C68.9933 41.3197 69.21 41.7762 69.21 42.3491C69.21 43.1548 68.7266 43.7957 67.7598 44.272C68.3757 44.5799 68.8125 44.904 69.0703 45.2441C69.3317 45.5843 69.4624 45.9639 69.4624 46.3828C69.4624 47.0309 69.2243 47.5501 68.748 47.9404C68.2718 48.3307 67.6273 48.5259 66.8145 48.5259C65.9622 48.5259 65.3016 48.3433 64.8325 47.978C64.3634 47.6128 64.1289 47.0954 64.1289 46.4258C64.1289 45.9889 64.2507 45.5968 64.4941 45.2495C64.7412 44.8986 65.144 44.5871 65.7026 44.3149C65.2228 44.0285 64.8809 43.7259 64.6768 43.4072C64.4727 43.0885 64.3706 42.7305 64.3706 42.333C64.3706 41.7637 64.5944 41.3107 65.042 40.9741C65.4896 40.634 66.0732 40.4639 66.793 40.4639ZM65.3374 46.3828C65.3374 46.7552 65.4681 47.0452 65.7295 47.2529C65.9909 47.457 66.3454 47.5591 66.793 47.5591C67.2549 47.5591 67.613 47.4535 67.8672 47.2422C68.125 47.0273 68.2539 46.7373 68.2539 46.3721C68.2539 46.082 68.1357 45.8171 67.8994 45.5771C67.6631 45.3372 67.305 45.1152 66.8252 44.9111L66.6694 44.8413C66.1968 45.049 65.8566 45.2782 65.6489 45.5288C65.4412 45.7759 65.3374 46.0605 65.3374 46.3828ZM66.7822 41.436C66.4242 41.436 66.1359 41.5256 65.9175 41.7046C65.6991 41.88 65.5898 42.12 65.5898 42.4243C65.5898 42.6105 65.6292 42.777 65.708 42.9238C65.7868 43.0706 65.9014 43.2049 66.0518 43.3267C66.2021 43.4448 66.4564 43.5881 66.8145 43.7563C67.2441 43.5666 67.5467 43.3678 67.7222 43.1602C67.9012 42.9489 67.9907 42.7036 67.9907 42.4243C67.9907 42.12 67.8797 41.88 67.6577 41.7046C67.4393 41.5256 67.1475 41.436 66.7822 41.436ZM72.1533 47.2637C71.9814 47.9297 71.6663 48.7873 71.208 49.8364H70.2788C70.5259 48.8696 70.7103 47.9709 70.832 47.1401H72.0728L72.1533 47.2637ZM76.7778 48.4185V40.5659H78.0615V47.3174H81.3862V48.4185H76.7778ZM87.8745 45.4375C87.8745 46.4079 87.6257 47.1652 87.1279 47.7095C86.6302 48.2537 85.9373 48.5259 85.0493 48.5259C84.4943 48.5259 84.0037 48.4006 83.5776 48.1499C83.1515 47.8993 82.8239 47.5394 82.5947 47.0703C82.3656 46.6012 82.251 46.057 82.251 45.4375C82.251 44.4743 82.498 43.7223 82.9922 43.1816C83.4863 42.641 84.1828 42.3706 85.0815 42.3706C85.9409 42.3706 86.6213 42.6481 87.1226 43.2031C87.6239 43.7546 87.8745 44.4993 87.8745 45.4375ZM83.5508 45.4375C83.5508 46.8089 84.0575 47.4946 85.0708 47.4946C86.0734 47.4946 86.5747 46.8089 86.5747 45.4375C86.5747 44.0804 86.0698 43.4019 85.0601 43.4019C84.5301 43.4019 84.1452 43.5773 83.9053 43.9282C83.6689 44.2791 83.5508 44.7822 83.5508 45.4375ZM93.3208 46.7266C93.3208 47.3066 93.1095 47.7524 92.687 48.064C92.2645 48.3719 91.6593 48.5259 90.8716 48.5259C90.0802 48.5259 89.4447 48.4059 88.9648 48.166V47.0757C89.6631 47.3979 90.313 47.5591 90.9146 47.5591C91.6916 47.5591 92.0801 47.3245 92.0801 46.8555C92.0801 46.7051 92.0371 46.5798 91.9512 46.4795C91.8652 46.3792 91.7238 46.2754 91.5269 46.168C91.3299 46.0605 91.056 45.9388 90.7051 45.8027C90.0212 45.5378 89.5575 45.2728 89.314 45.0078C89.0741 44.7428 88.9541 44.3991 88.9541 43.9766C88.9541 43.4681 89.1582 43.0742 89.5664 42.7949C89.9782 42.512 90.5368 42.3706 91.2422 42.3706C91.9404 42.3706 92.6011 42.512 93.2241 42.7949L92.8159 43.7456C92.175 43.4806 91.6361 43.3481 91.1992 43.3481C90.5332 43.3481 90.2002 43.5379 90.2002 43.9175C90.2002 44.1037 90.2861 44.2612 90.458 44.3901C90.6335 44.519 91.013 44.6963 91.5967 44.9219C92.0872 45.1117 92.4435 45.2853 92.6655 45.4429C92.8875 45.6004 93.0522 45.783 93.1597 45.9907C93.2671 46.1948 93.3208 46.4401 93.3208 46.7266ZM102.554 48.4185L101.77 46.2378H98.7671L97.999 48.4185H96.6455L99.5835 40.5337H100.98L103.918 48.4185H102.554ZM101.431 45.1313L100.695 42.9937C100.642 42.8504 100.566 42.6248 100.47 42.3169C100.377 42.009 100.312 41.7834 100.276 41.6401C100.18 42.0806 100.038 42.5622 99.8521 43.085L99.1431 45.1313H101.431ZM110.046 48.4185H108.779V44.7661C108.779 44.3078 108.686 43.9658 108.5 43.7402C108.317 43.5146 108.025 43.4019 107.624 43.4019C107.09 43.4019 106.7 43.5594 106.453 43.8745C106.206 44.1896 106.083 44.7178 106.083 45.459V48.4185H104.82V42.478H105.809L105.986 43.2568H106.05C106.229 42.974 106.484 42.7555 106.813 42.6016C107.142 42.4476 107.508 42.3706 107.909 42.3706C109.334 42.3706 110.046 43.0957 110.046 44.5459V48.4185ZM116.819 42.478V43.1709L115.804 43.3589C115.897 43.4842 115.974 43.6382 116.035 43.8208C116.096 44.0034 116.126 44.1968 116.126 44.4009C116.126 45.0132 115.915 45.4948 115.493 45.8457C115.07 46.1966 114.488 46.3721 113.747 46.3721C113.557 46.3721 113.385 46.3577 113.231 46.3291C112.959 46.4974 112.823 46.6943 112.823 46.9199C112.823 47.056 112.886 47.158 113.011 47.2261C113.14 47.2941 113.375 47.3281 113.715 47.3281H114.751C115.407 47.3281 115.904 47.4678 116.245 47.7471C116.585 48.0264 116.755 48.4292 116.755 48.9556C116.755 49.6287 116.477 50.1479 115.922 50.5132C115.367 50.8784 114.565 51.061 113.516 51.061C112.707 51.061 112.089 50.9178 111.663 50.6313C111.237 50.3449 111.024 49.9367 111.024 49.4067C111.024 49.0415 111.139 48.7336 111.368 48.4829C111.6 48.2358 111.924 48.064 112.34 47.9673C112.172 47.8957 112.032 47.7811 111.921 47.6235C111.813 47.4624 111.76 47.2941 111.76 47.1187C111.76 46.8966 111.822 46.7087 111.948 46.5547C112.073 46.4007 112.259 46.2485 112.506 46.0981C112.198 45.9657 111.948 45.7508 111.754 45.4536C111.565 45.1528 111.47 44.8019 111.47 44.4009C111.47 43.7563 111.672 43.2568 112.077 42.9023C112.485 42.5479 113.065 42.3706 113.817 42.3706C113.985 42.3706 114.161 42.3831 114.343 42.4082C114.529 42.4297 114.669 42.453 114.762 42.478H116.819ZM112.152 49.3423C112.152 49.6144 112.274 49.8239 112.517 49.9707C112.764 50.1175 113.11 50.1909 113.554 50.1909C114.241 50.1909 114.753 50.0924 115.09 49.8955C115.426 49.6986 115.595 49.4372 115.595 49.1113C115.595 48.8535 115.502 48.6691 115.315 48.5581C115.133 48.4507 114.791 48.397 114.29 48.397H113.333C112.972 48.397 112.684 48.4811 112.469 48.6494C112.257 48.8213 112.152 49.0522 112.152 49.3423ZM112.694 44.4009C112.694 44.7733 112.789 45.0597 112.979 45.2603C113.172 45.4608 113.448 45.561 113.806 45.561C114.537 45.561 114.902 45.1707 114.902 44.3901C114.902 44.0034 114.811 43.7062 114.628 43.4985C114.449 43.2873 114.175 43.1816 113.806 43.1816C113.441 43.1816 113.163 43.2855 112.974 43.4932C112.787 43.7008 112.694 44.0034 112.694 44.4009ZM120.52 48.5259C119.596 48.5259 118.873 48.2573 118.35 47.7202C117.831 47.1795 117.571 46.4365 117.571 45.4912C117.571 44.5208 117.813 43.7581 118.296 43.2031C118.78 42.6481 119.444 42.3706 120.289 42.3706C121.073 42.3706 121.693 42.6087 122.147 43.085C122.602 43.5612 122.83 44.2165 122.83 45.0508V45.7329H118.871C118.889 46.3094 119.045 46.7534 119.338 47.0649C119.632 47.3729 120.046 47.5269 120.579 47.5269C120.93 47.5269 121.256 47.4946 121.557 47.4302C121.861 47.3621 122.187 47.2511 122.534 47.0972V48.123C122.226 48.2699 121.915 48.3737 121.6 48.4346C121.285 48.4954 120.925 48.5259 120.52 48.5259ZM120.289 43.3267C119.888 43.3267 119.566 43.4538 119.322 43.708C119.082 43.9622 118.939 44.3328 118.893 44.8198H121.589C121.582 44.3293 121.464 43.9587 121.234 43.708C121.005 43.4538 120.69 43.3267 120.289 43.3267ZM125.526 48.4185H124.264V40.061H125.526V48.4185ZM129.93 48.5259C129.006 48.5259 128.283 48.2573 127.76 47.7202C127.241 47.1795 126.981 46.4365 126.981 45.4912C126.981 44.5208 127.223 43.7581 127.707 43.2031C128.19 42.6481 128.854 42.3706 129.699 42.3706C130.483 42.3706 131.103 42.6087 131.558 43.085C132.012 43.5612 132.24 44.2165 132.24 45.0508V45.7329H128.281C128.299 46.3094 128.455 46.7534 128.749 47.0649C129.042 47.3729 129.456 47.5269 129.989 47.5269C130.34 47.5269 130.666 47.4946 130.967 47.4302C131.271 47.3621 131.597 47.2511 131.944 47.0972V48.123C131.636 48.2699 131.325 48.3737 131.01 48.4346C130.695 48.4954 130.335 48.5259 129.93 48.5259ZM129.699 43.3267C129.298 43.3267 128.976 43.4538 128.732 43.708C128.493 43.9622 128.349 44.3328 128.303 44.8198H130.999C130.992 44.3293 130.874 43.9587 130.645 43.708C130.415 43.4538 130.1 43.3267 129.699 43.3267ZM137.665 46.7266C137.665 47.3066 137.453 47.7524 137.031 48.064C136.608 48.3719 136.003 48.5259 135.215 48.5259C134.424 48.5259 133.788 48.4059 133.309 48.166V47.0757C134.007 47.3979 134.657 47.5591 135.258 47.5591C136.035 47.5591 136.424 47.3245 136.424 46.8555C136.424 46.7051 136.381 46.5798 136.295 46.4795C136.209 46.3792 136.068 46.2754 135.871 46.168C135.674 46.0605 135.4 45.9388 135.049 45.8027C134.365 45.5378 133.901 45.2728 133.658 45.0078C133.418 44.7428 133.298 44.3991 133.298 43.9766C133.298 43.4681 133.502 43.0742 133.91 42.7949C134.322 42.512 134.881 42.3706 135.586 42.3706C136.284 42.3706 136.945 42.512 137.568 42.7949L137.16 43.7456C136.519 43.4806 135.98 43.3481 135.543 43.3481C134.877 43.3481 134.544 43.5379 134.544 43.9175C134.544 44.1037 134.63 44.2612 134.802 44.3901C134.977 44.519 135.357 44.6963 135.94 44.9219C136.431 45.1117 136.787 45.2853 137.009 45.4429C137.231 45.6004 137.396 45.783 137.503 45.9907C137.611 46.1948 137.665 46.4401 137.665 46.7266Z" fill="black"/>
    <rect opacity="0.5" x="142.51" y="9.41846" width="70" height="20" rx="8" fill="#EBF1FF"/>
    <path d="M166.056 21.4552L164.996 21.4512L165.012 17.336L163.655 17.3307L163.658 16.4489L167.432 16.4634L167.428 17.3453L166.071 17.34L166.056 21.4552ZM170.247 17.5783C170.389 17.5788 170.506 17.5895 170.599 17.6104L170.517 18.5876C170.433 18.5645 170.33 18.5527 170.209 18.5522C169.877 18.551 169.617 18.6354 169.429 18.8056C169.244 18.9758 169.151 19.2147 169.149 19.5223L169.142 21.4671L168.1 21.4631L168.114 17.6418L168.904 17.6449L169.055 18.288L169.106 18.2882C169.226 18.0745 169.386 17.9031 169.587 17.774C169.79 17.6426 170.01 17.5774 170.247 17.5783ZM173.705 21.4847L173.505 20.9644L173.478 20.9643C173.302 21.1846 173.12 21.3377 172.933 21.4236C172.748 21.5072 172.506 21.5484 172.208 21.5473C171.841 21.5459 171.552 21.4399 171.341 21.2295C171.132 21.019 171.028 20.7201 171.03 20.3328C171.031 19.9272 171.174 19.6292 171.457 19.4389C171.743 19.2463 172.171 19.1409 172.743 19.1225L173.407 19.1046L173.407 18.9371C173.409 18.5497 173.211 18.3553 172.815 18.3538C172.509 18.3526 172.15 18.4435 171.737 18.6265L171.394 17.9211C171.835 17.6926 172.323 17.5794 172.859 17.5815C173.371 17.5834 173.764 17.6966 174.037 17.921C174.309 18.1453 174.445 18.4854 174.443 18.9411L174.433 21.4875L173.705 21.4847ZM173.404 19.713L173.001 19.7251C172.698 19.7331 172.472 19.7869 172.323 19.8866C172.175 19.9863 172.1 20.1386 172.099 20.3437C172.098 20.6377 172.266 20.7853 172.604 20.7866C172.845 20.7875 173.038 20.7187 173.182 20.5803C173.328 20.4419 173.402 20.2576 173.403 20.0274L173.404 19.713ZM179.037 21.5052L177.994 21.5012L178.003 19.2692C178.004 18.9935 177.956 18.7871 177.858 18.65C177.761 18.5107 177.605 18.4406 177.391 18.4397C177.099 18.4386 176.888 18.5358 176.758 18.7312C176.627 18.9244 176.561 19.2466 176.559 19.6978L176.552 21.4956L175.51 21.4916L175.524 17.6703L176.321 17.6734L176.459 18.1627L176.517 18.1629C176.634 17.9788 176.794 17.8404 176.997 17.7478C177.203 17.6529 177.435 17.6059 177.695 17.6069C178.139 17.6086 178.476 17.7307 178.705 17.9731C178.935 18.2133 179.048 18.56 179.047 19.0135L179.037 21.5052ZM182.781 20.3848C182.779 20.7767 182.641 21.0747 182.367 21.2787C182.095 21.4828 181.688 21.5837 181.146 21.5816C180.868 21.5806 180.631 21.5603 180.435 21.5208C180.239 21.4836 180.056 21.4282 179.885 21.3546L179.889 20.4933C180.082 20.5852 180.299 20.6624 180.54 20.7248C180.784 20.7873 180.998 20.8189 181.183 20.8196C181.561 20.821 181.75 20.7124 181.751 20.4936C181.752 20.4116 181.727 20.3454 181.677 20.2951C181.627 20.2425 181.541 20.1841 181.418 20.1198C181.295 20.0532 181.131 19.9763 180.926 19.8889C180.633 19.7647 180.417 19.65 180.278 19.5446C180.142 19.4393 180.042 19.3192 179.979 19.1846C179.918 19.0476 179.888 18.88 179.889 18.6818C179.89 18.3423 180.022 18.0807 180.285 17.8972C180.55 17.7113 180.924 17.6193 181.407 17.6212C181.867 17.623 182.315 17.7249 182.749 17.9271L182.432 18.6779C182.241 18.5951 182.062 18.5272 181.896 18.4742C181.73 18.4211 181.56 18.3943 181.387 18.3936C181.079 18.3924 180.925 18.475 180.924 18.6413C180.924 18.7347 180.973 18.8158 181.07 18.8846C181.17 18.9533 181.388 19.0555 181.722 19.1913C182.02 19.3132 182.239 19.4268 182.377 19.5322C182.516 19.6375 182.618 19.7587 182.683 19.8957C182.749 20.0326 182.781 20.1957 182.781 20.3848ZM185.714 18.4923L184.811 18.4888L184.8 21.5273L183.757 21.5233L183.769 18.4848L183.195 18.4826L183.197 17.9801L183.772 17.7021L183.773 17.4218C183.775 16.9866 183.883 16.6691 184.098 16.4694C184.313 16.2697 184.656 16.1708 185.128 16.1726C185.488 16.174 185.808 16.2288 186.088 16.3369L185.818 17.1015C185.609 17.0347 185.415 17.0009 185.237 17.0002C185.089 16.9996 184.982 17.0436 184.916 17.1322C184.849 17.2186 184.816 17.3301 184.815 17.4668L184.814 17.7061L185.717 17.7096L185.714 18.4923ZM187.898 18.3879C187.677 18.387 187.504 18.457 187.378 18.5978C187.252 18.7363 187.179 18.9343 187.16 19.1917L188.623 19.1973C188.619 18.9398 188.553 18.7413 188.424 18.6018C188.294 18.46 188.119 18.3887 187.898 18.3879ZM188.033 21.6081C187.417 21.6058 186.937 21.4342 186.592 21.0933C186.247 20.7525 186.076 20.271 186.078 19.6489C186.081 19.0087 186.242 18.5148 186.563 18.1674C186.885 17.8177 187.329 17.644 187.894 17.6462C188.434 17.6482 188.854 17.8037 189.154 18.1124C189.453 18.4212 189.602 18.8467 189.6 19.3891L189.598 19.8949L187.134 19.8854C187.144 20.1817 187.231 20.4133 187.394 20.5803C187.558 20.7473 187.787 20.8313 188.084 20.8325C188.314 20.8333 188.531 20.8102 188.737 20.7632C188.942 20.7161 189.156 20.6406 189.38 20.5367L189.377 21.3433C189.194 21.4337 188.999 21.5002 188.792 21.5427C188.584 21.5875 188.331 21.6093 188.033 21.6081ZM192.587 17.6642C192.728 17.6647 192.846 17.6755 192.939 17.6963L192.857 18.6736C192.772 18.6504 192.67 18.6387 192.549 18.6382C192.216 18.6369 191.956 18.7214 191.769 18.8915C191.584 19.0617 191.49 19.3006 191.489 19.6082L191.482 21.553L190.439 21.549L190.454 17.7278L191.243 17.7308L191.395 18.374L191.446 18.3742C191.565 18.1604 191.726 17.989 191.927 17.8599C192.13 17.7285 192.35 17.6633 192.587 17.6642Z" fill="black"/>
</svg>
