<svg width="219" height="68" viewBox="0 0 219 68" fill="none" xmlns="http://www.w3.org/2000/svg">
<rect x="0.509766" y="0.418457" width="218" height="67" rx="10" fill="white"/>
<path opacity="0.8" d="M49.7412 25.4185H47.8174L44.7119 20.0181H44.668C44.7298 20.9718 44.7607 21.6522 44.7607 22.0591V25.4185H43.4082V18.2798H45.3174L48.418 23.6265H48.4521C48.4033 22.6987 48.3789 22.0428 48.3789 21.6587V18.2798H49.7412V25.4185ZM55.6543 25.4185H51.543V18.2798H55.6543V19.52H53.0566V21.0874H55.4736V22.3276H53.0566V24.1685H55.6543V25.4185ZM64.1016 25.4185H62.3779L61.4111 21.6685C61.3753 21.535 61.3135 21.2599 61.2256 20.8433C61.141 20.4233 61.0921 20.1418 61.0791 19.9985C61.0596 20.1743 61.0107 20.4575 60.9326 20.8481C60.8545 21.2355 60.7943 21.5122 60.752 21.6782L59.79 25.4185H58.0713L56.25 18.2798H57.7393L58.6523 22.1763C58.8118 22.8957 58.9274 23.519 58.999 24.0464C59.0186 23.8608 59.0625 23.5744 59.1309 23.187C59.2025 22.7964 59.2692 22.4937 59.3311 22.2788L60.3711 18.2798H61.8018L62.8418 22.2788C62.8874 22.4578 62.9443 22.7313 63.0127 23.0991C63.0811 23.467 63.1331 23.7827 63.1689 24.0464C63.2015 23.7925 63.2536 23.4767 63.3252 23.0991C63.3968 22.7183 63.4619 22.4106 63.5205 22.1763L64.4287 18.2798H65.918L64.1016 25.4185ZM72.4463 19.437C71.8766 19.437 71.4355 19.6519 71.123 20.0815C70.8105 20.508 70.6543 21.1037 70.6543 21.8687C70.6543 23.4604 71.2516 24.2563 72.4463 24.2563C72.9476 24.2563 73.5547 24.131 74.2676 23.8804V25.1499C73.6816 25.394 73.0273 25.5161 72.3047 25.5161C71.2663 25.5161 70.472 25.202 69.9219 24.5737C69.3717 23.9422 69.0967 23.0373 69.0967 21.8589C69.0967 21.1167 69.2318 20.4673 69.502 19.9106C69.7721 19.3507 70.1595 18.9227 70.6641 18.6265C71.1719 18.327 71.766 18.1772 72.4463 18.1772C73.1396 18.1772 73.8363 18.3449 74.5361 18.6802L74.0479 19.9106C73.7809 19.7837 73.5124 19.673 73.2422 19.5786C72.972 19.4842 72.7067 19.437 72.4463 19.437ZM81.6016 18.2798V22.8989C81.6016 23.4263 81.4827 23.8885 81.2451 24.2856C81.0107 24.6828 80.6706 24.9871 80.2246 25.1987C79.7786 25.4103 79.2513 25.5161 78.6426 25.5161C77.7246 25.5161 77.0117 25.2817 76.5039 24.813C75.9961 24.341 75.7422 23.6965 75.7422 22.8794V18.2798H77.251V22.6499C77.251 23.2 77.3617 23.6037 77.583 23.8608C77.8044 24.118 78.1706 24.2466 78.6816 24.2466C79.1764 24.2466 79.5345 24.118 79.7559 23.8608C79.9805 23.6004 80.0928 23.1935 80.0928 22.6401V18.2798H81.6016ZM87.5635 23.436C87.5635 24.0806 87.3307 24.5884 86.8652 24.9595C86.403 25.3306 85.7585 25.5161 84.9316 25.5161C84.1699 25.5161 83.4961 25.3729 82.9102 25.0864V23.6802C83.3919 23.895 83.7988 24.0464 84.1309 24.1343C84.4661 24.2222 84.7721 24.2661 85.0488 24.2661C85.3809 24.2661 85.6348 24.2026 85.8105 24.0757C85.9896 23.9487 86.0791 23.7599 86.0791 23.5093C86.0791 23.3693 86.04 23.2456 85.9619 23.1382C85.8838 23.0275 85.7682 22.9217 85.6152 22.8208C85.4655 22.7199 85.1579 22.5588 84.6924 22.3374C84.2562 22.1323 83.929 21.9354 83.7109 21.7466C83.4928 21.5578 83.3187 21.3381 83.1885 21.0874C83.0583 20.8368 82.9932 20.5438 82.9932 20.2085C82.9932 19.577 83.2064 19.0806 83.6328 18.7192C84.0625 18.3579 84.6549 18.1772 85.4102 18.1772C85.7812 18.1772 86.1344 18.2212 86.4697 18.3091C86.8083 18.397 87.1615 18.5207 87.5293 18.6802L87.041 19.8569C86.6602 19.7007 86.3444 19.5916 86.0938 19.5298C85.8464 19.4679 85.6022 19.437 85.3613 19.437C85.0749 19.437 84.8551 19.5037 84.7021 19.6372C84.5492 19.7707 84.4727 19.9448 84.4727 20.1597C84.4727 20.2931 84.5036 20.4103 84.5654 20.5112C84.6273 20.6089 84.7249 20.7049 84.8584 20.7993C84.9951 20.8905 85.3158 21.0565 85.8203 21.2974C86.4876 21.6164 86.945 21.937 87.1924 22.2593C87.4398 22.5783 87.5635 22.9705 87.5635 23.436ZM91.6113 25.4185H90.0977V19.5396H88.1592V18.2798H93.5498V19.5396H91.6113V25.4185ZM101.128 21.8394C101.128 23.021 100.835 23.9292 100.249 24.564C99.6631 25.1987 98.8232 25.5161 97.7295 25.5161C96.6357 25.5161 95.7959 25.1987 95.21 24.564C94.624 23.9292 94.3311 23.0177 94.3311 21.8296C94.3311 20.6414 94.624 19.7349 95.21 19.1099C95.7992 18.4816 96.6423 18.1675 97.7393 18.1675C98.8363 18.1675 99.6745 18.4832 100.254 19.1147C100.837 19.7463 101.128 20.6545 101.128 21.8394ZM95.918 21.8394C95.918 22.6369 96.0693 23.2375 96.3721 23.6411C96.6748 24.0448 97.1273 24.2466 97.7295 24.2466C98.9372 24.2466 99.541 23.4442 99.541 21.8394C99.541 20.2313 98.9404 19.4272 97.7393 19.4272C97.137 19.4272 96.6829 19.6307 96.377 20.0376C96.071 20.4412 95.918 21.0418 95.918 21.8394ZM105.63 25.4185L103.911 19.8179H103.867C103.929 20.9572 103.96 21.7173 103.96 22.0981V25.4185H102.607V18.2798H104.668L106.357 23.7388H106.387L108.179 18.2798H110.239V25.4185H108.828V22.0396C108.828 21.88 108.83 21.6961 108.833 21.4878C108.84 21.2795 108.862 20.7261 108.901 19.8276H108.857L107.017 25.4185H105.63ZM116.152 25.4185H112.041V18.2798H116.152V19.52H113.555V21.0874H115.972V22.3276H113.555V24.1685H116.152V25.4185ZM119.16 21.4487H119.648C120.127 21.4487 120.48 21.369 120.708 21.2095C120.936 21.05 121.05 20.7993 121.05 20.4575C121.05 20.119 120.933 19.8781 120.698 19.7349C120.467 19.5916 120.107 19.52 119.619 19.52H119.16V21.4487ZM119.16 22.6792V25.4185H117.646V18.2798H119.727C120.697 18.2798 121.414 18.4572 121.88 18.812C122.345 19.1636 122.578 19.6991 122.578 20.4185C122.578 20.8384 122.463 21.2127 122.231 21.5415C122 21.867 121.673 22.1226 121.25 22.3081C122.324 23.9129 123.024 24.9497 123.35 25.4185H121.67L119.966 22.6792H119.16ZM125.381 23.0503H124.189L123.94 18.2798H125.63L125.381 23.0503ZM123.921 24.7202C123.921 24.4468 123.994 24.2401 124.141 24.1001C124.287 23.9601 124.5 23.8901 124.78 23.8901C125.05 23.8901 125.259 23.9618 125.405 24.105C125.555 24.2482 125.63 24.4533 125.63 24.7202C125.63 24.9774 125.555 25.1808 125.405 25.3306C125.256 25.4771 125.047 25.5503 124.78 25.5503C124.507 25.5503 124.295 25.4787 124.146 25.3354C123.996 25.189 123.921 24.9839 123.921 24.7202Z" fill="#407BFF"/>
<ellipse opacity="0.8" cx="24.5098" cy="20.9185" rx="9" ry="8.5" fill="#407BFF"/>
<path opacity="0.8" d="M19.9409 48.4185L17.6636 41.8604H17.6206C17.6815 42.8343 17.7119 43.7474 17.7119 44.5996V48.4185H16.5464V40.5659H18.3564L20.5371 46.8125H20.5693L22.8145 40.5659H24.6299V48.4185H23.3945V44.5352C23.3945 44.1449 23.4035 43.6364 23.4214 43.0098C23.4429 42.3831 23.4608 42.0036 23.4751 41.8711H23.4321L21.0742 48.4185H19.9409ZM30.2803 48.4185L30.0278 47.5913H29.9849C29.6984 47.953 29.4102 48.2 29.1201 48.3325C28.8301 48.4614 28.4577 48.5259 28.0029 48.5259C27.4193 48.5259 26.9627 48.3683 26.6333 48.0532C26.3075 47.7381 26.1445 47.2923 26.1445 46.7158C26.1445 46.1035 26.3719 45.6416 26.8267 45.3301C27.2814 45.0186 27.9743 44.8485 28.9053 44.8198L29.9312 44.7876V44.4707C29.9312 44.0911 29.8416 43.8083 29.6626 43.6221C29.4871 43.4323 29.2132 43.3374 28.8408 43.3374C28.5365 43.3374 28.2446 43.3822 27.9653 43.4717C27.686 43.5612 27.4175 43.6668 27.1597 43.7886L26.7515 42.8862C27.0737 42.7179 27.4264 42.5908 27.8096 42.5049C28.1927 42.4154 28.5544 42.3706 28.8945 42.3706C29.6501 42.3706 30.2194 42.5353 30.6025 42.8647C30.9893 43.1942 31.1826 43.7116 31.1826 44.417V48.4185H30.2803ZM28.4004 47.5591C28.8587 47.5591 29.2257 47.432 29.5015 47.1777C29.7808 46.9199 29.9204 46.5601 29.9204 46.0981V45.5825L29.1577 45.6147C28.5633 45.6362 28.13 45.7365 27.8579 45.9155C27.5894 46.091 27.4551 46.3613 27.4551 46.7266C27.4551 46.9915 27.5339 47.1974 27.6914 47.3442C27.849 47.4875 28.0853 47.5591 28.4004 47.5591ZM36.9351 46.7266C36.9351 47.3066 36.7238 47.7524 36.3013 48.064C35.8787 48.3719 35.2736 48.5259 34.4858 48.5259C33.6945 48.5259 33.0589 48.4059 32.5791 48.166V47.0757C33.2773 47.3979 33.9272 47.5591 34.5288 47.5591C35.3058 47.5591 35.6943 47.3245 35.6943 46.8555C35.6943 46.7051 35.6514 46.5798 35.5654 46.4795C35.4795 46.3792 35.3381 46.2754 35.1411 46.168C34.9442 46.0605 34.6702 45.9388 34.3193 45.8027C33.6354 45.5378 33.1717 45.2728 32.9282 45.0078C32.6883 44.7428 32.5684 44.3991 32.5684 43.9766C32.5684 43.4681 32.7725 43.0742 33.1807 42.7949C33.5924 42.512 34.151 42.3706 34.8564 42.3706C35.5547 42.3706 36.2153 42.512 36.8384 42.7949L36.4302 43.7456C35.7892 43.4806 35.2503 43.3481 34.8135 43.3481C34.1475 43.3481 33.8145 43.5379 33.8145 43.9175C33.8145 44.1037 33.9004 44.2612 34.0723 44.3901C34.2477 44.519 34.6273 44.6963 35.2109 44.9219C35.7015 45.1117 36.0578 45.2853 36.2798 45.4429C36.5018 45.6004 36.6665 45.783 36.7739 45.9907C36.8813 46.1948 36.9351 46.4401 36.9351 46.7266ZM43.5737 45.4375C43.5737 46.4079 43.3249 47.1652 42.8271 47.7095C42.3294 48.2537 41.6366 48.5259 40.7485 48.5259C40.1935 48.5259 39.703 48.4006 39.2769 48.1499C38.8507 47.8993 38.5231 47.5394 38.2939 47.0703C38.0648 46.6012 37.9502 46.057 37.9502 45.4375C37.9502 44.4743 38.1973 43.7223 38.6914 43.1816C39.1855 42.641 39.882 42.3706 40.7808 42.3706C41.6401 42.3706 42.3205 42.6481 42.8218 43.2031C43.3231 43.7546 43.5737 44.4993 43.5737 45.4375ZM39.25 45.4375C39.25 46.8089 39.7567 47.4946 40.77 47.4946C41.7726 47.4946 42.2739 46.8089 42.2739 45.4375C42.2739 44.0804 41.769 43.4019 40.7593 43.4019C40.2293 43.4019 39.8444 43.5773 39.6045 43.9282C39.3682 44.2791 39.25 44.7822 39.25 45.4375ZM50.2554 48.4185H48.9878V44.7661C48.9878 44.3078 48.8947 43.9658 48.7085 43.7402C48.5259 43.5146 48.234 43.4019 47.833 43.4019C47.2995 43.4019 46.9092 43.5594 46.6621 43.8745C46.415 44.1896 46.2915 44.7178 46.2915 45.459V48.4185H45.0293V42.478H46.0176L46.1948 43.2568H46.2593C46.4383 42.974 46.6925 42.7555 47.022 42.6016C47.3514 42.4476 47.7166 42.3706 48.1177 42.3706C49.5428 42.3706 50.2554 43.0957 50.2554 44.5459V48.4185ZM53.3223 47.2637C53.1504 47.9297 52.8353 48.7873 52.377 49.8364H51.4478C51.6948 48.8696 51.8792 47.9709 52.001 47.1401H53.2417L53.3223 47.2637ZM62.7163 48.4185H57.3936V47.4624L59.4185 45.4268C60.0164 44.8145 60.4121 44.3812 60.6055 44.127C60.8024 43.8691 60.9456 43.6274 61.0352 43.4019C61.1247 43.1763 61.1694 42.9346 61.1694 42.6768C61.1694 42.3223 61.062 42.043 60.8472 41.8389C60.6359 41.6348 60.3423 41.5327 59.9663 41.5327C59.6655 41.5327 59.3737 41.5882 59.0908 41.6992C58.8115 41.8102 58.4875 42.0107 58.1187 42.3008L57.4365 41.4683C57.8734 41.0994 58.2977 40.8381 58.7095 40.6841C59.1213 40.5301 59.5599 40.4531 60.0254 40.4531C60.7559 40.4531 61.3413 40.6447 61.7817 41.0278C62.2222 41.4074 62.4424 41.9194 62.4424 42.564C62.4424 42.9185 62.3779 43.255 62.249 43.5737C62.1237 43.8924 61.9285 44.2218 61.6636 44.562C61.4022 44.8986 60.9653 45.3551 60.353 45.9316L58.9888 47.2529V47.3066H62.7163V48.4185ZM66.3311 40.4639C67.0758 40.4639 67.6649 40.6357 68.0981 40.9795C68.5314 41.3197 68.748 41.7762 68.748 42.3491C68.748 43.1548 68.2646 43.7957 67.2979 44.272C67.9137 44.5799 68.3506 44.904 68.6084 45.2441C68.8698 45.5843 69.0005 45.9639 69.0005 46.3828C69.0005 47.0309 68.7624 47.5501 68.2861 47.9404C67.8099 48.3307 67.1654 48.5259 66.3525 48.5259C65.5003 48.5259 64.8397 48.3433 64.3706 47.978C63.9015 47.6128 63.667 47.0954 63.667 46.4258C63.667 45.9889 63.7887 45.5968 64.0322 45.2495C64.2793 44.8986 64.6821 44.5871 65.2407 44.3149C64.7609 44.0285 64.4189 43.7259 64.2148 43.4072C64.0107 43.0885 63.9087 42.7305 63.9087 42.333C63.9087 41.7637 64.1325 41.3107 64.5801 40.9741C65.0277 40.634 65.6113 40.4639 66.3311 40.4639ZM64.8755 46.3828C64.8755 46.7552 65.0062 47.0452 65.2676 47.2529C65.529 47.457 65.8835 47.5591 66.3311 47.5591C66.793 47.5591 67.151 47.4535 67.4053 47.2422C67.6631 47.0273 67.792 46.7373 67.792 46.3721C67.792 46.082 67.6738 45.8171 67.4375 45.5771C67.2012 45.3372 66.8431 45.1152 66.3633 44.9111L66.2075 44.8413C65.7349 45.049 65.3947 45.2782 65.187 45.5288C64.9793 45.7759 64.8755 46.0605 64.8755 46.3828ZM66.3203 41.436C65.9622 41.436 65.674 41.5256 65.4556 41.7046C65.2371 41.88 65.1279 42.12 65.1279 42.4243C65.1279 42.6105 65.1673 42.777 65.2461 42.9238C65.3249 43.0706 65.4395 43.2049 65.5898 43.3267C65.7402 43.4448 65.9945 43.5881 66.3525 43.7563C66.7822 43.5666 67.0848 43.3678 67.2603 43.1602C67.4393 42.9489 67.5288 42.7036 67.5288 42.4243C67.5288 42.12 67.4178 41.88 67.1958 41.7046C66.9774 41.5256 66.6855 41.436 66.3203 41.436ZM71.6914 47.2637C71.5195 47.9297 71.2044 48.7873 70.7461 49.8364H69.8169C70.064 48.8696 70.2484 47.9709 70.3701 47.1401H71.6108L71.6914 47.2637ZM82.8579 48.4185H81.2842L77.4224 42.1611H77.3794L77.4062 42.5103C77.4564 43.1763 77.4814 43.785 77.4814 44.3364V48.4185H76.3159V40.5659H77.8735L81.7246 46.791H81.7568C81.7497 46.7087 81.7354 46.4097 81.7139 45.894C81.6924 45.3748 81.6816 44.9702 81.6816 44.6802V40.5659H82.8579V48.4185ZM87.3911 48.5259C86.4673 48.5259 85.744 48.2573 85.2212 47.7202C84.702 47.1795 84.4424 46.4365 84.4424 45.4912C84.4424 44.5208 84.6841 43.7581 85.1675 43.2031C85.6509 42.6481 86.3151 42.3706 87.1602 42.3706C87.9443 42.3706 88.5638 42.6087 89.0186 43.085C89.4733 43.5612 89.7007 44.2165 89.7007 45.0508V45.7329H85.7422C85.7601 46.3094 85.9159 46.7534 86.2095 47.0649C86.5031 47.3729 86.9167 47.5269 87.4502 47.5269C87.8011 47.5269 88.127 47.4946 88.4277 47.4302C88.7321 47.3621 89.0579 47.2511 89.4053 47.0972V48.123C89.0973 48.2699 88.7858 48.3737 88.4707 48.4346C88.1556 48.4954 87.7957 48.5259 87.3911 48.5259ZM87.1602 43.3267C86.7591 43.3267 86.4368 43.4538 86.1934 43.708C85.9535 43.9622 85.8102 44.3328 85.7637 44.8198H88.46C88.4528 44.3293 88.3346 43.9587 88.1055 43.708C87.8763 43.4538 87.5612 43.3267 87.1602 43.3267ZM96.0063 48.4185L95.2383 45.647C95.1452 45.3534 94.9769 44.6712 94.7334 43.6006H94.6851C94.4774 44.5674 94.3127 45.2531 94.1909 45.6577L93.4014 48.4185H92.0049L90.3398 42.478H91.6289L92.3862 45.4053C92.5581 46.1286 92.6799 46.748 92.7515 47.2637H92.7837C92.8195 47.0023 92.8732 46.7033 92.9448 46.3667C93.02 46.0265 93.0845 45.7723 93.1382 45.604L94.0405 42.478H95.4263L96.3018 45.604C96.3555 45.7795 96.4217 46.048 96.5005 46.4097C96.5828 46.7713 96.6312 47.0524 96.6455 47.2529H96.6885C96.7422 46.8125 96.8675 46.1966 97.0645 45.4053L97.8325 42.478H99.1001L97.4243 48.4185H96.0063ZM102.124 50.6099C101.773 50.6099 101.479 50.5651 101.243 50.4756V49.396C101.544 49.4712 101.805 49.5088 102.027 49.5088C102.729 49.5088 103.08 49.0648 103.08 48.1768V40.5659H104.369V48.1338C104.369 48.9359 104.178 49.5482 103.794 49.9707C103.415 50.3968 102.858 50.6099 102.124 50.6099ZM108.865 48.5259C107.941 48.5259 107.218 48.2573 106.695 47.7202C106.176 47.1795 105.916 46.4365 105.916 45.4912C105.916 44.5208 106.158 43.7581 106.641 43.2031C107.125 42.6481 107.789 42.3706 108.634 42.3706C109.418 42.3706 110.037 42.6087 110.492 43.085C110.947 43.5612 111.174 44.2165 111.174 45.0508V45.7329H107.216C107.234 46.3094 107.389 46.7534 107.683 47.0649C107.977 47.3729 108.39 47.5269 108.924 47.5269C109.275 47.5269 109.601 47.4946 109.901 47.4302C110.206 47.3621 110.532 47.2511 110.879 47.0972V48.123C110.571 48.2699 110.259 48.3737 109.944 48.4346C109.629 48.4954 109.269 48.5259 108.865 48.5259ZM108.634 43.3267C108.233 43.3267 107.91 43.4538 107.667 43.708C107.427 43.9622 107.284 44.3328 107.237 44.8198H109.934C109.926 44.3293 109.808 43.9587 109.579 43.708C109.35 43.4538 109.035 43.3267 108.634 43.3267ZM115.622 42.3706C115.876 42.3706 116.085 42.3885 116.25 42.4243L116.126 43.6006C115.947 43.5576 115.761 43.5361 115.568 43.5361C115.063 43.5361 114.653 43.7008 114.338 44.0303C114.026 44.3597 113.871 44.7876 113.871 45.314V48.4185H112.608V42.478H113.597L113.763 43.5254H113.828C114.025 43.1709 114.281 42.8898 114.596 42.6821C114.914 42.4744 115.256 42.3706 115.622 42.3706ZM121.347 46.7266C121.347 47.3066 121.136 47.7524 120.713 48.064C120.291 48.3719 119.686 48.5259 118.898 48.5259C118.107 48.5259 117.471 48.4059 116.991 48.166V47.0757C117.689 47.3979 118.339 47.5591 118.941 47.5591C119.718 47.5591 120.106 47.3245 120.106 46.8555C120.106 46.7051 120.063 46.5798 119.978 46.4795C119.892 46.3792 119.75 46.2754 119.553 46.168C119.356 46.0605 119.082 45.9388 118.731 45.8027C118.048 45.5378 117.584 45.2728 117.34 45.0078C117.1 44.7428 116.98 44.3991 116.98 43.9766C116.98 43.4681 117.185 43.0742 117.593 42.7949C118.005 42.512 118.563 42.3706 119.269 42.3706C119.967 42.3706 120.627 42.512 121.25 42.7949L120.842 43.7456C120.201 43.4806 119.662 43.3481 119.226 43.3481C118.56 43.3481 118.227 43.5379 118.227 43.9175C118.227 44.1037 118.312 44.2612 118.484 44.3901C118.66 44.519 119.039 44.6963 119.623 44.9219C120.114 45.1117 120.47 45.2853 120.692 45.4429C120.914 45.6004 121.079 45.783 121.186 45.9907C121.293 46.1948 121.347 46.4401 121.347 46.7266ZM125.311 48.5259C124.387 48.5259 123.664 48.2573 123.141 47.7202C122.622 47.1795 122.362 46.4365 122.362 45.4912C122.362 44.5208 122.604 43.7581 123.087 43.2031C123.571 42.6481 124.235 42.3706 125.08 42.3706C125.864 42.3706 126.484 42.6087 126.938 43.085C127.393 43.5612 127.621 44.2165 127.621 45.0508V45.7329H123.662C123.68 46.3094 123.836 46.7534 124.129 47.0649C124.423 47.3729 124.837 47.5269 125.37 47.5269C125.721 47.5269 126.047 47.4946 126.348 47.4302C126.652 47.3621 126.978 47.2511 127.325 47.0972V48.123C127.017 48.2699 126.706 48.3737 126.391 48.4346C126.076 48.4954 125.716 48.5259 125.311 48.5259ZM125.08 43.3267C124.679 43.3267 124.357 43.4538 124.113 43.708C123.873 43.9622 123.73 44.3328 123.684 44.8198H126.38C126.373 44.3293 126.255 43.9587 126.025 43.708C125.796 43.4538 125.481 43.3267 125.08 43.3267ZM128.152 42.478H129.527L130.736 45.8457C130.918 46.3255 131.04 46.7767 131.101 47.1992H131.144C131.176 47.0023 131.235 46.7642 131.321 46.4849C131.407 46.202 131.862 44.8664 132.686 42.478H134.05L131.509 49.208C131.047 50.4434 130.278 51.061 129.2 51.061C128.92 51.061 128.648 51.0306 128.383 50.9697V49.9707C128.573 50.0137 128.79 50.0352 129.033 50.0352C129.642 50.0352 130.07 49.6825 130.317 48.9771L130.537 48.4185L128.152 42.478Z" fill="black"/>
<rect opacity="0.5" x="142.51" y="9.41846" width="70" height="20" rx="8" fill="#EBF1FF"/>
<path d="M171.718 20.0893C171.716 20.5405 171.552 20.8953 171.225 21.1538C170.9 21.4124 170.449 21.5405 169.87 21.5383C169.337 21.5362 168.865 21.4341 168.456 21.232L168.46 20.2477C168.796 20.3994 169.081 20.5064 169.313 20.5688C169.547 20.6313 169.761 20.6628 169.955 20.6636C170.188 20.6645 170.365 20.6207 170.489 20.5323C170.615 20.444 170.678 20.312 170.678 20.1366C170.679 20.0386 170.652 19.9519 170.597 19.8765C170.543 19.7988 170.462 19.7245 170.356 19.6534C170.251 19.5824 170.036 19.4687 169.711 19.3125C169.406 19.1678 169.178 19.0291 169.025 18.8963C168.873 18.7636 168.752 18.6093 168.661 18.4335C168.571 18.2577 168.526 18.0524 168.527 17.8177C168.529 17.3757 168.679 17.0288 168.979 16.777C169.281 16.5252 169.696 16.4004 170.224 16.4024C170.484 16.4034 170.731 16.4351 170.966 16.4975C171.203 16.56 171.449 16.6475 171.707 16.7601L171.362 17.5826C171.095 17.4722 170.875 17.395 170.699 17.351C170.526 17.307 170.356 17.2847 170.187 17.2841C169.986 17.2833 169.832 17.3294 169.725 17.4224C169.618 17.5155 169.563 17.6372 169.563 17.7876C169.563 17.881 169.584 17.9631 169.627 18.0339C169.67 18.1024 169.738 18.1699 169.831 18.2363C169.927 18.3005 170.151 18.4176 170.503 18.5876C170.969 18.8127 171.289 19.0383 171.461 19.2646C171.633 19.4886 171.719 19.7635 171.718 20.0893ZM173.374 19.5659C173.373 19.9441 173.433 20.2304 173.555 20.4245C173.68 20.6187 173.882 20.7163 174.163 20.7174C174.441 20.7184 174.64 20.6235 174.762 20.4326C174.886 20.2394 174.948 19.9525 174.95 19.572C174.951 19.1937 174.891 18.9098 174.768 18.7202C174.646 18.5306 174.445 18.4352 174.164 18.4342C173.886 18.4331 173.686 18.5269 173.562 18.7155C173.438 18.9019 173.375 19.1854 173.374 19.5659ZM176.016 19.5761C176.014 20.1981 175.848 20.684 175.518 21.0336C175.189 21.3833 174.731 21.557 174.146 21.5547C173.779 21.5533 173.456 21.4723 173.176 21.3117C172.896 21.1489 172.682 20.9168 172.533 20.6154C172.383 20.314 172.309 19.9628 172.311 19.5618C172.313 18.9375 172.478 18.4527 172.805 18.1076C173.133 17.7625 173.591 17.5911 174.181 17.5934C174.548 17.5948 174.871 17.6758 175.151 17.8364C175.431 17.997 175.645 18.2268 175.794 18.5259C175.944 18.825 176.018 19.175 176.016 19.5761ZM178.421 21.5712C177.232 21.5666 176.64 20.9115 176.645 19.6058C176.647 18.9564 176.811 18.4614 177.136 18.1209C177.461 17.7781 177.925 17.6078 178.529 17.6101C178.971 17.6118 179.367 17.6999 179.717 17.8745L179.407 18.6799C179.243 18.6132 179.09 18.5591 178.949 18.5175C178.808 18.4737 178.667 18.4515 178.526 18.4509C177.983 18.4489 177.711 18.8329 177.708 19.6031C177.705 20.3505 177.975 20.7252 178.517 20.7273C178.718 20.7281 178.903 20.7026 179.074 20.6508C179.246 20.5968 179.417 20.5131 179.588 20.3999L179.585 21.2919C179.416 21.3984 179.244 21.4718 179.071 21.5121C178.9 21.5525 178.684 21.5722 178.421 21.5712ZM180.447 16.7015C180.448 16.362 180.638 16.1929 181.016 16.1944C181.394 16.1958 181.583 16.3663 181.581 16.7058C181.581 16.8676 181.532 16.9939 181.436 17.0847C181.343 17.1732 181.201 17.2171 181.012 17.2164C180.634 17.2149 180.445 17.0433 180.447 16.7015ZM181.515 21.5147L180.472 21.5107L180.487 17.6894L181.53 17.6934L181.515 21.5147ZM185.039 21.5283L184.839 21.008L184.812 21.0079C184.636 21.2282 184.454 21.3813 184.267 21.4672C184.082 21.5508 183.84 21.592 183.542 21.5909C183.175 21.5895 182.886 21.4835 182.675 21.2731C182.466 21.0626 182.362 20.7637 182.364 20.3764C182.365 19.9708 182.508 19.6728 182.791 19.4825C183.076 19.2899 183.505 19.1845 184.077 19.1661L184.74 19.1482L184.741 18.9807C184.743 18.5933 184.545 18.3989 184.149 18.3974C183.843 18.3962 183.484 18.4871 183.071 18.6701L182.728 17.9647C183.169 17.7362 183.657 17.623 184.193 17.6251C184.705 17.627 185.098 17.7402 185.37 17.9646C185.643 18.1889 185.778 18.529 185.777 18.9847L185.767 21.5311L185.039 21.5283ZM184.738 19.7566L184.335 19.7687C184.032 19.7767 183.806 19.8305 183.657 19.9302C183.509 20.0299 183.434 20.1822 183.433 20.3873C183.432 20.6813 183.6 20.8289 183.938 20.8302C184.179 20.8311 184.372 20.7623 184.516 20.6239C184.662 20.4855 184.736 20.3012 184.737 20.071L184.738 19.7566ZM187.886 21.5392L186.844 21.5352L186.864 16.2169L187.906 16.2209L187.886 21.5392Z" fill="black"/>
</svg>
