<svg width="314" height="123" viewBox="0 0 314 123" fill="none" xmlns="http://www.w3.org/2000/svg">
    <g filter="url(#filter0_d)">
        <rect x="20.5098" y="18.4185" width="273" height="82" rx="10" fill="white"/>
    </g>
    <path opacity="0.8" d="M77.9106 52.4185H75.4097L71.3726 45.3979H71.3154C71.3958 46.6379 71.436 47.5223 71.436 48.0513V52.4185H69.6777V43.1382H72.1597L76.1904 50.0889H76.2349C76.1714 48.8828 76.1396 48.0301 76.1396 47.5308V43.1382H77.9106V52.4185ZM85.5977 52.4185H80.2529V43.1382H85.5977V44.7505H82.2207V46.7881H85.3628V48.4004H82.2207V50.7935H85.5977V52.4185ZM96.5791 52.4185H94.3384L93.0815 47.5435C93.035 47.37 92.9546 47.0124 92.8403 46.4707C92.7303 45.9248 92.6668 45.5588 92.6499 45.3726C92.6245 45.6011 92.561 45.9692 92.4595 46.4771C92.3579 46.9806 92.2796 47.3403 92.2246 47.5562L90.9741 52.4185H88.7397L86.3721 43.1382H88.3081L89.4951 48.2036C89.7025 49.1388 89.8527 49.9492 89.9458 50.6348C89.9712 50.3936 90.0283 50.0212 90.1172 49.5176C90.2103 49.0098 90.297 48.6162 90.3774 48.3369L91.7295 43.1382H93.5894L94.9414 48.3369C95.0007 48.5697 95.0747 48.9251 95.1636 49.4033C95.2524 49.8815 95.3201 50.292 95.3667 50.6348C95.409 50.3047 95.4767 49.8942 95.5698 49.4033C95.6629 48.9082 95.7476 48.5083 95.8237 48.2036L97.0044 43.1382H98.9404L96.5791 52.4185ZM107.427 44.6426C106.687 44.6426 106.113 44.9219 105.707 45.4805C105.301 46.0348 105.098 46.8092 105.098 47.8037C105.098 49.873 105.874 50.9077 107.427 50.9077C108.079 50.9077 108.868 50.7448 109.795 50.4189V52.0693C109.033 52.3867 108.183 52.5454 107.243 52.5454C105.893 52.5454 104.861 52.137 104.146 51.3203C103.43 50.4993 103.073 49.3229 103.073 47.791C103.073 46.8262 103.248 45.9819 103.6 45.2583C103.951 44.5304 104.454 43.974 105.11 43.5889C105.771 43.1995 106.543 43.0049 107.427 43.0049C108.329 43.0049 109.234 43.2228 110.144 43.6587L109.509 45.2583C109.162 45.0933 108.813 44.9494 108.462 44.8267C108.111 44.7039 107.766 44.6426 107.427 44.6426ZM119.329 43.1382V49.1431C119.329 49.8286 119.175 50.4295 118.866 50.9458C118.561 51.4621 118.119 51.8577 117.539 52.1328C116.959 52.4079 116.274 52.5454 115.482 52.5454C114.289 52.5454 113.362 52.2407 112.702 51.6313C112.042 51.0177 111.712 50.1799 111.712 49.1177V43.1382H113.673V48.8193C113.673 49.5345 113.817 50.0592 114.105 50.3936C114.393 50.7279 114.869 50.895 115.533 50.895C116.176 50.895 116.642 50.7279 116.93 50.3936C117.222 50.055 117.368 49.526 117.368 48.8066V43.1382H119.329ZM127.08 49.8413C127.08 50.6792 126.777 51.3394 126.172 51.8218C125.571 52.3042 124.733 52.5454 123.658 52.5454C122.668 52.5454 121.792 52.3592 121.03 51.9868V50.1587C121.657 50.438 122.186 50.6348 122.617 50.749C123.053 50.8633 123.451 50.9204 123.811 50.9204C124.242 50.9204 124.572 50.8379 124.801 50.6729C125.034 50.5078 125.15 50.2624 125.15 49.9365C125.15 49.7546 125.099 49.5938 124.998 49.4541C124.896 49.3102 124.746 49.1727 124.547 49.0415C124.352 48.9103 123.952 48.7008 123.347 48.4131C122.78 48.1465 122.355 47.8905 122.071 47.645C121.788 47.3996 121.561 47.1139 121.392 46.7881C121.223 46.4622 121.138 46.0814 121.138 45.6455C121.138 44.8245 121.415 44.1792 121.97 43.7095C122.528 43.2397 123.299 43.0049 124.28 43.0049C124.763 43.0049 125.222 43.062 125.658 43.1763C126.098 43.2905 126.557 43.4513 127.035 43.6587L126.4 45.1885C125.905 44.9854 125.495 44.8436 125.169 44.7632C124.847 44.6828 124.53 44.6426 124.217 44.6426C123.844 44.6426 123.559 44.7293 123.36 44.9028C123.161 45.0763 123.062 45.3027 123.062 45.582C123.062 45.7555 123.102 45.9079 123.182 46.0391C123.263 46.166 123.389 46.2909 123.563 46.4136C123.741 46.5321 124.158 46.7479 124.813 47.061C125.681 47.4757 126.276 47.8926 126.597 48.3115C126.919 48.7262 127.08 49.2362 127.08 49.8413ZM132.342 52.4185H130.374V44.7759H127.854V43.1382H134.862V44.7759H132.342V52.4185ZM144.713 47.7656C144.713 49.3018 144.333 50.4824 143.571 51.3076C142.809 52.1328 141.717 52.5454 140.295 52.5454C138.874 52.5454 137.782 52.1328 137.02 51.3076C136.258 50.4824 135.877 49.2975 135.877 47.7529C135.877 46.2083 136.258 45.0298 137.02 44.2173C137.786 43.4006 138.882 42.9922 140.308 42.9922C141.734 42.9922 142.824 43.4027 143.577 44.2236C144.335 45.0446 144.713 46.2253 144.713 47.7656ZM137.94 47.7656C137.94 48.8024 138.137 49.5832 138.531 50.1079C138.924 50.6326 139.513 50.895 140.295 50.895C141.865 50.895 142.65 49.8519 142.65 47.7656C142.65 45.6751 141.87 44.6299 140.308 44.6299C139.525 44.6299 138.935 44.8944 138.537 45.4233C138.139 45.9481 137.94 46.7288 137.94 47.7656ZM150.566 52.4185L148.332 45.1377H148.274C148.355 46.6188 148.395 47.6069 148.395 48.1021V52.4185H146.637V43.1382H149.315L151.512 50.2349H151.55L153.879 43.1382H156.558V52.4185H154.724V48.0259C154.724 47.8185 154.726 47.5794 154.73 47.3086C154.738 47.0378 154.768 46.3184 154.819 45.1504H154.762L152.369 52.4185H150.566ZM164.245 52.4185H158.9V43.1382H164.245V44.7505H160.868V46.7881H164.01V48.4004H160.868V50.7935H164.245V52.4185ZM168.155 47.2578H168.79C169.412 47.2578 169.871 47.1541 170.167 46.9468C170.464 46.7394 170.612 46.4136 170.612 45.9692C170.612 45.5291 170.459 45.216 170.155 45.0298C169.854 44.8436 169.387 44.7505 168.752 44.7505H168.155V47.2578ZM168.155 48.8574V52.4185H166.188V43.1382H168.892C170.153 43.1382 171.086 43.3688 171.691 43.8301C172.296 44.2871 172.599 44.9832 172.599 45.9185C172.599 46.4644 172.448 46.951 172.148 47.3784C171.847 47.8016 171.422 48.1338 170.872 48.375C172.269 50.4613 173.178 51.8091 173.602 52.4185H171.418L169.203 48.8574H168.155ZM176.242 49.3398H174.693L174.37 43.1382H176.566L176.242 49.3398ZM174.344 51.5107C174.344 51.1553 174.439 50.8866 174.63 50.7046C174.82 50.5226 175.097 50.4316 175.461 50.4316C175.813 50.4316 176.083 50.5247 176.274 50.7109C176.469 50.8971 176.566 51.1637 176.566 51.5107C176.566 51.8451 176.469 52.1095 176.274 52.3042C176.079 52.4946 175.808 52.5898 175.461 52.5898C175.106 52.5898 174.831 52.4967 174.636 52.3105C174.442 52.1201 174.344 51.8535 174.344 51.5107Z" fill="#407BFF"/>
    <ellipse opacity="0.8" cx="51" cy="47.293" rx="9" ry="8.5" fill="#407BFF"/>
    <path opacity="0.8" d="M43.8291 79.4185V69.4243H45.4629V78.0171H49.6943V79.4185H43.8291ZM52.8525 79.4185H51.2461V71.8579H52.8525V79.4185ZM51.1504 69.855C51.1504 69.5679 51.2279 69.3468 51.3828 69.1919C51.5423 69.0369 51.7679 68.9595 52.0596 68.9595C52.3421 68.9595 52.5609 69.0369 52.7158 69.1919C52.8753 69.3468 52.9551 69.5679 52.9551 69.855C52.9551 70.1284 52.8753 70.3449 52.7158 70.5044C52.5609 70.6593 52.3421 70.7368 52.0596 70.7368C51.7679 70.7368 51.5423 70.6593 51.3828 70.5044C51.2279 70.3449 51.1504 70.1284 51.1504 69.855ZM59.8867 79.4185L59.5654 78.3657H59.5107C59.1462 78.826 58.7793 79.1405 58.4102 79.3091C58.041 79.4731 57.5671 79.5552 56.9883 79.5552C56.2454 79.5552 55.6644 79.3547 55.2451 78.9536C54.8304 78.5526 54.623 77.9852 54.623 77.2515C54.623 76.4722 54.9124 75.8843 55.4912 75.4878C56.07 75.0913 56.9518 74.8748 58.1367 74.8384L59.4424 74.7974V74.394C59.4424 73.911 59.3285 73.5509 59.1006 73.314C58.8773 73.0724 58.5286 72.9517 58.0547 72.9517C57.6673 72.9517 57.2959 73.0086 56.9404 73.1226C56.585 73.2365 56.2432 73.3709 55.915 73.5259L55.3955 72.3774C55.8057 72.1632 56.2546 72.0015 56.7422 71.8921C57.2298 71.7782 57.6901 71.7212 58.123 71.7212C59.0846 71.7212 59.8092 71.9308 60.2969 72.3501C60.7891 72.7694 61.0352 73.4279 61.0352 74.3257V79.4185H59.8867ZM57.4941 78.3247C58.0775 78.3247 58.5446 78.1629 58.8955 77.8394C59.251 77.5112 59.4287 77.0532 59.4287 76.4653V75.8091L58.458 75.8501C57.7015 75.8774 57.1501 76.005 56.8037 76.2329C56.4619 76.4562 56.291 76.8003 56.291 77.2651C56.291 77.6024 56.3913 77.8644 56.5918 78.0513C56.7923 78.2336 57.0931 78.3247 57.4941 78.3247ZM69.6484 79.4185H68.0352V74.7563C68.0352 74.1776 67.9258 73.7469 67.707 73.4644C67.4883 73.1772 67.1465 73.0337 66.6816 73.0337C66.0618 73.0337 65.6061 73.2365 65.3145 73.6421C65.0273 74.0431 64.8838 74.7131 64.8838 75.6519V79.4185H63.2773V71.8579H64.5352L64.7607 72.8491H64.8428C65.0524 72.4891 65.3555 72.2111 65.752 72.0151C66.153 71.8192 66.5928 71.7212 67.0713 71.7212C68.2334 71.7212 69.0036 72.1177 69.3818 72.9106H69.4912C69.7145 72.5369 70.029 72.2453 70.4346 72.0356C70.8402 71.826 71.305 71.7212 71.8291 71.7212C72.7314 71.7212 73.3877 71.9491 73.7979 72.4048C74.2126 72.8605 74.4199 73.5555 74.4199 74.4897V79.4185H72.8135V74.7563C72.8135 74.1776 72.7018 73.7469 72.4785 73.4644C72.2598 73.1772 71.918 73.0337 71.4531 73.0337C70.8288 73.0337 70.3708 73.2297 70.0791 73.6216C69.792 74.009 69.6484 74.606 69.6484 75.4126V79.4185ZM78.3301 77.9487C78.1113 78.7964 77.7103 79.8879 77.127 81.2231H75.9443C76.2588 79.9927 76.4935 78.8488 76.6484 77.7915H78.2275L78.3301 77.9487ZM90.6416 77.2378H89.2949V79.4185H87.7295V77.2378H83.1631V76.0005L87.7295 69.397H89.2949V75.9048H90.6416V77.2378ZM87.7295 75.9048V73.396C87.7295 72.5028 87.7523 71.7713 87.7979 71.2017H87.7432C87.6156 71.5024 87.415 71.867 87.1416 72.2954L84.6602 75.9048H87.7295ZM98.2842 74.4214C98.2842 76.1577 98.0039 77.4474 97.4434 78.2905C96.8874 79.1336 96.0352 79.5552 94.8867 79.5552C93.7747 79.5552 92.9316 79.12 92.3574 78.2495C91.7832 77.3791 91.4961 76.103 91.4961 74.4214C91.4961 72.6577 91.7741 71.3589 92.3301 70.5249C92.8906 69.6864 93.7428 69.2671 94.8867 69.2671C96.0033 69.2671 96.8486 69.7046 97.4229 70.5796C97.9971 71.4546 98.2842 72.7352 98.2842 74.4214ZM93.123 74.4214C93.123 75.784 93.262 76.757 93.54 77.3403C93.8226 77.9237 94.2715 78.2153 94.8867 78.2153C95.502 78.2153 95.9508 77.9191 96.2334 77.3267C96.5205 76.7342 96.6641 75.7658 96.6641 74.4214C96.6641 73.0815 96.5205 72.1131 96.2334 71.5161C95.9508 70.9146 95.502 70.6138 94.8867 70.6138C94.2715 70.6138 93.8226 70.9077 93.54 71.4956C93.262 72.0835 93.123 73.0588 93.123 74.4214ZM101.709 77.9487C101.49 78.7964 101.089 79.8879 100.506 81.2231H99.3232C99.6377 79.9927 99.8724 78.8488 100.027 77.7915H101.606L101.709 77.9487ZM115.921 79.4185H113.918L109.003 71.4546H108.948L108.982 71.8989C109.046 72.7466 109.078 73.5213 109.078 74.2231V79.4185H107.595V69.4243H109.577L114.479 77.3472H114.52C114.51 77.2424 114.492 76.8618 114.465 76.2056C114.438 75.5448 114.424 75.0298 114.424 74.6606V69.4243H115.921V79.4185ZM121.69 79.5552C120.515 79.5552 119.594 79.2134 118.929 78.5298C118.268 77.8416 117.938 76.896 117.938 75.6929C117.938 74.4578 118.245 73.4871 118.86 72.7808C119.476 72.0744 120.321 71.7212 121.396 71.7212C122.395 71.7212 123.183 72.0243 123.762 72.6304C124.34 73.2365 124.63 74.0705 124.63 75.1323V76.0005H119.592C119.615 76.7342 119.813 77.2993 120.187 77.6958C120.56 78.0877 121.087 78.2837 121.766 78.2837C122.212 78.2837 122.627 78.2427 123.01 78.1606C123.397 78.0741 123.812 77.9328 124.254 77.7368V79.0425C123.862 79.2293 123.465 79.3615 123.064 79.439C122.663 79.5164 122.205 79.5552 121.69 79.5552ZM121.396 72.938C120.886 72.938 120.476 73.0998 120.166 73.4233C119.861 73.7469 119.678 74.2186 119.619 74.8384H123.051C123.042 74.214 122.891 73.7424 122.6 73.4233C122.308 73.0998 121.907 72.938 121.396 72.938ZM132.655 79.4185L131.678 75.8911C131.559 75.5174 131.345 74.6493 131.035 73.2866H130.974C130.709 74.5171 130.5 75.3898 130.345 75.9048L129.34 79.4185H127.562L125.443 71.8579H127.084L128.048 75.5835C128.267 76.5041 128.422 77.2925 128.513 77.9487H128.554C128.599 77.616 128.668 77.2355 128.759 76.8071C128.854 76.3742 128.937 76.0506 129.005 75.8364L130.153 71.8579H131.917L133.031 75.8364C133.1 76.0597 133.184 76.4015 133.284 76.8618C133.389 77.3221 133.451 77.6799 133.469 77.9351H133.523C133.592 77.3745 133.751 76.5907 134.002 75.5835L134.979 71.8579H136.593L134.46 79.4185H132.655ZM144.529 73.9839L146.895 69.4243H148.672L145.343 75.5425V79.4185H143.702V75.5972L140.387 69.4243H142.164L144.529 73.9839ZM156.526 75.6245C156.526 76.8595 156.21 77.8234 155.576 78.5161C154.943 79.2088 154.061 79.5552 152.931 79.5552C152.224 79.5552 151.6 79.3957 151.058 79.0767C150.515 78.7576 150.098 78.2996 149.807 77.7026C149.515 77.1056 149.369 76.4129 149.369 75.6245C149.369 74.3986 149.684 73.4416 150.312 72.7534C150.941 72.0653 151.828 71.7212 152.972 71.7212C154.065 71.7212 154.931 72.0744 155.569 72.7808C156.207 73.4826 156.526 74.4305 156.526 75.6245ZM151.023 75.6245C151.023 77.37 151.668 78.2427 152.958 78.2427C154.234 78.2427 154.872 77.37 154.872 75.6245C154.872 73.8973 154.229 73.0337 152.944 73.0337C152.27 73.0337 151.78 73.257 151.475 73.7036C151.174 74.1502 151.023 74.7905 151.023 75.6245ZM162.214 71.7212C162.537 71.7212 162.804 71.744 163.014 71.7896L162.856 73.2866C162.629 73.2319 162.392 73.2046 162.146 73.2046C161.503 73.2046 160.981 73.4142 160.58 73.8335C160.184 74.2528 159.985 74.7974 159.985 75.4673V79.4185H158.379V71.8579H159.637L159.849 73.1909H159.931C160.181 72.7397 160.507 72.382 160.908 72.1177C161.314 71.8534 161.749 71.7212 162.214 71.7212ZM165.974 75.4263L166.883 74.2915L169.166 71.8579H171.019L167.977 75.105L171.21 79.4185H169.323L166.896 76.103L166.015 76.8276V79.4185H164.422V68.7817H166.015V73.9702L165.933 75.4263H165.974Z" fill="black"/>
    <rect opacity="0.5" x="194.51" y="34.4185" width="87" height="24" rx="10" fill="#EBF1FF"/>
    <path d="M224.576 49.4185H223.025L222.155 46.0435C222.123 45.9233 222.067 45.6758 221.988 45.3008C221.912 44.9229 221.868 44.6694 221.856 44.5405C221.838 44.6987 221.794 44.9536 221.724 45.3052C221.654 45.6538 221.6 45.9028 221.562 46.0522L220.696 49.4185H219.149L217.51 42.9937H218.85L219.672 46.5005C219.815 47.1479 219.919 47.709 219.984 48.1836C220.001 48.0166 220.041 47.7588 220.103 47.4102C220.167 47.0586 220.227 46.7861 220.283 46.5928L221.219 42.9937H222.506L223.442 46.5928C223.483 46.7539 223.535 47 223.596 47.3311C223.658 47.6621 223.705 47.9463 223.737 48.1836C223.766 47.9551 223.813 47.6709 223.877 47.3311C223.942 46.9883 224 46.7114 224.053 46.5005L224.871 42.9937H226.211L224.576 49.4185ZM228.949 45.3667C228.665 45.3667 228.442 45.4575 228.281 45.6392C228.12 45.8179 228.027 46.0728 228.004 46.4038H229.885C229.879 46.0728 229.792 45.8179 229.625 45.6392C229.458 45.4575 229.233 45.3667 228.949 45.3667ZM229.138 49.5063C228.347 49.5063 227.729 49.2881 227.283 48.8516C226.838 48.415 226.615 47.7969 226.615 46.9971C226.615 46.1738 226.82 45.5381 227.23 45.0898C227.644 44.6387 228.213 44.4131 228.94 44.4131C229.634 44.4131 230.175 44.6108 230.562 45.0063C230.948 45.4019 231.142 45.9482 231.142 46.6455V47.2959H227.973C227.988 47.6768 228.101 47.9741 228.312 48.188C228.522 48.4019 228.818 48.5088 229.199 48.5088C229.495 48.5088 229.775 48.478 230.039 48.4165C230.302 48.355 230.578 48.2568 230.865 48.1221V49.1592C230.63 49.2764 230.38 49.3628 230.113 49.4185C229.847 49.4771 229.521 49.5063 229.138 49.5063ZM234.965 44.4131C235.545 44.4131 235.999 44.6401 236.327 45.0942C236.655 45.5454 236.819 46.165 236.819 46.9531C236.819 47.7646 236.649 48.3931 236.31 48.8384C235.973 49.2837 235.513 49.5063 234.93 49.5063C234.353 49.5063 233.9 49.2969 233.572 48.8779H233.479L233.255 49.4185H232.231V42.5806H233.572V44.1714C233.572 44.3735 233.554 44.6973 233.519 45.1426H233.572C233.885 44.6562 234.35 44.4131 234.965 44.4131ZM234.534 45.4854C234.203 45.4854 233.961 45.5879 233.809 45.793C233.657 45.9951 233.578 46.3306 233.572 46.7993V46.9443C233.572 47.4717 233.649 47.8496 233.805 48.0781C233.963 48.3066 234.212 48.4209 234.552 48.4209C234.827 48.4209 235.045 48.2949 235.207 48.043C235.371 47.7881 235.453 47.4189 235.453 46.9355C235.453 46.4521 235.371 46.0903 235.207 45.8501C235.042 45.6069 234.818 45.4854 234.534 45.4854ZM240.643 45.5117H239.482V49.4185H238.142V45.5117H237.404V44.8657L238.142 44.5054V44.145C238.142 43.5854 238.28 43.1768 238.555 42.9189C238.831 42.6611 239.271 42.5322 239.878 42.5322C240.341 42.5322 240.752 42.6011 241.113 42.7388L240.77 43.7231C240.5 43.6382 240.251 43.5957 240.023 43.5957C239.833 43.5957 239.695 43.6528 239.61 43.7671C239.525 43.8784 239.482 44.022 239.482 44.1978V44.5054H240.643V45.5117ZM242.484 46.9531C242.484 47.4395 242.563 47.8071 242.721 48.0562C242.882 48.3052 243.143 48.4297 243.503 48.4297C243.861 48.4297 244.117 48.3066 244.272 48.0605C244.431 47.8115 244.51 47.4424 244.51 46.9531C244.51 46.4668 244.431 46.1021 244.272 45.8589C244.114 45.6157 243.855 45.4941 243.495 45.4941C243.137 45.4941 242.879 45.6157 242.721 45.8589C242.563 46.0991 242.484 46.4639 242.484 46.9531ZM245.881 46.9531C245.881 47.7529 245.67 48.3784 245.248 48.8296C244.826 49.2808 244.239 49.5063 243.486 49.5063C243.014 49.5063 242.598 49.4038 242.238 49.1987C241.877 48.9907 241.601 48.6934 241.407 48.3066C241.214 47.9199 241.117 47.4688 241.117 46.9531C241.117 46.1504 241.327 45.5264 241.746 45.0811C242.165 44.6357 242.753 44.4131 243.512 44.4131C243.984 44.4131 244.4 44.5156 244.76 44.7207C245.121 44.9258 245.397 45.2202 245.591 45.604C245.784 45.9878 245.881 46.4375 245.881 46.9531ZM249.73 44.4131C249.912 44.4131 250.063 44.4263 250.183 44.4526L250.082 45.7095C249.974 45.6802 249.842 45.6655 249.687 45.6655C249.259 45.6655 248.925 45.7754 248.685 45.9951C248.447 46.2148 248.329 46.5225 248.329 46.918V49.4185H246.988V44.5054H248.003L248.201 45.3315H248.267C248.419 45.0562 248.625 44.835 248.882 44.668C249.143 44.498 249.426 44.4131 249.73 44.4131ZM255.474 49.4185H254.134V46.5488C254.134 46.1943 254.074 45.9292 253.954 45.7534C253.836 45.5747 253.65 45.4854 253.396 45.4854C253.053 45.4854 252.804 45.6113 252.648 45.8633C252.493 46.1152 252.416 46.5298 252.416 47.1069V49.4185H251.075V44.5054H252.099L252.279 45.1338H252.354C252.486 44.9082 252.676 44.7324 252.925 44.6064C253.174 44.4775 253.46 44.4131 253.782 44.4131C254.518 44.4131 255.016 44.6533 255.276 45.1338H255.395C255.527 44.9053 255.72 44.728 255.975 44.6021C256.233 44.4761 256.523 44.4131 256.845 44.4131C257.402 44.4131 257.822 44.5566 258.106 44.8438C258.394 45.1279 258.537 45.585 258.537 46.2148V49.4185H257.192V46.5488C257.192 46.1943 257.132 45.9292 257.012 45.7534C256.895 45.5747 256.709 45.4854 256.454 45.4854C256.126 45.4854 255.88 45.6025 255.716 45.8369C255.555 46.0713 255.474 46.4434 255.474 46.9531V49.4185Z" fill="black"/>
    <defs>
        <filter id="filter0_d" x="0.509766" y="0.418457" width="313" height="122" filterUnits="userSpaceOnUse" color-interpolation-filters="sRGB">
            <feFlood flood-opacity="0" result="BackgroundImageFix"/>
            <feColorMatrix in="SourceAlpha" type="matrix" values="0 0 0 0 0 0 0 0 0 0 0 0 0 0 0 0 0 0 127 0"/>
            <feOffset dy="2"/>
            <feGaussianBlur stdDeviation="10"/>
            <feColorMatrix type="matrix" values="0 0 0 0 0 0 0 0 0 0 0 0 0 0 0 0 0 0 0.08 0"/>
            <feBlend mode="normal" in2="BackgroundImageFix" result="effect1_dropShadow"/>
            <feBlend mode="normal" in="SourceGraphic" in2="effect1_dropShadow" result="shape"/>
        </filter>
    </defs>
</svg>
