<svg width="219" height="68" viewBox="0 0 219 68" fill="none" xmlns="http://www.w3.org/2000/svg">
<rect x="0.509766" y="0.792969" width="218" height="67" rx="10" fill="white"/>
<path opacity="0.8" d="M48.251 24.4185H46.3271L43.2217 19.0181H43.1777C43.2396 19.9718 43.2705 20.6522 43.2705 21.0591V24.4185H41.918V17.2798H43.8271L46.9277 22.6265H46.9619C46.9131 21.6987 46.8887 21.0428 46.8887 20.6587V17.2798H48.251V24.4185ZM54.1641 24.4185H50.0527V17.2798H54.1641V18.52H51.5664V20.0874H53.9834V21.3276H51.5664V23.1685H54.1641V24.4185ZM62.6113 24.4185H60.8877L59.9209 20.6685C59.8851 20.535 59.8232 20.2599 59.7354 19.8433C59.6507 19.4233 59.6019 19.1418 59.5889 18.9985C59.5693 19.1743 59.5205 19.4575 59.4424 19.8481C59.3643 20.2355 59.304 20.5122 59.2617 20.6782L58.2998 24.4185H56.5811L54.7598 17.2798H56.249L57.1621 21.1763C57.3216 21.8957 57.4372 22.519 57.5088 23.0464C57.5283 22.8608 57.5723 22.5744 57.6406 22.187C57.7122 21.7964 57.779 21.4937 57.8408 21.2788L58.8809 17.2798H60.3115L61.3516 21.2788C61.3971 21.4578 61.4541 21.7313 61.5225 22.0991C61.5908 22.467 61.6429 22.7827 61.6787 23.0464C61.7113 22.7925 61.7633 22.4767 61.835 22.0991C61.9066 21.7183 61.9717 21.4106 62.0303 21.1763L62.9385 17.2798H64.4277L62.6113 24.4185ZM70.9561 18.437C70.3864 18.437 69.9453 18.6519 69.6328 19.0815C69.3203 19.508 69.1641 20.1037 69.1641 20.8687C69.1641 22.4604 69.7614 23.2563 70.9561 23.2563C71.4574 23.2563 72.0645 23.131 72.7773 22.8804V24.1499C72.1914 24.394 71.5371 24.5161 70.8145 24.5161C69.776 24.5161 68.9818 24.202 68.4316 23.5737C67.8815 22.9422 67.6064 22.0373 67.6064 20.8589C67.6064 20.1167 67.7415 19.4673 68.0117 18.9106C68.2819 18.3507 68.6693 17.9227 69.1738 17.6265C69.6816 17.327 70.2757 17.1772 70.9561 17.1772C71.6494 17.1772 72.346 17.3449 73.0459 17.6802L72.5576 18.9106C72.2907 18.7837 72.0221 18.673 71.752 18.5786C71.4818 18.4842 71.2165 18.437 70.9561 18.437ZM80.1113 17.2798V21.8989C80.1113 22.4263 79.9925 22.8885 79.7549 23.2856C79.5205 23.6828 79.1803 23.9871 78.7344 24.1987C78.2884 24.4103 77.7611 24.5161 77.1523 24.5161C76.2344 24.5161 75.5215 24.2817 75.0137 23.813C74.5059 23.341 74.252 22.6965 74.252 21.8794V17.2798H75.7607V21.6499C75.7607 22.2 75.8714 22.6037 76.0928 22.8608C76.3141 23.118 76.6803 23.2466 77.1914 23.2466C77.6862 23.2466 78.0443 23.118 78.2656 22.8608C78.4902 22.6004 78.6025 22.1935 78.6025 21.6401V17.2798H80.1113ZM86.0732 22.436C86.0732 23.0806 85.8405 23.5884 85.375 23.9595C84.9128 24.3306 84.2682 24.5161 83.4414 24.5161C82.6797 24.5161 82.0059 24.3729 81.4199 24.0864V22.6802C81.9017 22.895 82.3086 23.0464 82.6406 23.1343C82.9759 23.2222 83.2819 23.2661 83.5586 23.2661C83.8906 23.2661 84.1445 23.2026 84.3203 23.0757C84.4993 22.9487 84.5889 22.7599 84.5889 22.5093C84.5889 22.3693 84.5498 22.2456 84.4717 22.1382C84.3936 22.0275 84.278 21.9217 84.125 21.8208C83.9753 21.7199 83.6676 21.5588 83.2021 21.3374C82.766 21.1323 82.4388 20.9354 82.2207 20.7466C82.0026 20.5578 81.8285 20.3381 81.6982 20.0874C81.568 19.8368 81.5029 19.5438 81.5029 19.2085C81.5029 18.577 81.7161 18.0806 82.1426 17.7192C82.5723 17.3579 83.1647 17.1772 83.9199 17.1772C84.291 17.1772 84.6442 17.2212 84.9795 17.3091C85.318 17.397 85.6712 17.5207 86.0391 17.6802L85.5508 18.8569C85.1699 18.7007 84.8542 18.5916 84.6035 18.5298C84.3561 18.4679 84.112 18.437 83.8711 18.437C83.5846 18.437 83.3649 18.5037 83.2119 18.6372C83.0589 18.7707 82.9824 18.9448 82.9824 19.1597C82.9824 19.2931 83.0133 19.4103 83.0752 19.5112C83.137 19.6089 83.2347 19.7049 83.3682 19.7993C83.5049 19.8905 83.8255 20.0565 84.3301 20.2974C84.9974 20.6164 85.4548 20.937 85.7021 21.2593C85.9495 21.5783 86.0732 21.9705 86.0732 22.436ZM90.1211 24.4185H88.6074V18.5396H86.6689V17.2798H92.0596V18.5396H90.1211V24.4185ZM99.6377 20.8394C99.6377 22.021 99.3447 22.9292 98.7588 23.564C98.1729 24.1987 97.333 24.5161 96.2393 24.5161C95.1455 24.5161 94.3057 24.1987 93.7197 23.564C93.1338 22.9292 92.8408 22.0177 92.8408 20.8296C92.8408 19.6414 93.1338 18.7349 93.7197 18.1099C94.3089 17.4816 95.152 17.1675 96.249 17.1675C97.346 17.1675 98.1842 17.4832 98.7637 18.1147C99.3464 18.7463 99.6377 19.6545 99.6377 20.8394ZM94.4277 20.8394C94.4277 21.6369 94.5791 22.2375 94.8818 22.6411C95.1846 23.0448 95.637 23.2466 96.2393 23.2466C97.4469 23.2466 98.0508 22.4442 98.0508 20.8394C98.0508 19.2313 97.4502 18.4272 96.249 18.4272C95.6468 18.4272 95.1927 18.6307 94.8867 19.0376C94.5807 19.4412 94.4277 20.0418 94.4277 20.8394ZM104.14 24.4185L102.421 18.8179H102.377C102.439 19.9572 102.47 20.7173 102.47 21.0981V24.4185H101.117V17.2798H103.178L104.867 22.7388H104.896L106.688 17.2798H108.749V24.4185H107.338V21.0396C107.338 20.88 107.34 20.6961 107.343 20.4878C107.349 20.2795 107.372 19.7261 107.411 18.8276H107.367L105.526 24.4185H104.14ZM114.662 24.4185H110.551V17.2798H114.662V18.52H112.064V20.0874H114.481V21.3276H112.064V23.1685H114.662V24.4185ZM117.67 20.4487H118.158C118.637 20.4487 118.99 20.369 119.218 20.2095C119.446 20.05 119.56 19.7993 119.56 19.4575C119.56 19.119 119.442 18.8781 119.208 18.7349C118.977 18.5916 118.617 18.52 118.129 18.52H117.67V20.4487ZM117.67 21.6792V24.4185H116.156V17.2798H118.236C119.206 17.2798 119.924 17.4572 120.39 17.812C120.855 18.1636 121.088 18.6991 121.088 19.4185C121.088 19.8384 120.972 20.2127 120.741 20.5415C120.51 20.867 120.183 21.1226 119.76 21.3081C120.834 22.9129 121.534 23.9497 121.859 24.4185H120.18L118.476 21.6792H117.67ZM123.891 22.0503H122.699L122.45 17.2798H124.14L123.891 22.0503ZM122.431 23.7202C122.431 23.4468 122.504 23.2401 122.65 23.1001C122.797 22.9601 123.01 22.8901 123.29 22.8901C123.56 22.8901 123.769 22.9618 123.915 23.105C124.065 23.2482 124.14 23.4533 124.14 23.7202C124.14 23.9774 124.065 24.1808 123.915 24.3306C123.765 24.4771 123.557 24.5503 123.29 24.5503C123.017 24.5503 122.805 24.4787 122.655 24.3354C122.506 24.189 122.431 23.9839 122.431 23.7202Z" fill="#407BFF"/>
<ellipse opacity="0.8" cx="24.0195" cy="19.9185" rx="9" ry="8.5" fill="#407BFF"/>
<path opacity="0.8" d="M20.498 47.4185H16.0562V39.5659H20.498V40.6509H17.3398V42.7886H20.2993V43.8628H17.3398V46.3281H20.498V47.4185ZM27.0723 47.4185H25.8047V43.7554C25.8047 43.3006 25.7188 42.9622 25.5469 42.7402C25.375 42.5146 25.1064 42.4019 24.7412 42.4019C24.2542 42.4019 23.8962 42.5612 23.667 42.8799C23.4414 43.195 23.3286 43.7214 23.3286 44.459V47.4185H22.0664V41.478H23.0547L23.2319 42.2568H23.2964C23.4611 41.974 23.6992 41.7555 24.0107 41.6016C24.3258 41.4476 24.6714 41.3706 25.0474 41.3706C25.9604 41.3706 26.5656 41.6821 26.8628 42.3052H26.9487C27.1242 42.0116 27.3713 41.7824 27.6899 41.6177C28.0086 41.453 28.3739 41.3706 28.7856 41.3706C29.4946 41.3706 30.0103 41.5496 30.3325 41.9077C30.6584 42.2658 30.8213 42.8118 30.8213 43.5459V47.4185H29.5591V43.7554C29.5591 43.3006 29.4714 42.9622 29.2959 42.7402C29.124 42.5146 28.8555 42.4019 28.4902 42.4019C27.9997 42.4019 27.6398 42.5558 27.4106 42.8638C27.1851 43.1681 27.0723 43.6372 27.0723 44.271V47.4185ZM37.5889 47.4185H36.3213V43.7554C36.3213 43.3006 36.2354 42.9622 36.0635 42.7402C35.8916 42.5146 35.623 42.4019 35.2578 42.4019C34.7708 42.4019 34.4128 42.5612 34.1836 42.8799C33.958 43.195 33.8452 43.7214 33.8452 44.459V47.4185H32.583V41.478H33.5713L33.7485 42.2568H33.813C33.9777 41.974 34.2158 41.7555 34.5273 41.6016C34.8424 41.4476 35.188 41.3706 35.564 41.3706C36.4771 41.3706 37.0822 41.6821 37.3794 42.3052H37.4653C37.6408 42.0116 37.8879 41.7824 38.2065 41.6177C38.5252 41.453 38.8905 41.3706 39.3022 41.3706C40.0112 41.3706 40.5269 41.5496 40.8491 41.9077C41.175 42.2658 41.3379 42.8118 41.3379 43.5459V47.4185H40.0757V43.7554C40.0757 43.3006 39.988 42.9622 39.8125 42.7402C39.6406 42.5146 39.3721 42.4019 39.0068 42.4019C38.5163 42.4019 38.1564 42.5558 37.9272 42.8638C37.7017 43.1681 37.5889 43.6372 37.5889 44.271V47.4185ZM46.8164 47.4185L46.564 46.5913H46.521C46.2345 46.953 45.9463 47.2 45.6562 47.3325C45.3662 47.4614 44.9938 47.5259 44.5391 47.5259C43.9554 47.5259 43.4989 47.3683 43.1694 47.0532C42.8436 46.7381 42.6807 46.2923 42.6807 45.7158C42.6807 45.1035 42.908 44.6416 43.3628 44.3301C43.8175 44.0186 44.5104 43.8485 45.4414 43.8198L46.4673 43.7876V43.4707C46.4673 43.0911 46.3778 42.8083 46.1987 42.6221C46.0233 42.4323 45.7493 42.3374 45.377 42.3374C45.0726 42.3374 44.7808 42.3822 44.5015 42.4717C44.2222 42.5612 43.9536 42.6668 43.6958 42.7886L43.2876 41.8862C43.6099 41.7179 43.9626 41.5908 44.3457 41.5049C44.7288 41.4154 45.0905 41.3706 45.4307 41.3706C46.1862 41.3706 46.7555 41.5353 47.1387 41.8647C47.5254 42.1942 47.7188 42.7116 47.7188 43.417V47.4185H46.8164ZM44.9365 46.5591C45.3949 46.5591 45.7619 46.432 46.0376 46.1777C46.3169 45.9199 46.4565 45.5601 46.4565 45.0981V44.5825L45.6938 44.6147C45.0994 44.6362 44.6662 44.7365 44.394 44.9155C44.1255 45.091 43.9912 45.3613 43.9912 45.7266C43.9912 45.9915 44.07 46.1974 44.2275 46.3442C44.3851 46.4875 44.6214 46.5591 44.9365 46.5591ZM50.791 46.2637C50.6191 46.9297 50.304 47.7873 49.8457 48.8364H48.9165C49.1636 47.8696 49.348 46.9709 49.4697 46.1401H50.7104L50.791 46.2637ZM59.8896 41.3706C59.8896 41.8683 59.7446 42.2837 59.4546 42.6167C59.1646 42.9461 58.7563 43.1681 58.23 43.2827V43.3257C58.8602 43.4045 59.3328 43.6014 59.6479 43.9165C59.9631 44.228 60.1206 44.6434 60.1206 45.1626C60.1206 45.9181 59.8538 46.5018 59.3203 46.9136C58.7868 47.3218 58.0277 47.5259 57.043 47.5259C56.1729 47.5259 55.4388 47.3844 54.8408 47.1016V45.979C55.1738 46.1437 55.5265 46.2708 55.8989 46.3604C56.2713 46.4499 56.6294 46.4946 56.9731 46.4946C57.5819 46.4946 58.0366 46.3818 58.3374 46.1562C58.6382 45.9307 58.7886 45.5815 58.7886 45.1089C58.7886 44.6899 58.6221 44.382 58.2891 44.1851C57.9561 43.9881 57.4333 43.8896 56.7207 43.8896H56.0386V42.8638H56.7314C57.9847 42.8638 58.6113 42.4305 58.6113 41.564C58.6113 41.2274 58.5021 40.9678 58.2837 40.7852C58.0653 40.6025 57.743 40.5112 57.3169 40.5112C57.0197 40.5112 56.7332 40.5542 56.4575 40.6401C56.1818 40.7225 55.856 40.8854 55.48 41.1289L54.8623 40.248C55.582 39.7181 56.4181 39.4531 57.3706 39.4531C58.1619 39.4531 58.7796 39.6232 59.2236 39.9634C59.6676 40.3035 59.8896 40.7726 59.8896 41.3706ZM66.7485 45.7051H65.6904V47.4185H64.4604V45.7051H60.8726V44.7329L64.4604 39.5444H65.6904V44.6577H66.7485V45.7051ZM64.4604 44.6577V42.6865C64.4604 41.9847 64.4784 41.41 64.5142 40.9624H64.4712C64.3709 41.1987 64.2134 41.4852 63.9985 41.8218L62.0488 44.6577H64.4604ZM69.1602 46.2637C68.9883 46.9297 68.6732 47.7873 68.2148 48.8364H67.2856C67.5327 47.8696 67.7171 46.9709 67.8389 46.1401H69.0796L69.1602 46.2637ZM77.1255 40.5542C76.3879 40.5542 75.8078 40.8156 75.3853 41.3384C74.9627 41.8612 74.7515 42.5827 74.7515 43.5029C74.7515 44.4661 74.9538 45.1948 75.3584 45.689C75.7666 46.1831 76.3556 46.4302 77.1255 46.4302C77.4585 46.4302 77.7808 46.3979 78.0923 46.3335C78.4038 46.2655 78.7279 46.1795 79.0645 46.0757V47.1768C78.4486 47.4095 77.7503 47.5259 76.9697 47.5259C75.8203 47.5259 74.9377 47.1785 74.3218 46.4839C73.7059 45.7856 73.3979 44.7884 73.3979 43.4922C73.3979 42.6758 73.5465 41.9614 73.8438 41.3491C74.1445 40.7368 74.5778 40.2677 75.1436 39.9419C75.7093 39.616 76.3735 39.4531 77.1362 39.4531C77.9383 39.4531 78.6795 39.6214 79.3599 39.958L78.8979 41.0269C78.633 40.9015 78.3519 40.7923 78.0547 40.6992C77.7611 40.6025 77.4513 40.5542 77.1255 40.5542ZM84.3389 47.4185L84.0864 46.5913H84.0435C83.757 46.953 83.4688 47.2 83.1787 47.3325C82.8887 47.4614 82.5163 47.5259 82.0615 47.5259C81.4779 47.5259 81.0213 47.3683 80.6919 47.0532C80.366 46.7381 80.2031 46.2923 80.2031 45.7158C80.2031 45.1035 80.4305 44.6416 80.8853 44.3301C81.34 44.0186 82.0329 43.8485 82.9639 43.8198L83.9897 43.7876V43.4707C83.9897 43.0911 83.9002 42.8083 83.7212 42.6221C83.5457 42.4323 83.2718 42.3374 82.8994 42.3374C82.5951 42.3374 82.3032 42.3822 82.0239 42.4717C81.7446 42.5612 81.4761 42.6668 81.2183 42.7886L80.8101 41.8862C81.1323 41.7179 81.485 41.5908 81.8682 41.5049C82.2513 41.4154 82.613 41.3706 82.9531 41.3706C83.7087 41.3706 84.278 41.5353 84.6611 41.8647C85.0479 42.1942 85.2412 42.7116 85.2412 43.417V47.4185H84.3389ZM82.459 46.5591C82.9173 46.5591 83.2843 46.432 83.5601 46.1777C83.8394 45.9199 83.979 45.5601 83.979 45.0981V44.5825L83.2163 44.6147C82.6219 44.6362 82.1886 44.7365 81.9165 44.9155C81.6479 45.091 81.5137 45.3613 81.5137 45.7266C81.5137 45.9915 81.5924 46.1974 81.75 46.3442C81.9076 46.4875 82.1439 46.5591 82.459 46.5591ZM88.2651 47.4185H87.0029V39.061H88.2651V47.4185ZM91.3374 47.4185H90.0752V41.478H91.3374V47.4185ZM90 39.9043C90 39.6787 90.0609 39.505 90.1826 39.3833C90.3079 39.2616 90.4852 39.2007 90.7144 39.2007C90.9364 39.2007 91.1082 39.2616 91.23 39.3833C91.3553 39.505 91.418 39.6787 91.418 39.9043C91.418 40.1191 91.3553 40.2892 91.23 40.4146C91.1082 40.5363 90.9364 40.5972 90.7144 40.5972C90.4852 40.5972 90.3079 40.5363 90.1826 40.4146C90.0609 40.2892 90 40.1191 90 39.9043ZM96.1284 42.4341H94.6782V47.4185H93.4106V42.4341H92.4331V41.8433L93.4106 41.4565V41.0698C93.4106 40.368 93.5754 39.8488 93.9048 39.5122C94.2342 39.172 94.7373 39.002 95.4141 39.002C95.8581 39.002 96.2949 39.0754 96.7246 39.2222L96.3916 40.1782C96.0801 40.078 95.7829 40.0278 95.5 40.0278C95.2135 40.0278 95.0041 40.1174 94.8716 40.2964C94.7427 40.4718 94.6782 40.7368 94.6782 41.0913V41.478H96.1284V42.4341ZM102.413 44.4375C102.413 45.4079 102.164 46.1652 101.666 46.7095C101.168 47.2537 100.475 47.5259 99.5874 47.5259C99.0324 47.5259 98.5418 47.4006 98.1157 47.1499C97.6896 46.8993 97.362 46.5394 97.1328 46.0703C96.9036 45.6012 96.7891 45.057 96.7891 44.4375C96.7891 43.4743 97.0361 42.7223 97.5303 42.1816C98.0244 41.641 98.7209 41.3706 99.6196 41.3706C100.479 41.3706 101.159 41.6481 101.661 42.2031C102.162 42.7546 102.413 43.4993 102.413 44.4375ZM98.0889 44.4375C98.0889 45.8089 98.5955 46.4946 99.6089 46.4946C100.611 46.4946 101.113 45.8089 101.113 44.4375C101.113 43.0804 100.608 42.4019 99.5981 42.4019C99.0682 42.4019 98.6833 42.5773 98.4434 42.9282C98.207 43.2791 98.0889 43.7822 98.0889 44.4375ZM106.881 41.3706C107.136 41.3706 107.345 41.3885 107.51 41.4243L107.386 42.6006C107.207 42.5576 107.021 42.5361 106.828 42.5361C106.323 42.5361 105.913 42.7008 105.598 43.0303C105.286 43.3597 105.13 43.7876 105.13 44.314V47.4185H103.868V41.478H104.856L105.023 42.5254H105.087C105.284 42.1709 105.54 41.8898 105.855 41.6821C106.174 41.4744 106.516 41.3706 106.881 41.3706ZM113.842 47.4185H112.575V43.7661C112.575 43.3078 112.482 42.9658 112.295 42.7402C112.113 42.5146 111.821 42.4019 111.42 42.4019C110.886 42.4019 110.496 42.5594 110.249 42.8745C110.002 43.1896 109.878 43.7178 109.878 44.459V47.4185H108.616V41.478H109.604L109.782 42.2568H109.846C110.025 41.974 110.279 41.7555 110.609 41.6016C110.938 41.4476 111.304 41.3706 111.705 41.3706C113.13 41.3706 113.842 42.0957 113.842 43.5459V47.4185ZM116.861 47.4185H115.599V41.478H116.861V47.4185ZM115.523 39.9043C115.523 39.6787 115.584 39.505 115.706 39.3833C115.831 39.2616 116.009 39.2007 116.238 39.2007C116.46 39.2007 116.632 39.2616 116.753 39.3833C116.879 39.505 116.941 39.6787 116.941 39.9043C116.941 40.1191 116.879 40.2892 116.753 40.4146C116.632 40.5363 116.46 40.5972 116.238 40.5972C116.009 40.5972 115.831 40.5363 115.706 40.4146C115.584 40.2892 115.523 40.1191 115.523 39.9043ZM122.388 47.4185L122.135 46.5913H122.092C121.806 46.953 121.518 47.2 121.228 47.3325C120.938 47.4614 120.565 47.5259 120.11 47.5259C119.527 47.5259 119.07 47.3683 118.741 47.0532C118.415 46.7381 118.252 46.2923 118.252 45.7158C118.252 45.1035 118.479 44.6416 118.934 44.3301C119.389 44.0186 120.082 43.8485 121.013 43.8198L122.039 43.7876V43.4707C122.039 43.0911 121.949 42.8083 121.77 42.6221C121.595 42.4323 121.321 42.3374 120.948 42.3374C120.644 42.3374 120.352 42.3822 120.073 42.4717C119.793 42.5612 119.525 42.6668 119.267 42.7886L118.859 41.8862C119.181 41.7179 119.534 41.5908 119.917 41.5049C120.3 41.4154 120.662 41.3706 121.002 41.3706C121.757 41.3706 122.327 41.5353 122.71 41.8647C123.097 42.1942 123.29 42.7116 123.29 43.417V47.4185H122.388ZM120.508 46.5591C120.966 46.5591 121.333 46.432 121.609 46.1777C121.888 45.9199 122.028 45.5601 122.028 45.0981V44.5825L121.265 44.6147C120.671 44.6362 120.237 44.7365 119.965 44.9155C119.697 45.091 119.562 45.3613 119.562 45.7266C119.562 45.9915 119.641 46.1974 119.799 46.3442C119.956 46.4875 120.193 46.5591 120.508 46.5591Z" fill="black"/>
<rect opacity="0.5" x="142.02" y="8.41846" width="70" height="20" rx="8" fill="#EBF1FF"/>
<path d="M162.163 17.9329C162.161 18.5208 162.054 19.0137 161.843 19.4117C161.634 19.8074 161.327 20.0967 160.923 20.2797L162.121 21.6276L160.764 21.6224L159.853 20.4978L159.774 20.4975C159.008 20.4945 158.421 20.2701 158.013 19.8242C157.605 19.3783 157.402 18.7395 157.405 17.9078C157.408 17.0761 157.616 16.4423 158.028 16.0063C158.442 15.5682 159.033 15.3505 159.801 15.3535C160.569 15.3564 161.155 15.5797 161.558 16.0233C161.965 16.467 162.166 17.1035 162.163 17.9329ZM158.516 17.9189C158.514 18.4771 158.618 18.898 158.829 19.1813C159.04 19.4647 159.356 19.6072 159.778 19.6088C160.623 19.6121 161.048 19.052 161.052 17.9286C161.056 16.803 160.638 16.2386 159.797 16.2353C159.376 16.2337 159.057 16.3749 158.842 16.6589C158.627 16.9406 158.518 17.3606 158.516 17.9189ZM165.814 20.4523L165.676 19.963L165.621 19.9628C165.509 20.1401 165.35 20.2774 165.144 20.3746C164.939 20.4695 164.705 20.5164 164.443 20.5154C163.994 20.5137 163.656 20.3928 163.429 20.1526C163.202 19.9102 163.09 19.5634 163.091 19.1123L163.101 16.6206L164.144 16.6246L164.135 18.8565C164.134 19.1322 164.182 19.3398 164.28 19.4792C164.377 19.6162 164.533 19.6852 164.747 19.686C165.039 19.6872 165.25 19.5911 165.38 19.3979C165.511 19.2025 165.577 18.8792 165.579 18.428L165.586 16.6302L166.628 16.6342L166.614 20.4554L165.814 20.4523ZM170.134 20.469L169.935 19.9487L169.907 19.9486C169.731 20.1689 169.549 20.322 169.362 20.4079C169.177 20.4915 168.935 20.5327 168.637 20.5316C168.27 20.5302 167.981 20.4242 167.77 20.2138C167.561 20.0033 167.457 19.7044 167.459 19.3171C167.46 18.9115 167.603 18.6135 167.886 18.4232C168.172 18.2306 168.601 18.1252 169.173 18.1069L169.836 18.0889L169.836 17.9214C169.838 17.534 169.64 17.3396 169.244 17.3381C168.939 17.3369 168.579 17.4278 168.166 17.6108L167.824 16.9054C168.264 16.6769 168.752 16.5637 169.288 16.5658C169.801 16.5678 170.193 16.6809 170.466 16.9053C170.738 17.1296 170.874 17.4697 170.872 17.9254L170.862 20.4718L170.134 20.469ZM169.833 18.6973L169.43 18.7094C169.127 18.7174 168.901 18.7712 168.753 18.8709C168.604 18.9706 168.529 19.1229 168.529 19.328C168.528 19.622 168.696 19.7696 169.033 19.7709C169.274 19.7718 169.467 19.703 169.611 19.5646C169.758 19.4262 169.831 19.2419 169.832 19.0117L169.833 18.6973ZM172.981 20.4799L171.939 20.4759L171.959 15.1576L173.002 15.1616L172.981 20.4799ZM174.053 15.6749C174.054 15.3354 174.244 15.1664 174.622 15.1678C175 15.1693 175.189 15.3398 175.187 15.6793C175.187 15.8411 175.138 15.9674 175.042 16.0581C174.949 16.1466 174.807 16.1905 174.618 16.1898C174.24 16.1883 174.051 16.0167 174.053 15.6749ZM175.121 20.4881L174.078 20.4841L174.093 16.6629L175.136 16.6669L175.121 20.4881ZM178.342 17.4619L177.44 17.4585L177.428 20.497L176.386 20.493L176.397 17.4545L175.823 17.4523L175.825 16.9498L176.4 16.6718L176.401 16.3915C176.403 15.9563 176.511 15.6388 176.726 15.4391C176.941 15.2394 177.285 15.1405 177.756 15.1423C178.116 15.1437 178.436 15.1985 178.716 15.3066L178.447 16.0712C178.237 16.0043 178.044 15.9706 177.866 15.9699C177.718 15.9693 177.611 16.0133 177.544 16.1019C177.478 16.1883 177.444 16.2998 177.444 16.4365L177.443 16.6758L178.345 16.6792L178.342 17.4619ZM178.903 15.6936C178.904 15.3541 179.094 15.185 179.472 15.1865C179.85 15.1879 180.039 15.3584 180.037 15.6979C180.037 15.8597 179.988 15.986 179.892 16.0768C179.799 16.1653 179.657 16.2092 179.468 16.2085C179.09 16.207 178.901 16.0354 178.903 15.6936ZM179.971 20.5068L178.929 20.5028L178.943 16.6815L179.986 16.6855L179.971 20.5068ZM182.659 17.3658C182.438 17.3649 182.265 17.4349 182.139 17.5757C182.013 17.7142 181.941 17.9122 181.921 18.1696L183.384 18.1752C183.381 17.9177 183.314 17.7192 183.185 17.5797C183.056 17.4379 182.88 17.3666 182.659 17.3658ZM182.794 20.586C182.179 20.5837 181.699 20.4121 181.354 20.0712C181.009 19.7304 180.837 19.2489 180.84 18.6268C180.842 17.9865 181.003 17.4927 181.324 17.1453C181.646 16.7956 182.09 16.6219 182.655 16.624C183.195 16.6261 183.615 16.7815 183.915 17.0903C184.214 17.3991 184.363 17.8246 184.361 18.3669L184.359 18.8728L181.895 18.8633C181.905 19.1596 181.992 19.3912 182.155 19.5582C182.319 19.7251 182.549 19.8092 182.845 19.8103C183.075 19.8112 183.293 19.7881 183.498 19.7411C183.703 19.694 183.918 19.6185 184.141 19.5145L184.138 20.3212C183.956 20.4116 183.761 20.4781 183.553 20.5206C183.345 20.5654 183.092 20.5872 182.794 20.586ZM186.41 20.5999C185.961 20.5982 185.609 20.4225 185.353 20.0729C185.099 19.7233 184.973 19.2397 184.975 18.6222C184.978 17.9956 185.11 17.5085 185.371 17.1609C185.634 16.811 185.995 16.6369 186.453 16.6386C186.934 16.6405 187.3 16.8288 187.551 17.2034L187.585 17.2036C187.534 16.9185 187.509 16.6644 187.51 16.4411L187.514 15.2174L188.56 15.2215L188.54 20.5398L187.74 20.5367L187.54 20.0403L187.496 20.0401C187.257 20.4152 186.895 20.6018 186.41 20.5999ZM186.779 19.7708C187.046 19.7718 187.241 19.6951 187.364 19.5406C187.49 19.3861 187.56 19.1232 187.573 18.7519L187.573 18.6391C187.575 18.2289 187.512 17.9347 187.385 17.7565C187.26 17.5783 187.056 17.4886 186.771 17.4875C186.538 17.4866 186.357 17.5851 186.226 17.7828C186.098 17.9783 186.033 18.264 186.031 18.64C186.03 19.0159 186.094 19.2987 186.223 19.4884C186.352 19.6757 186.538 19.7699 186.779 19.7708ZM193.669 16.3725C193.27 16.3709 192.961 16.5201 192.741 16.8201C192.521 17.1177 192.41 17.5343 192.408 18.0698C192.404 19.184 192.82 19.7428 193.656 19.746C194.007 19.7473 194.432 19.6612 194.932 19.4877L194.929 20.3764C194.518 20.5457 194.06 20.6294 193.554 20.6274C192.827 20.6246 192.272 20.4026 191.888 19.9613C191.505 19.5178 191.315 18.8836 191.318 18.0587C191.32 17.5392 191.416 17.085 191.607 16.6961C191.797 16.3049 192.07 16.0063 192.424 15.8003C192.78 15.592 193.196 15.4888 193.673 15.4906C194.158 15.4925 194.645 15.6117 195.134 15.8483L194.789 16.7083C194.602 16.6187 194.415 16.5405 194.226 16.4737C194.037 16.4069 193.851 16.3732 193.669 16.3725ZM198.339 20.5775L198.139 20.0572L198.112 20.0571C197.936 20.2774 197.754 20.4305 197.567 20.5164C197.382 20.6 197.14 20.6412 196.842 20.6401C196.475 20.6387 196.186 20.5327 195.975 20.3223C195.766 20.1118 195.662 19.8129 195.664 19.4256C195.665 19.02 195.808 18.722 196.091 18.5317C196.377 18.3391 196.805 18.2337 197.377 18.2154L198.041 18.1974L198.041 18.0299C198.043 17.6425 197.845 17.4481 197.449 17.4466C197.143 17.4454 196.784 17.5363 196.371 17.7193L196.029 17.0139C196.469 16.7854 196.957 16.6722 197.493 16.6743C198.005 16.6763 198.398 16.7894 198.671 17.0138C198.943 17.2381 199.079 17.5782 199.077 18.0339L199.067 20.5803L198.339 20.5775ZM198.038 18.8058L197.635 18.8179C197.332 18.8259 197.106 18.8797 196.957 18.9794C196.809 19.0791 196.734 19.2314 196.734 19.4365C196.732 19.7305 196.9 19.8781 197.238 19.8794C197.479 19.8803 197.672 19.8115 197.816 19.6731C197.963 19.5347 198.036 19.3504 198.037 19.1202L198.038 18.8058ZM201.186 20.5884L200.144 20.5844L200.164 15.2661L201.207 15.2701L201.186 20.5884ZM203.326 20.5967L202.283 20.5926L202.304 15.2743L203.346 15.2783L203.326 20.5967Z" fill="black"/>
</svg>
