<svg width="332" height="609" viewBox="0 0 332 609" fill="none" xmlns="http://www.w3.org/2000/svg">
    <g filter="url(#filter0_dd)">
        <rect x="22.5098" y="18.4185" width="252" height="533" rx="30" fill="#EBF1FF"/>
        <rect x="19.0098" y="14.9185" width="259" height="540" rx="33.5" stroke="white" stroke-width="7"/>
    </g>
    <path d="M86.0137 143.418L82.9082 134.476H82.8496C82.9326 135.804 82.9741 137.049 82.9741 138.211V143.418H81.3848V132.71H83.853L86.8267 141.229H86.8706L89.9321 132.71H92.4077V143.418H90.7231V138.123C90.7231 137.591 90.7354 136.897 90.7598 136.043C90.7891 135.188 90.8135 134.671 90.833 134.49H90.7744L87.5591 143.418H86.0137ZM102.229 139.354C102.229 140.677 101.89 141.709 101.211 142.452C100.533 143.194 99.5879 143.565 98.377 143.565C97.6201 143.565 96.9512 143.394 96.3701 143.052C95.7891 142.71 95.3423 142.22 95.0298 141.58C94.7173 140.94 94.561 140.198 94.561 139.354C94.561 138.04 94.8979 137.015 95.5718 136.277C96.2456 135.54 97.1953 135.171 98.4209 135.171C99.5928 135.171 100.521 135.55 101.204 136.307C101.888 137.059 102.229 138.074 102.229 139.354ZM96.3335 139.354C96.3335 141.224 97.0244 142.159 98.4062 142.159C99.7734 142.159 100.457 141.224 100.457 139.354C100.457 137.503 99.7686 136.578 98.3916 136.578C97.6689 136.578 97.144 136.817 96.8169 137.295C96.4946 137.774 96.3335 138.46 96.3335 139.354ZM111.341 143.418H109.612V138.438C109.612 137.813 109.485 137.347 109.231 137.039C108.982 136.731 108.584 136.578 108.038 136.578C107.31 136.578 106.778 136.792 106.441 137.222C106.104 137.652 105.936 138.372 105.936 139.383V143.418H104.214V135.318H105.562L105.804 136.38H105.892C106.136 135.994 106.482 135.696 106.932 135.486C107.381 135.276 107.879 135.171 108.426 135.171C110.369 135.171 111.341 136.16 111.341 138.138V143.418ZM116.468 143.565C115.457 143.565 114.668 143.199 114.102 142.466C113.536 141.734 113.252 140.706 113.252 139.383C113.252 138.055 113.538 137.022 114.109 136.285C114.686 135.542 115.481 135.171 116.497 135.171C117.562 135.171 118.372 135.564 118.929 136.351H119.017C118.934 135.77 118.892 135.311 118.892 134.974V132.022H120.621V143.418H119.273L118.973 142.356H118.892C118.34 143.162 117.532 143.565 116.468 143.565ZM116.929 142.173C117.637 142.173 118.152 141.976 118.475 141.58C118.797 141.18 118.963 140.533 118.973 139.639V139.397C118.973 138.377 118.807 137.652 118.475 137.222C118.143 136.792 117.623 136.578 116.915 136.578C116.309 136.578 115.843 136.824 115.516 137.317C115.188 137.806 115.025 138.504 115.025 139.412C115.025 140.311 115.184 140.997 115.501 141.47C115.818 141.939 116.294 142.173 116.929 142.173ZM128.15 143.418L127.806 142.291H127.747C127.356 142.784 126.963 143.121 126.568 143.301C126.172 143.477 125.665 143.565 125.044 143.565C124.249 143.565 123.626 143.35 123.177 142.92C122.732 142.491 122.51 141.883 122.51 141.097C122.51 140.262 122.82 139.632 123.44 139.207C124.061 138.782 125.005 138.55 126.275 138.511L127.674 138.467V138.035C127.674 137.518 127.552 137.132 127.308 136.878C127.068 136.619 126.695 136.49 126.187 136.49C125.772 136.49 125.374 136.551 124.993 136.673C124.612 136.795 124.246 136.939 123.895 137.105L123.338 135.875C123.777 135.645 124.258 135.472 124.781 135.354C125.303 135.232 125.796 135.171 126.26 135.171C127.291 135.171 128.067 135.396 128.589 135.845C129.117 136.294 129.38 137 129.38 137.962V143.418H128.15ZM125.586 142.247C126.211 142.247 126.712 142.073 127.088 141.727C127.469 141.375 127.659 140.884 127.659 140.254V139.551L126.619 139.595C125.809 139.625 125.218 139.761 124.847 140.005C124.48 140.245 124.297 140.613 124.297 141.111C124.297 141.473 124.405 141.753 124.62 141.954C124.834 142.149 125.157 142.247 125.586 142.247ZM130.552 135.318H132.427L134.075 139.91C134.324 140.564 134.49 141.18 134.573 141.756H134.632C134.676 141.487 134.756 141.163 134.874 140.782C134.991 140.396 135.611 138.575 136.734 135.318H138.594L135.13 144.495C134.5 146.18 133.45 147.022 131.98 147.022C131.6 147.022 131.229 146.98 130.867 146.897V145.535C131.126 145.594 131.421 145.623 131.753 145.623C132.583 145.623 133.167 145.142 133.504 144.18L133.804 143.418L130.552 135.318ZM148.204 143.418H146.482V136.504C146.482 135.679 146.502 135.025 146.541 134.542C146.429 134.659 146.29 134.788 146.124 134.93C145.962 135.071 145.416 135.521 144.483 136.277L143.619 135.186L146.768 132.71H148.204V143.418ZM152.935 143.418L157.168 134.241H151.602V132.725H159.007V133.926L154.795 143.418H152.935ZM171.583 143.418L170.513 140.445H166.419L165.372 143.418H163.526L167.532 132.667H169.437L173.443 143.418H171.583ZM170.052 138.936L169.048 136.021C168.975 135.826 168.873 135.518 168.741 135.098C168.614 134.678 168.526 134.371 168.477 134.175C168.345 134.776 168.152 135.433 167.898 136.146L166.932 138.936H170.052ZM180.386 143.418L180.145 142.356H180.057C179.817 142.732 179.476 143.028 179.031 143.243C178.592 143.458 178.089 143.565 177.522 143.565C176.541 143.565 175.809 143.321 175.325 142.833C174.842 142.344 174.6 141.604 174.6 140.613V135.318H176.336V140.313C176.336 140.933 176.463 141.399 176.717 141.712C176.971 142.02 177.369 142.173 177.911 142.173C178.633 142.173 179.163 141.958 179.5 141.529C179.842 141.094 180.013 140.369 180.013 139.354V135.318H181.741V143.418H180.386ZM191.036 135.318V136.263L189.651 136.519C189.778 136.69 189.883 136.9 189.966 137.149C190.049 137.398 190.091 137.662 190.091 137.94C190.091 138.775 189.803 139.432 189.227 139.91C188.65 140.389 187.857 140.628 186.846 140.628C186.587 140.628 186.353 140.608 186.143 140.569C185.772 140.799 185.586 141.067 185.586 141.375C185.586 141.561 185.672 141.7 185.843 141.792C186.019 141.885 186.338 141.932 186.802 141.932H188.216C189.109 141.932 189.788 142.122 190.252 142.503C190.716 142.884 190.948 143.433 190.948 144.151C190.948 145.069 190.569 145.777 189.812 146.275C189.056 146.773 187.962 147.022 186.531 147.022C185.428 147.022 184.585 146.827 184.004 146.436C183.423 146.045 183.133 145.489 183.133 144.766C183.133 144.268 183.289 143.848 183.602 143.506C183.919 143.169 184.361 142.935 184.927 142.803C184.698 142.706 184.507 142.549 184.356 142.334C184.209 142.115 184.136 141.885 184.136 141.646C184.136 141.343 184.222 141.087 184.393 140.877C184.563 140.667 184.817 140.459 185.154 140.254C184.734 140.074 184.393 139.781 184.129 139.375C183.87 138.965 183.741 138.487 183.741 137.94C183.741 137.061 184.017 136.38 184.568 135.896C185.125 135.413 185.916 135.171 186.941 135.171C187.171 135.171 187.41 135.188 187.659 135.223C187.913 135.252 188.104 135.284 188.23 135.318H191.036ZM184.671 144.678C184.671 145.049 184.837 145.335 185.169 145.535C185.506 145.735 185.977 145.835 186.583 145.835C187.52 145.835 188.218 145.701 188.677 145.433C189.136 145.164 189.366 144.808 189.366 144.363C189.366 144.012 189.239 143.76 188.985 143.609C188.736 143.462 188.27 143.389 187.586 143.389H186.282C185.789 143.389 185.396 143.504 185.103 143.733C184.815 143.968 184.671 144.283 184.671 144.678ZM185.411 137.94C185.411 138.448 185.54 138.838 185.799 139.112C186.062 139.385 186.438 139.522 186.927 139.522C187.923 139.522 188.421 138.99 188.421 137.925C188.421 137.398 188.296 136.993 188.047 136.709C187.803 136.421 187.43 136.277 186.927 136.277C186.429 136.277 186.05 136.419 185.792 136.702C185.538 136.985 185.411 137.398 185.411 137.94ZM198.257 143.418L198.016 142.356H197.928C197.688 142.732 197.347 143.028 196.902 143.243C196.463 143.458 195.96 143.565 195.394 143.565C194.412 143.565 193.68 143.321 193.196 142.833C192.713 142.344 192.471 141.604 192.471 140.613V135.318H194.207V140.313C194.207 140.933 194.334 141.399 194.588 141.712C194.842 142.02 195.24 142.173 195.782 142.173C196.504 142.173 197.034 141.958 197.371 141.529C197.713 141.094 197.884 140.369 197.884 139.354V135.318H199.612V143.418H198.257ZM207.508 141.111C207.508 141.902 207.22 142.51 206.644 142.935C206.067 143.355 205.242 143.565 204.168 143.565C203.089 143.565 202.222 143.401 201.568 143.074V141.587C202.52 142.027 203.406 142.247 204.227 142.247C205.286 142.247 205.816 141.927 205.816 141.287C205.816 141.082 205.757 140.911 205.64 140.774C205.523 140.638 205.33 140.496 205.062 140.35C204.793 140.203 204.419 140.037 203.941 139.852C203.008 139.49 202.376 139.129 202.044 138.768C201.717 138.406 201.553 137.938 201.553 137.361C201.553 136.668 201.832 136.131 202.388 135.75C202.95 135.364 203.711 135.171 204.673 135.171C205.625 135.171 206.526 135.364 207.376 135.75L206.819 137.046C205.945 136.685 205.21 136.504 204.615 136.504C203.707 136.504 203.252 136.763 203.252 137.281C203.252 137.535 203.37 137.75 203.604 137.925C203.843 138.101 204.361 138.343 205.157 138.65C205.826 138.909 206.312 139.146 206.614 139.361C206.917 139.576 207.142 139.825 207.288 140.108C207.435 140.386 207.508 140.721 207.508 141.111ZM212.393 142.173C212.813 142.173 213.233 142.107 213.653 141.976V143.272C213.462 143.355 213.216 143.423 212.913 143.477C212.615 143.536 212.305 143.565 211.983 143.565C210.352 143.565 209.537 142.706 209.537 140.987V136.622H208.431V135.86L209.617 135.23L210.203 133.516H211.265V135.318H213.572V136.622H211.265V140.958C211.265 141.373 211.368 141.68 211.573 141.88C211.783 142.076 212.056 142.173 212.393 142.173Z" fill="#001762" fill-opacity="0.5"/>
    <path d="M106.938 96.7334C106.938 103.519 105.863 108.586 103.715 111.934C101.584 115.282 98.3169 116.956 93.9126 116.956C89.6873 116.956 86.4736 115.246 84.2715 111.826C82.0693 108.389 80.9683 103.358 80.9683 96.7334C80.9683 89.8942 82.0335 84.8185 84.1641 81.5063C86.2946 78.1942 89.5441 76.5381 93.9126 76.5381C98.1737 76.5381 101.405 78.2658 103.607 81.7212C105.827 85.1766 106.938 90.1807 106.938 96.7334ZM85.48 96.7334C85.48 102.445 86.1514 106.607 87.4941 109.221C88.8369 111.817 90.9764 113.115 93.9126 113.115C96.8846 113.115 99.033 111.799 100.358 109.167C101.701 106.518 102.372 102.373 102.372 96.7334C102.372 91.0938 101.701 86.967 100.358 84.353C99.033 81.7212 96.8846 80.4053 93.9126 80.4053C90.9764 80.4053 88.8369 81.7033 87.4941 84.2993C86.1514 86.8774 85.48 91.0221 85.48 96.7334ZM125.387 76.5918C128.968 76.5918 131.806 77.4243 133.9 79.0894C135.995 80.7544 137.042 83.055 137.042 85.9912C137.042 87.9248 136.443 89.6883 135.243 91.2817C134.044 92.8752 132.128 94.3254 129.496 95.6323C132.683 97.1541 134.948 98.7565 136.291 100.439C137.633 102.104 138.305 104.038 138.305 106.24C138.305 109.499 137.168 112.104 134.894 114.055C132.62 115.989 129.505 116.956 125.548 116.956C121.359 116.956 118.136 116.042 115.88 114.216C113.625 112.372 112.497 109.767 112.497 106.401C112.497 101.908 115.236 98.4074 120.714 95.9009C118.244 94.5044 116.471 93.0005 115.397 91.3892C114.323 89.7599 113.786 87.9427 113.786 85.9375C113.786 83.0908 114.833 80.826 116.928 79.1431C119.04 77.4422 121.86 76.5918 125.387 76.5918ZM116.901 106.509C116.901 108.657 117.644 110.331 119.13 111.531C120.634 112.73 122.737 113.33 125.441 113.33C128.109 113.33 130.185 112.703 131.671 111.45C133.157 110.197 133.9 108.478 133.9 106.294C133.9 104.557 133.202 103.018 131.806 101.675C130.409 100.314 127.974 98.9982 124.501 97.7271C121.833 98.8729 119.9 100.144 118.7 101.541C117.501 102.919 116.901 104.575 116.901 106.509ZM125.333 80.2173C123.096 80.2173 121.341 80.7544 120.07 81.8286C118.799 82.9028 118.163 84.3351 118.163 86.1255C118.163 87.7726 118.691 89.187 119.748 90.3687C120.804 91.5503 122.755 92.7319 125.602 93.9136C128.162 92.8394 129.971 91.6846 131.027 90.4492C132.101 89.2139 132.638 87.7726 132.638 86.1255C132.638 84.3172 131.985 82.8849 130.678 81.8286C129.389 80.7544 127.607 80.2173 125.333 80.2173ZM145.26 113.572C145.26 112.372 145.529 111.468 146.066 110.859C146.621 110.233 147.409 109.919 148.429 109.919C149.468 109.919 150.273 110.233 150.846 110.859C151.437 111.468 151.732 112.372 151.732 113.572C151.732 114.736 151.437 115.631 150.846 116.257C150.255 116.884 149.45 117.197 148.429 117.197C147.516 117.197 146.755 116.92 146.146 116.365C145.556 115.792 145.26 114.861 145.26 113.572ZM145.26 89.8584C145.26 87.4414 146.317 86.2329 148.429 86.2329C150.631 86.2329 151.732 87.4414 151.732 89.8584C151.732 91.0221 151.437 91.9173 150.846 92.5439C150.255 93.1706 149.45 93.4839 148.429 93.4839C147.516 93.4839 146.755 93.2064 146.146 92.6514C145.556 92.0785 145.26 91.1475 145.26 89.8584ZM182.858 86.394C182.858 88.9006 182.151 90.9505 180.736 92.5439C179.34 94.1374 177.353 95.2026 174.774 95.7397V95.9546C177.925 96.3485 180.262 97.3511 181.784 98.9624C183.306 100.574 184.066 102.686 184.066 105.3C184.066 109.042 182.768 111.925 180.172 113.948C177.576 115.953 173.888 116.956 169.108 116.956C167.031 116.956 165.124 116.794 163.388 116.472C161.669 116.168 159.995 115.622 158.366 114.834V110.591C160.067 111.432 161.875 112.077 163.791 112.524C165.724 112.954 167.55 113.169 169.269 113.169C176.055 113.169 179.447 110.51 179.447 105.193C179.447 100.431 175.705 98.0493 168.222 98.0493H164.354V94.209H168.275C171.337 94.209 173.763 93.5376 175.553 92.1948C177.344 90.8341 178.239 88.9543 178.239 86.5552C178.239 84.6395 177.576 83.1356 176.251 82.0435C174.944 80.9513 173.163 80.4053 170.907 80.4053C169.188 80.4053 167.568 80.638 166.046 81.1035C164.525 81.569 162.788 82.4284 160.836 83.6816L158.581 80.6738C160.192 79.4027 162.045 78.409 164.14 77.6929C166.252 76.9588 168.472 76.5918 170.8 76.5918C174.613 76.5918 177.576 77.4691 179.689 79.2236C181.802 80.9603 182.858 83.3504 182.858 86.394ZM217.663 107.395H211.835V116.418H207.565V107.395H188.471V103.501L207.108 76.9409H211.835V103.34H217.663V107.395ZM207.565 103.34V90.2881C207.565 87.7279 207.654 84.8364 207.833 81.6138H207.619C206.759 83.3325 205.954 84.7559 205.202 85.8838L192.929 103.34H207.565Z" fill="#001762" fill-opacity="0.5"/>
    <path d="M170.51 512.418C170.51 523.976 160.925 533.418 149.01 533.418C137.095 533.418 127.51 523.976 127.51 512.418C127.51 500.861 137.095 491.418 149.01 491.418C160.925 491.418 170.51 500.861 170.51 512.418Z" stroke="white" stroke-width="4"/>
    <defs>
        <filter id="filter0_dd" x="0.509766" y="0.418457" width="331" height="608" filterUnits="userSpaceOnUse" color-interpolation-filters="sRGB">
            <feFlood flood-opacity="0" result="BackgroundImageFix"/>
            <feColorMatrix in="SourceAlpha" type="matrix" values="0 0 0 0 0 0 0 0 0 0 0 0 0 0 0 0 0 0 127 0"/>
            <feOffset dx="30" dy="30"/>
            <feGaussianBlur stdDeviation="10"/>
            <feColorMatrix type="matrix" values="0 0 0 0 0 0 0 0 0 0 0 0 0 0 0 0 0 0 0.03 0"/>
            <feBlend mode="normal" in2="BackgroundImageFix" result="effect1_dropShadow"/>
            <feColorMatrix in="SourceAlpha" type="matrix" values="0 0 0 0 0 0 0 0 0 0 0 0 0 0 0 0 0 0 127 0"/>
            <feOffset dy="4"/>
            <feGaussianBlur stdDeviation="7.5"/>
            <feColorMatrix type="matrix" values="0 0 0 0 0 0 0 0 0 0 0 0 0 0 0 0 0 0 0.03 0"/>
            <feBlend mode="normal" in2="effect1_dropShadow" result="effect2_dropShadow"/>
            <feBlend mode="normal" in="SourceGraphic" in2="effect2_dropShadow" result="shape"/>
        </filter>
    </defs>
</svg>
