<svg width="92" height="91" viewBox="0 0 92 91" fill="none" xmlns="http://www.w3.org/2000/svg">
<path d="M21.584 82.6699H49.9173C53.2373 82.6699 55.8496 79.9691 55.8496 76.6491V72.0449H15.4746V76.6491C15.4746 79.9691 18.264 82.6699 21.584 82.6699ZM35.7506 73.6387C36.4861 73.6387 37.2051 73.8568 37.8167 74.2654C38.4282 74.674 38.9049 75.2548 39.1863 75.9343C39.4678 76.6138 39.5414 77.3616 39.3979 78.0829C39.2545 78.8043 38.9003 79.4669 38.3802 79.987C37.8601 80.5071 37.1975 80.8612 36.4761 81.0047C35.7548 81.1482 35.0071 81.0746 34.3275 80.7931C33.648 80.5116 33.0672 80.035 32.6586 79.4235C32.25 78.8119 32.0319 78.0929 32.0319 77.3574C32.033 76.3715 32.4252 75.4263 33.1223 74.7291C33.8195 74.032 34.7647 73.6398 35.7506 73.6387Z" fill="#407BFF"/>
<path d="M35.8389 31.1388V31.9134L53.8325 46.0654C53.8642 46.0903 53.9331 46.1171 53.9618 46.1456C54.5304 46.7086 55.2984 47.0245 56.0986 47.0245C56.8989 47.0245 57.6668 46.7086 58.2355 46.1456C58.264 46.1173 58.2721 46.0905 58.3038 46.0655L76.2139 31.9152V31.1388C76.2139 29.7718 75.1903 28.6597 73.8232 28.6597H38.4066C37.0395 28.6597 35.8389 29.7718 35.8389 31.1388Z" fill="#407BFF"/>
<path d="M55.8496 60.1802H38.4069C35.8682 60.1802 33.7142 58.1147 33.7142 55.576V31.1385C33.7142 28.5998 35.8682 26.5343 38.4069 26.5343H55.8496V19.2739H53.459C53.1772 19.2739 52.9069 19.162 52.7077 18.9627C52.5084 18.7635 52.3965 18.4932 52.3965 18.2114C52.3965 17.9296 52.5084 17.6594 52.7077 17.4601C52.9069 17.2609 53.1772 17.1489 53.459 17.1489H55.8496V14.6698C55.8496 11.3498 53.2373 8.64893 49.9173 8.64893H21.584C18.264 8.64893 15.4746 11.3498 15.4746 14.6698V17.1489H44.4277C44.7095 17.1489 44.9798 17.2609 45.179 17.4601C45.3783 17.6594 45.4902 17.9296 45.4902 18.2114C45.4902 18.4932 45.3783 18.7635 45.179 18.9627C44.9798 19.162 44.7095 19.2739 44.4277 19.2739H15.4746V69.9198H55.8496V60.1802ZM47.9163 17.1489H49.8837C50.1655 17.1489 50.4357 17.2609 50.635 17.4601C50.8342 17.6594 50.9462 17.9296 50.9462 18.2114C50.9462 18.4932 50.8342 18.7635 50.635 18.9627C50.4357 19.162 50.1655 19.2739 49.8837 19.2739H47.9163C47.6345 19.2739 47.3642 19.162 47.165 18.9627C46.9657 18.7635 46.8538 18.4932 46.8538 18.2114C46.8538 17.9296 46.9657 17.6594 47.165 17.4601C47.3642 17.2609 47.6345 17.1489 47.9163 17.1489Z" fill="#407BFF"/>
<path d="M35.751 78.9512C36.6312 78.9512 37.3447 78.2376 37.3447 77.3574C37.3447 76.4772 36.6312 75.7637 35.751 75.7637C34.8708 75.7637 34.1572 76.4772 34.1572 77.3574C34.1572 78.2376 34.8708 78.9512 35.751 78.9512Z" fill="#407BFF"/>
<path d="M66.4275 45.6199C66.5345 45.5316 66.658 45.4655 66.7907 45.4252C66.9235 45.385 67.0629 45.3715 67.2009 45.3855C67.3389 45.3995 67.4728 45.4407 67.5948 45.5068C67.7167 45.5729 67.8244 45.6625 67.9115 45.7704L76.2234 55.9724C76.2306 55.8403 76.2274 55.7078 76.2139 55.5762V34.6207L59.653 47.699C58.7021 48.6294 57.424 49.1494 56.0937 49.147C54.7465 49.1505 53.4505 48.6313 52.4781 47.6989L35.8389 34.6191V55.5762C35.8546 55.7067 35.8804 55.8357 35.9163 55.9621L44.2215 45.7736C44.3086 45.663 44.4168 45.5708 44.5399 45.5023C44.6629 45.4339 44.7984 45.3906 44.9383 45.375C45.0782 45.3594 45.2199 45.3717 45.355 45.4113C45.4901 45.4509 45.616 45.517 45.7254 45.6056C45.8348 45.6943 45.9254 45.8039 45.9921 45.9279C46.0588 46.0519 46.1001 46.1879 46.1137 46.3281C46.1274 46.4682 46.113 46.6097 46.0715 46.7442C46.03 46.8788 45.9621 47.0037 45.8719 47.1118L37.2378 57.7613C37.597 57.9546 37.9986 58.0557 38.4066 58.0554H73.8232C74.2285 58.0556 74.6275 57.9554 74.9846 57.7637L66.2825 47.1148C66.1036 46.8973 66.0184 46.6177 66.0456 46.3373C66.0728 46.057 66.2102 45.799 66.4275 45.6199Z" fill="#407BFF"/>
</svg>
