<svg width="16" height="17" viewBox="0 0 16 17" fill="none" xmlns="http://www.w3.org/2000/svg">
<g clip-path="url(#clip0)">
<path d="M12.1641 10.9668C11.6414 10.4507 10.9888 10.4507 10.4694 10.9668C10.0732 11.3597 9.67699 11.7526 9.28744 12.1521C9.1809 12.262 9.091 12.2853 8.96115 12.212C8.70479 12.0722 8.43177 11.959 8.18539 11.8058C7.03673 11.0833 6.07452 10.1544 5.22218 9.10898C4.79934 8.58959 4.42311 8.03357 4.16009 7.40764C4.10682 7.28112 4.11681 7.19788 4.22002 7.09467C4.61622 6.71178 5.00244 6.31891 5.39198 5.92604C5.93468 5.38001 5.93468 4.74076 5.38866 4.1914C5.07902 3.87843 4.76938 3.57212 4.45974 3.25916C4.14011 2.93953 3.82381 2.61657 3.50086 2.30028C2.97813 1.79087 2.32556 1.79087 1.80617 2.30361C1.40663 2.69648 1.02375 3.09934 0.617555 3.48556C0.241327 3.84181 0.0515486 4.27796 0.0115952 4.78737C-0.0516643 5.6164 0.151432 6.39882 0.437765 7.16126C1.02375 8.73941 1.91604 10.1411 2.99811 11.4263C4.45974 13.1642 6.20437 14.5393 8.24532 15.5315C9.16425 15.9776 10.1165 16.3205 11.1519 16.3771C11.8644 16.4171 12.4837 16.2373 12.9798 15.6813C13.3194 15.3017 13.7023 14.9555 14.0619 14.5926C14.5946 14.0532 14.5979 13.4006 14.0685 12.8679C13.4359 12.232 12.8 11.5994 12.1641 10.9668Z" fill="white"/>
<path d="M11.5271 8.31358L12.7557 8.10382C12.5625 6.97514 12.0298 5.953 11.2208 5.14061C10.3651 4.28494 9.28304 3.74557 8.0911 3.5791L7.91797 4.81433C8.84023 4.94418 9.67925 5.36036 10.3418 6.02292C10.9677 6.64885 11.3773 7.44126 11.5271 8.31358Z" fill="white"/>
<path d="M13.4452 2.97312C12.0269 1.55478 10.2323 0.659157 8.25126 0.382812L8.07812 1.61804C9.78947 1.85776 11.341 2.63352 12.5662 3.85543C13.7282 5.01741 14.4907 6.48569 14.767 8.10047L15.9956 7.89072C15.6726 6.01957 14.7903 4.32155 13.4452 2.97312Z" fill="white"/>
</g>
<defs>
<clipPath id="clip0">
<rect width="16" height="16" fill="white" transform="translate(0 0.382812)"/>
</clipPath>
</defs>
</svg>
