<svg width="79" height="79" viewBox="0 0 79 79" fill="none" xmlns="http://www.w3.org/2000/svg">
<g clip-path="url(#clip0)">
<path d="M43.6146 0.792969H9.05208C4.04875 0.792969 0 4.79047 0 9.73047V60.1055C0 65.0455 4.04875 69.043 9.05208 69.043H33.9371C32.2254 65.598 31.2708 61.7305 31.2708 57.668C31.2708 54.8405 31.7317 52.078 32.6204 49.543H9.05208C7.68933 49.543 6.58333 48.451 6.58333 47.1055C6.58333 45.76 7.68933 44.668 9.05208 44.668H34.8258C35.4973 43.5175 36.2873 42.4482 37.1267 41.418H29.625V19.4805C29.625 18.148 30.7442 17.043 32.0938 17.043H40.3229C41.6725 17.043 42.7917 18.148 42.7917 19.4805V36.218C45.7213 34.2355 49.0458 32.8055 52.6667 32.123V9.73047C52.6667 4.79047 48.6179 0.792969 43.6146 0.792969V0.792969ZM23.0417 41.418H9.875V32.4805C9.875 31.148 10.9942 30.043 12.3438 30.043H20.5729C21.9225 30.043 23.0417 31.148 23.0417 32.4805V41.418Z" fill="#407BFF"/>
<path d="M57.6028 36.543C45.8055 36.543 36.207 46.02 36.207 57.668C36.207 69.316 45.8055 78.793 57.6028 78.793C69.4002 78.793 78.9987 69.316 78.9987 57.668C78.9987 46.02 69.4002 36.543 57.6028 36.543ZM66.8755 53.5762L56.1776 65.7637C55.7266 66.274 55.0847 66.5795 54.4001 66.6022C54.3704 66.6022 54.3408 66.6022 54.3112 66.6022C53.6561 66.6022 53.0274 66.3455 52.5666 65.8872L46.8062 60.1997C45.8417 59.2475 45.8417 57.7037 46.8062 56.7515C47.7706 55.7992 49.3342 55.7992 50.2986 56.7515L54.1861 60.5865L63.146 50.3782C64.0381 49.3642 65.595 49.2505 66.6286 50.1312C67.6556 51.0217 67.7675 52.559 66.8755 53.5762Z" fill="#407BFF"/>
</g>
<defs>
<clipPath id="clip0">
<rect width="79" height="78" fill="white" transform="translate(0 0.792969)"/>
</clipPath>
</defs>
</svg>
